<?xml version="1.0" encoding="UTF-8"?>
<svg id="Layer_1" data-name="Layer 1" xmlns="http://www.w3.org/2000/svg" version="1.1" viewBox="0 0 1024 1024">
  <defs>
    <style>
      .cls-1 {
        fill: #000;
        stroke-width: 0px;
      }
    </style>
  </defs>
  <path class="cls-1" d="M671.4,911c-.1-.8-.4-.8-.9-.2-1.6,2.5-3.3,5.1-5,7.6-2.5,3.8-4.7,6.2-9,7-1.4.3-2,1.1-2,2.5.5,18.1-3.4,35.6-13.4,50.6-12.6,19-34.8,30.4-57.3,31.3-13.2.5-25.8-3.1-37.9-10.7-15.6-9.9-25.6-26.3-31-43.5-.2-.5-.4-.5-.6,0-4.1,10-9.9,17.9-17.3,23.6-12,9.3-25.8,13.8-41.3,13.3-8-.2-15.5-1.9-22.5-4.9-25.7-11.2-40.5-35.6-45.8-62.6-.1-.6-.6-.9-1.2-.8-.2,0-.3,0-.4.2-3,2.3-6.2,2.8-9.6,1.4-4.6-1.9-8.1-5.1-10.4-9.5-.7-1.3-1.6-2.5-2.7-3.5-.1-.1-.3-.1-.5,0,0,0,0,.1,0,.2-.5,3.7-.6,7.4-.2,10.9.9,8,2.2,14.8,4,20.4,1.8,5.6,3.1,10.6,3.9,14.8.3,1.7-.1,3.3-1.4,4.7-3.3,3.8-7,4.8-11.1,2.9-2.8-1.3-5.4-3.1-7.7-5.5-14.5-14.7-25.8-33.4-30.2-53.8-3.4-15.7-3.7-33.2,1.2-48.9.6-1.8.1-2.1-1.4-1-4.6,3.6-7.9,10.5-10.5,15.6-4.7,9-4.8,20.4-2.2,30,1,3.8,4.5,10.7,2,14.2-5.4,7.4-12.6.8-17.1-3.8-20.4-20.8-33.2-48.3-34.5-77.6-.8-17.5,2.3-35,9.3-52.6,3.2-8.2,8-16.3,14.2-24.4.4-.5.6-1.1.6-1.7,0-.5-.4-.8-.8-.8-.1,0-.3,0-.4.1-1.7,1-3.3,1.9-5,2.9-3.7,2.2-6.7,5.1-10,7.9-6.5,5.6-11.7,13.3-15.8,21.3-2.5,4.7-3.9,9.2-4.3,13.2-.5,5.3-.5,11-1.7,16.3-.3,1.4-1,2.4-2.1,3.2-2.1,1.5-4,2.2-5.7,2.2-11.5,0-22.3-4.7-32.3-10.7-13.7-8.3-23.7-22.5-27.5-37.9-1.8-7.3-2.7-13.9-2.7-19.8,0-7.7,1-15.8,3.2-24.3,2-8,3.5-16.9,4.6-26.7.4-3.6,1.3-7.9,2.6-12.7,3.2-11.7,10.1-23.4,17.1-33,.8-1.1.5-1.6-.8-1.6-.7,0-1.4.2-2,.5-11.3,5-21.1,12.7-29.6,23.1-4.2,5.1-6.8,10.6-7.8,16.4,0,.5,0,1.1.2,1.6,1.2,2.8.5,5.5-2.1,8-5.3,5.4-14.8-3.4-18.3-7.4-6.5-7.3-11.8-15.1-16.1-23.1-7.7-14.6-10.1-30.4-7.3-47.5,3.5-21.9,13.4-39.5,29.7-52.8,8-6.6,18.6-11.7,29.6-13.5,4.3-.7,8.7-1.5,13.1-2.2,1.2-.2,2.4-.2,3.6.1.5.1.5.3,0,.4-21.7,5.8-39.6,23-50.4,42.1-7.6,13.4-11.2,27.8-10.7,43.2.2,5.8,1.8,12.3,2.5,18.3.2,1.2.4,1.2.7,0,.5-1.8,1.1-3.3,1.3-5.2,1.4-10.4,4.5-21,10.7-29.5,7.2-9.8,16.2-17.9,27-24.2,2.6-1.5,2.8-1.3.5.7-8.6,7.6-14.3,19.4-19,30.1-2.9,6.7-4.7,13.3-5.4,19.7-.4,3.8-.8,7.5-1.2,11.2-.4,3.5-.3,7,.2,10.5.2,1.5.5,1.5.9,0,1.8-6.7,4.5-12.7,8-18,3.6-5.5,7.8-11,12.7-16.6,1.3-1.5,4.8-4.5,10.3-9.1,3.8-3.1,7.6-5.6,11.5-7.5,7.9-3.8,15.1-6.1,21.6-6.7,4.5-.4,10.5-.6,18-.5,5.8,0,11.8.7,17.9,1.8,10,1.8,20.2,3.8,30.6,6,4.1.9,8.3,1.7,12.5,2.5.1,0,.2,0,.2-.1v-.4c.1-.1.1-.2,0-.2-10.7-4-21.6-7.4-32.6-10.4-5.7-1.5-11.9-3.7-17.2-6.4-4.6-2.3-9-4.3-13.5-6.1-2.1-.9-2-1.2.2-.9,5.9.7,12,.7,17.8,2,4.8,1.1,9.9,2.1,15.1,3.1,1,.2,1.1,0,.2-.5-8-4.6-15.8-8.3-25-9.7-6.3-1-13-1.2-19.2-1.8-4.6-.4-10.8.2-18.8,1.8-.1,0-.2,0-.2-.1v-.3c-.2-.3-.1-.5.2-.6,7.7-3.4,16.3-5.9,25.7-7.4,2.2-.3,4.4-.5,6.6-.5,2.1,0,2.2-.6.5-1.7-12.1-7.8-21.1-18.8-27-33-2.2-5.2-4.5-10.7-7-16.2,0-.2,0-.3.1-.4h.3c0-.2,0-.1,0-.1,5.1,8.3,11.5,16.5,18.7,22.7,2.4,2,2.9,1.6,1.5-1.2-.7-1.4-1.2-2.7-1.6-3.8-2.3-7-4.8-13.5-7.4-19.3-1.4-3.2-2.7-6.2-3.9-9-.1-.3,0-.5.1-.7,0,0,.1-.1.2-.2,0,0,.1,0,.2,0,2.1,3,4.5,6,7.2,8.9.3.4.6.3.7-.1,1.6-4.6,2.1-9.4,1.4-14.2,0-.8-.5-1.4-1.1-1.8-3.7-2.3-7.2-5.1-10.5-8.2-3.1-2.9-8-6-14.6-9.4-17.5-8.8-35.2-8.5-53.3.6-1.6.8-3,.6-4.1-.8-3.1-3.8-1.6-8.4,2.1-11.4,6.5-5.1,13.9-8.1,22.2-8.9,16.4-1.6,32.5,0,46.9,8.8,5.5,3.4,10.5,7.3,14.8,11.7.8.8,2.2.8,3.1,0,0,0,.1-.1.2-.2,1.2-1.6,1.7-3.3,1.4-5.3-1.3-9.1-1.1-17-.3-25.9,1.7-18.7,6.7-35.9,15-51.6,3.4-6.5,8-13.6,13.8-21.3,9.3-12.4,20.9-22.2,33.6-30.5.3-.2.4-.7.2-1,0-.1-.2-.2-.3-.3-2.8-1.4-5.8-2.3-9-2.5-18.5-1.4-36.5,2-54.1,10.4-18.1,8.6-33.2,18.9-45.4,31.1-3.4,3.4-6.5,5.7-11.7,3.8-7.2-2.7-9.4-10.3-7.1-17.1,1.6-4.7,3.4-9.3,5.9-13.6,5.2-9.2,11.2-17.5,17.9-24.7,7.3-7.9,16.8-15.4,28.6-22.5,2.2-1.4,5.7-3,10.4-5,1.9-.8,3.8-.8,5.5-2.1.4-.3.4-.6-.1-.7-1.5-.4-2.8.4-4.2.4-3.7,0-7.4.2-10.9.5-33.2,2.7-66.7,11.2-96.7,27-4.8,2.5-9.3,1.8-13.5-2.2-4.4-4.2-3.7-10.1-1.1-15.6,3.9-8,8.1-15,12.6-21,20.5-27.7,46.9-47.3,79-58.9,24.9-9,51.8-13.2,80.5-12.6,1.3,0,2.4.6,3.6,1,0,0,.2,0,.2-.1v-.4c.1-.2,0-.3,0-.4-6.3-3.2-12.7-6.3-19.2-9.1-20.5-9-41.9-13.2-64.2-12.5-2.7,0-4.7-.2-6-.8-1.8-.8-3.2-2.4-4.2-4.5-3.3-7.7,2.9-13.5,9.6-16.1,17.5-6.6,34.6-10.5,51.3-11.7,10.5-.7,22.8-.7,36.8,0,7.7.4,15.1,1.3,22.5,2.6,31.4,5.5,61.8,15.6,89.4,30.6,5.2,2.8,10,5.5,14.2,8,7.5,4.4,15.3,10,23.5,16.9,11.2,9.3,20.9,18.7,29.3,28,1.3,1.4,2.5,2.9,3.6,4.5.2.3.5.4.8.2.1,0,.2-.2.3-.4,0-.3,0-.6,0-.9-2.2-5.2-4.5-10.4-6.9-15.5-1.5-3.3-3-5.8-4.5-7.3-1.6-1.7-1.2-2.3,1.1-1.8,5.5,1.3,13.7,11.7,15.8,15.6,1.6,3.1,3.3,6.3,5,9.8.6,1.3.9,1.2.8-.2-.8-8.2-3.8-15.2-7.2-22.9-1.7-4-3.7-7.9-5.8-11.6-8.4-14.7-17.6-27.4-27.7-38.1-8-8.5-18-16.2-30.2-23-21.1-11.9-43.4-16.1-66.9-12.4-4.5.7-9.3,1.7-14.3,2.9-.5.1-1.4,0-2.6-.2-.9-.2-1.7-.5-2.4-1.1-6.9-5.1-4.7-14.7,3.3-17.3,3.3-1.1,6.8-1.8,10.4-2.2,14.4-1.6,27.1-1.5,38.1.3,10.3,1.7,20.8,4.9,31.5,9.6,3.9,1.7,8.7,4.3,14.5,7.6,22.4,13.1,39.9,31.2,52.2,54.3,1.2,2.2,2.5,5.3,4,9.3,0,.2.2.2.4.1l.4-.2c0,0,0,0,0-.2-3.7-20.1-12.5-41.4-26.3-57-10.8-12.2-23-21.6-36.5-28.4-8.4-4.2-16.8-7.6-25-10.2-16.4-5.1-33.9-6.2-51.4-5.6-23.1.7-45.1,8.4-64.1,20.4-3.3,2.1-6,4.7-9.6,6.1-.4.1-.7.1-1.1,0-2.7-1.1-4.5-3-5.4-5.7-.1-.4,0-.7.1-1.1,1.2-2.2,3.2-4.4,5.8-6.5,8-6.5,14.6-11.2,19.8-14.1,6.7-3.8,13.5-6.7,20.4-8.8,7.7-2.3,17.2-4.6,26.1-5.7,6.8-.8,13.3-1.2,19.3-1.1,3.2,0,6.6.2,10.1.4,15.7,1.1,31.3,3.7,45.8,9.3,9.7,3.7,16.5,6.5,20.2,8.4,6,3.1,12.4,7,19.3,11.9,1.3.9,1.7.6,1.1-.9-.3-.8-.7-1.6-1.2-2.3-13.4-18-29.9-32.2-49.5-42.7-9-4.8-20.4-9.6-34-14.2-8-2.7-15.3-4.6-22-5.7-21.1-3.5-42.7-2.9-64.6,1.6-2.6.5-8.3,1.3-10.5-.8-3.8-3.6-6.7-7.2-3.9-12.6,1.2-2.4,2.8-4.5,4.6-6.2,9.8-9.3,19.7-17.2,31.8-23.4,19.8-10,40.4-16.7,61.6-20.1,27.4-4.3,54.5-3.7,81.2,1.9,24.2,5.1,46.9,13.7,68.2,25.8,7.4,4.2,15.9,9.9,25.4,17,14.5,10.9,27.7,24.2,39.4,40,6.8,9.1,12.2,17.5,16.3,25.1,7.1,13.2,12.9,27.1,17.3,41.6,5.3,17.3,7.1,35.4,7.1,53.1,0,.2,0,.3.2.3.5.3.8.1.9-.5,2.7-14.2,3.8-28.5,3.4-42.9-.4-12.2-2.5-22.9-5.3-34.1-1.4-5.4-2.8-10.1-4.4-14.2-5.8-14.9-13.1-28.7-21.9-41.2-2.4-3.5-5.1-6.7-7.9-9.7-.9-.9-.7-1,.3-.4,10.5,6,19.2,14.1,26.2,24.1,4.8,6.8,9.1,13.9,12.3,21.6,7.9,19.1,11.8,38.8,11.6,59.1,0,7.3-.6,15.9-1.5,26-1.8,18.8-7.5,37.9-17,57.3-.9,1.8-2.2,3-2.9,4.8,0,.1,0,.2.1.3,0,0,0,0,0,0h.3c.4.1.8,0,1.1-.4,1.6-2.7,3.8-4.6,5.5-7.1,2.3-3.3,3.8-5.6,4.5-6.9,3.8-6.9,7.7-14,11.8-21.5,1.8-3.4,3.2-6.8,4.5-10.4,0,0,0,0,0,0h.3c.2.1.2.2.2.4-2.9,14.7-7.4,27.2-13.9,41.6-2.6,5.7-6,10.4-9.5,15.5-.5.7-.9,1.4-1.1,2.2-.3.7-.1.8.5.3,6.5-6,13.3-11.6,19.1-18.5,4.9-5.8,9.5-11.7,13.8-17.5,2.4-3.4,5.1-8,7.9-13.8,0,0,0,0,.1,0h.3c.2.2.2.3.2.4-1.7,6.1-4,11.9-7.2,17.3-4.8,8.4-9.7,16.6-14.8,24.6-.9,1.4-1.8,2.7-2.9,4-.8,1-.5,1.3.8,1,.2,0,.3-.1.4-.2,4-4.2,8-8,12.1-11.5,2.6-2.2,4.5-5.2,6.6-8,.3-.3.4-.3.4.1,0,1.2-.7,2.5-1.1,3.7-1.4,4.7-2.2,9.6-4.5,14.1-1.1,2.1-2.2,4.2-3.3,6.3,0,.2,0,.3,0,.5,0,0,.2.2.3.2,0,0,.2,0,.3,0,6.4-6.2,11.8-13.4,16.3-21.7,3.4-6.5,6.9-12.8,10.2-19.2,2.2-4.1,4.3-8.7,6.3-13.8,1.9-5,3.8-9.9,5.5-14.9.1-.3.2-.3.2,0,0,5.3-.8,10.4-2.1,15.3-1.7,6.4-3.6,12.8-5.7,19.1-2.2,6.6-4.9,13.5-8.2,20.7-3.1,6.8-7.4,14.5-12.9,23-.1.2,0,.3,0,.4l.2.2c0,0,.1,0,.1,0,4.2-4.1,8.5-8.1,12.1-12.9,8.6-11.8,15.9-25.4,22.1-40.9,0,0,.1-.1.2,0h.4c.3.2.4.5.3.7-3.2,11.9-7.2,23.7-11.9,35.3-.9,2.3-2.1,4.8-3.6,7.5-2.2,4.1-4.1,8.4-6.6,12.2-1,1.6-2.1,3.2-3.1,4.7-.9,1.2-.6,1.6.9,1.1,1-.3,2.1-1.1,3.3-2.4,3.5-3.5,7.7-6.7,10.7-10.3,13.4-16.3,22-34.8,25.8-55.5,2.4-13.2,4.4-27,4.5-40.3.2-19.7-1.9-39.3-6.4-58.7-1-4.1-2.7-10.2-5.2-18.4-4.1-13.4-9.7-26.6-16-38.5-2.5-4.7-6.4-10.9-11.6-18.6-.2-.3-.5-.4-.8-.3-.3,0-.4.3-.3.6,1.3,3.8,2.2,7,2.8,9.9,6.1,28.3,6.4,57.1,1.1,86.5-2.5,13.7-6,27.1-10.5,40.2-3.2,9.4-6.2,18.9-9.9,28.1-1.2,3-2.6,6.3-4.1,9.7,0,0,0,0-.1,0h-.3c-.1-.1-.2-.2-.1-.4,1.5-5.2,2.5-9.8,2.9-14,1.1-10.9,1.9-21.7,1.1-32.9-1-14.4-2.7-26.4-5.1-36.2-7.4-30.2-21.4-56.5-43.3-77.9-16.2-15.9-35.7-26.7-58.5-32.4-2.3-.6-3.7-2.6-3.3-5,.4-3,2.1-4.5,5.1-4.7,3-.2,5.8,0,8.5.5,12.9,2.4,24.9,6.8,36.1,13.2,12.2,7,23.8,16,33,26.9,9.7,11.6,18,23,24.3,36.3,3.9,8.2,7.8,16.6,10,25.6.2,1,.6,1,1.1.2.2-.3.3-.7.4-1.1,1.1-7.6-.6-14.5-.8-21.8-.3-10.7-1.2-20.1-2.9-28.3-1.5-7.3-4.3-17.9-8.3-31.9-1.3-4.3-3.3-10.1-1.6-14.5,1.9-4.7,7-6.9,11.8-6.3,4.1.5,8.3,2.8,11.3,5.5,7.9,7.1,13.7,13.3,17.5,18.5,14.2,19.8,23.4,42.8,30.1,66.5,3.4,12,5.6,24.7,6.7,38.1.4,4.4,0,8.7.4,13,.1,1.4.5,1.5,1.1.2,5.2-11.6,9.4-22.2,12.8-31.9,6.4-18.3,10.5-37.7,12.4-58,.7-7.1,3-14.7,11.8-14.3,9.4.4,12.1,8.8,14.3,16.7,3.5,12.6,5.7,24.2,6.5,35,.4,6,.6,14.3.5,25-.2,20.3-4.2,41.3-9.7,59.8-3.5,11.6-7.8,23-12.8,34.2-4.7,10.4-10.4,20.3-17.2,29.8-.3.4-.2.6.3.6.6,0,1.3-.2,2-.8,13.7-12.4,24.4-26.1,31.9-40.9,7-13.8,12.2-26.9,14.1-42.3.5-3.6,2.3-6.1,5.5-7.4.4-.2.8-.2,1.2,0,4.7,1.4,5.4,4.8,4.8,9.5-.6,4.9-1.2,8.3-1.6,10.3-7.3,32.2-22.7,59.4-46.2,81.6-10.2,9.6-21.1,17.7-32.9,24.2-4.3,2.4-8.7,4.8-12.6,7.8-3.2,2.6-6.4,5.1-9.6,7.7-.5.4-.4.6.2.7,1.5.2,2.8.2,4-.2,4.1-1,8.1-2.1,12-3.3,3.9-1.2,7.9-2.7,11.8-4.5,16-7.6,31.4-16.8,46.8-25.6,9.7-5.5,20.7-10.6,33-15.2,7.9-3,14.9-4.8,23.9-6.8,18.4-4.1,36.9-4.9,55.5-2.4,17.9,2.4,33.2,8.1,48.3,18.1,5.5,3.6,15.5,12.5,12.3,19.5-2.5,5.6-7.3,7.1-12.9,5.9-9.6-2.1-19.9-1.3-30.8,2.5-11.3,3.9-22.5,9.9-33.4,18-11.1,8.2-24.2,18.2-39.2,30-1.1.9-2.4,1.8-3.7,2.7-2.9,2-2.7,2.5.7,1.6l24.4-6.7c.6-.2,1.3-.1,1.9.1,2.2.9,5.1,4.1,4,6.8-1,2.5-4.3,3.9-6.6,4.8-3.4,1.4-9.1,3.5-17,6.4-7.8,2.9-14,4.8-18.5,5.8-9,2-18.2,3.5-27.4,4.6-2.1.2-4.3,1-6.7,1.1-1.1,0-1.2.3-.2.8,7.3,3.6,14.5,7.6,21.6,12.1,7.1,4.5,20.2,13.8,21,23,.3,3.8-1.4,6.8-5.3,8.8-4.1,2.2-9.1,0-12.4-3-9.4-8.5-19.1-16.1-31-21-1.3-.5-2.5-.9-3.7-1.2-1.6-.3-1.9.2-1,1.5,4.6,6.6,9.4,13.8,12.8,20.9,7.1,14.8,11.3,30.5,12.8,46.9.7,7.4.3,15.9.2,23.9,0,.9-.3,1.6-.4,2.4-.3,2.2.4,2.5,2,1.1,1.6-1.4,2.8-2.9,4.5-4.1,15.8-11.1,33.1-15.5,52-13.3,6.8.8,12.7,2.9,17.7,6.4,1.7,1.2,3.3,2.9,4.7,5,1.1,1.7,2.2,2.9,1.1,5.1-1,2.2-3,5.2-5.9,3.9-8-3.5-18.5-6.8-27.2-6-2.6.2-5.4.4-7.9,1.1-12.3,3.3-23.4,9.9-33.1,19.9-.3.3-.4.7-.3,1.2,1.2,5.2,1.8,10.4,1.9,15.6,0,2.3.7,2.5,2.1.6l4.4-6.4c.1-.2.4-.3.6-.1l.3.2c.1,0,.1.1,0,.3-1.3,2.9-2.7,5.8-4.4,8.7-1.4,2.5-2.5,5.1-3.3,7.9-1.5,5.7-3.6,11.4-6.2,17-.6,1.3-.4,1.4.7.5,6.8-6.3,13.1-12.7,17.2-21.1,0-.2.3-.2.4-.2,0,0,.1,0,.2.1l.2.4c.2.3.2.7,0,1-2.4,7.1-5.1,13.7-8.1,19.8-2.4,4.8-5.6,9-9.3,13-1.9,2.1-3.8,4.3-5.5,6.5-2,2.5-5.2,3.7-7.3,6.4-.4.5-.2.7.3.8,8.3.8,17,3,26.1,6.6.6.2,1.2.5,1.7.9,1.7,1.2,1.5,1.6-.5,1.3-5.8-.9-11.5-1.9-17.7-1.3-3.2.3-6.6.6-10.2.9-11.1,1-21.7,4.5-31.6,10.4-.6.4-.5.5.1.6,1.2,0,2.3,0,3.4-.4,9.1-2.4,18.2-4.1,27.2-5.2,3.3-.4,3.5.2.5,1.7-8.4,4.2-17.5,9.4-26.5,12.2-6.8,2.1-13.7,3.8-20.4,6.3-2.7,1-5.5,2-8.6,2.9-.6.2-1,.6-1.1,1.1-.1.4,0,.6.4.5,12.1-2.9,25-5.9,38.5-8.9,6.5-1.4,12.4-2.1,17.5-2.1,6.3,0,12.4.7,18.2,1.8,22.6,4.3,37.8,22.1,50.9,39.7,2.9,4,4.9,8.9,7.4,13.3.2.4.5.4.7,0,.5-.7.6-1.5.4-2.2-.4-1.6-.6-3.2-.7-4.7,0-6.7-.6-12.3-1.7-16.9-2.1-9.4-6.2-19.4-12.3-30-2.8-4.9-6.1-9.2-9.9-12.9-.2-.2-.2-.5,0-.8l.2-.3c0-.1.2-.1.3,0,3.6,2.5,7.1,5,10.6,7.6,15.6,11.7,24.1,29.1,26.7,48,0,.6.3.6.6.1.4-.6.6-1.3.8-2.1,1.2-6.6,2.2-13.4,1.5-20-.9-8.4-2.5-15.8-4.8-22-4.1-10.8-9.9-20.7-17.4-29.4-5.3-6.1-10.8-11.6-16.7-16.5-4.2-3.5-9.4-6.6-15.7-9.3-1.4-.6-2.8-.7-4.3-1.1-.5-.1-.5-.3,0-.6.6-.3,1.3-.4,2-.3,26.1,2.8,45.9,15.2,59.5,37.3,6.5,10.5,11.6,24.1,12.4,37,1,17.1-1.5,32.1-10.3,46.6-6.1,10.2-12.6,18.5-19.3,24.8-1,1-2.2,1.8-3.5,2.4-.4.2-.9.2-1.3,0-3.4-1.5-5.2-4.4-5.4-8.5-.2-4.6-1.3-8.6-3.5-11.9-7.6-11.8-18.6-20.9-30.5-28.3-2.2-1.3-2.5-1-1.1,1.1,4,5.7,8.3,11.6,11.1,17.9,3.5,7.9,5.8,14.6,7,20.1,2,9.4,4.2,19.1,6.6,29.2,5.1,21.4,5.4,41.1-4.1,61.4-1.4,2.9-3.2,6-5.5,9.3-5.1,7.4-11.5,13-19.2,17.1-7.4,3.9-14.8,6.9-22.4,8.1-5.4.9-9.2-3.5-9.3-8.7,0-6.3.1-12.5-2-18.5-3.1-8.8-7.9-16.7-14.4-23.6-4.6-5-10.4-8.4-15.5-12.9-.3-.3-.7-.4-1.1-.2-.2,0-.3.3-.2.5,0,0,0,0,0,0,3.4,5.3,6.5,10.7,9.3,16.1,7.2,13.9,11.5,30.7,12.8,45.4,1.6,18.5-2.1,37.2-9.2,55.5-5.3,13.9-15.1,27.7-25.3,38-2.3,2.4-5,4.4-8,6-3.7,2.1-10.5-2.9-9.4-7.1.7-2.7,1.5-5.4,2.4-8.2,1.6-4.9,1.8-10,1.9-15.2.1-7.1-1.7-14.1-5.6-21-1.6-2.8-3.3-5.8-5-8.9-.6-1-1.6-2.2-2.5-3-1.5-1.4-2-1.1-1.5.9,1.9,6.8,3,13.4,3.4,20,1.5,28.1-4.6,53-20.7,75.8-3.2,4.6-10.4,13.5-16.4,13-3.3-.3-6.3-2.7-6.4-6.3,0-2.2.1-4.2.6-6.1,2.7-10.9,4.1-20.8,4.2-29.7,0-5,1.5-9.2.7-14.2ZM369.5,62.2c2,.2,4,.6,6,1,9.4,1.9,19,3.2,27.9,6.1,10.3,3.3,19.6,7.2,28.1,11.8,28.2,15.2,53.6,38.7,70.8,66.8,7.3,11.9,13.6,25.7,18.9,41.4,6.3,18.6,9.1,36.8,8.6,54.6-.5,14.6-2.1,29.7-5.1,45.1-1.7,8.9-3.3,17.2-4.8,24.8-1,5.1-2.4,11-4.1,17.8-4.9,18.6-9.3,37.6-10.1,56-.2,3.5-1,7.1-.7,10.7,0,1,.4,1.1.8.1,2.3-4.9,3.9-10.2,6.4-15,4-7.7,8.3-14.9,12.9-21.6,4.9-7.2,9.6-14.4,14.7-21.3,3.8-5.1,7.3-10.3,10.6-15.7,7.5-12.3,12.6-25.5,15.3-39.6,4.8-25.1,5.2-51.1,1.2-77.8-1-6.9-2.6-14.3-4.8-22.1-4.6-16.7-9.6-33.2-18-48.8,0-.2-.2-.3-.4-.5-.4-.3-.7-.7-.7-1.2,0-.7.1-.8.6-.3,2,2,3.9,4.3,5.7,6.7,3,4.1,5.1,7.3,6.4,9.5,7.2,12.5,12.5,24.7,16,36.4,3.2,10.9,5.5,20.1,6.7,27.5,2.7,15.8,2.4,33.6,1.9,49.6-.2,7.1-2,15.2-2.2,22.5,0,2.1.3,2.2,1.2.3,4.8-10.9,8.2-22.5,10.4-34.7,2-11,2.3-23.3,2-34.8-.3-10.4-1.5-21-3.8-32-2.2-10.8-6-21.2-10.2-31.6-5.9-14.7-13.7-28-23.4-40.1-15.7-19.5-33.7-36-54-49.5-6.2-4.1-12.9-7.9-20.1-11.3-18.1-8.6-35.7-14.5-52.9-17.6-32.8-6-65.6-4.1-98.2,5.8-9.8,3-20.4,7.3-29.3,12.2-2.8,1.5-5.7,3.1-8.7,4.7-1.1.6-1,.9.2,1,4.9.5,9.9-.7,14.7-.7,14.7.2,28.5,1.8,41.3,4.7,3.2.7,6.4,1.6,9.7,2.7,8.7,2.9,17.4,6,25.9,9.5,16,6.5,31.7,15.4,47,26.7,14.8,11,26.8,23,36.2,36.2,6.8,9.6,12.7,19.5,17.7,29.6,3.7,7.5,7.3,15.7,10.9,24.5,0,0,0,.1,0,.1l-.3.2c-.1,0-.3,0-.4-.1-3.9-6.9-8-13.7-12.1-20.5-4.1-6.8-11.3-16.8-21.7-30.1-1.6-2-3.5-4.1-5.9-6.3-.3-.3-.5-.6-.6-.9-.2-.7-.6-1.2-1.3-1.5-.9-.3-1.1,0-.6.7.7,1.3,1.5,2.5,2.4,3.6,2.9,3.7,5.5,7.3,8,10.9,7.3,11,13.9,22.3,19.8,33.9,4.5,8.8,8.3,18.5,11.5,28.9.4,1.2.6,2.5.6,3.7,0,.5-.1.6-.4.1-.2-.2-.3-.5-.3-.8,0-.3,0-.6-.2-.8-2.1-4.3-4.7-8.4-6.6-12.9-3.1-7.4-8-14.5-12.4-21.4-3.1-4.8-6.1-9.1-9-13-.8-1-1.6-1.9-2.5-2.6-1.1-.9-1.3-.7-.5.5,3,4.8,5.7,9.4,8.1,13.8,1.2,2.1,1.8,4.3,3,6.4.8,1.5,1.6,3.1,2.3,4.7,7.4,16.5,12.4,33.4,14.9,50.8,2,14.1,3.1,26.4,3.3,37,.1,7.7.6,14.1,1.4,19.1,0,.5.2.5.5.1.8-1.4,1.3-2.7,1.3-4.1,0-3.9.2-7.8.6-11.8,0,0,0,0,.1,0h.3c.4,0,.6.2.6.5,2,16,2.5,30.8,1.3,44.3-.5,6.2-.7,11.7-.6,16.5.1,6.4-.5,12.4-1,18.7-.2,2.2.2,2.3,1.1.3.9-2.1,1.7-4.1,2.4-6,2.7-7.6,5.5-15.2,8.3-22.7,5.6-14.9,9.9-29.5,12.8-43.8,2.6-12.5,3.4-24.5,2.2-36-1.7-17.1-6-34.9-13-53.4-3.2-8.6-6.1-15.4-8.5-20.7-10.2-21.7-23.1-40.4-38.6-56.3-15.6-16-33.9-29.7-53.9-40.4-6.4-3.4-12.2-6.4-17.3-8.8-5.2-2.5-10.5-4.7-16.1-6.6-2.8-1-5.8-1.2-8.4-2.6-.8-.4-.7-.6.1-.5ZM718,256.2c.1,0,.2,0,.3.1,0,0,0,0,0,.1-5.4,13.9-12.9,26.7-22.5,38.3-.8.9-1.4,1.9-1.8,3-.4.9-.2,1,.4.3,1.1-1.1,2.3-2.1,3.5-2.8,1.3-.8,2.5-1.7,3.6-2.9,5-5.1,9.6-10.7,13.8-16.7,5.1-7.3,9-13.5,11.6-18.7,7-14.1,13.5-29,19.3-44.8,5.4-14.8,9.4-32.4,11.9-53,.4-3.4.5-13,.2-28.7,0-2.7-.2-5.5-.5-8.4-.3-2.7-.1-8.5-1.6-10.5-.3-.4-.4-.3-.5.1-1.9,11.4-4.6,22.3-8.1,32.8-4.4,13.1-9.4,25.7-15,37.7-5.1,11.1-10.1,22.2-14.3,33.5-3.4,9.1-6.7,17.4-9.7,24.7-3.3,7.8-7.9,17.7-14,29.7-3.3,6.7-6.7,12.5-10.1,17.6-3.7,5.5-7.8,11-12.3,16.3-.8.9-1.6,1.8-2.4,2.6-.1.1-.1.4,0,.5.1.1.3.1.5,0,3.1-2.2,6.1-4.6,9.1-7.2,14.3-12,26.9-27.5,37.8-43.3.3-.4.5-.6.9-.7ZM291.8,285.5c-1.7-.2-1.7-.4,0-.6,4.4-.4,9.2-.4,14.6,0,10.9.9,21.4,2.5,31.5,4.7,5.8,1.3,13.5,3.4,23.2,6.3,8.2,2.5,16.5,4.8,25.1,7.1,1.2.3,2.4.7,3.6,1.3,1.1.5,2.3,1,3.5,1.4,2.9,1.1,3,.7.5-1-8.4-5.8-17.6-11.4-27.5-16.7-8.3-4.4-16.7-7.9-25.2-10.4-.2,0-.2-.1-.2-.3h0c0-.2.1-.2.3-.2,3.3.7,6.5.8,9.8,1.5,15.8,3.2,32.1,8.2,46.6,15.2,6.4,3.1,13.1,5.9,18.9,9.8,3,2,6,4,9.1,6.2.2.1.4,0,.5,0,0,0,0-.1,0-.2,0-.2,0-.3-.2-.5-5.6-6.1-10.5-10.9-14.6-14.5-4.9-4.3-11.8-10-20.6-16.9-6-4.7-12.5-9.1-19.3-13.2-7.4-4.4-14.8-8.7-22.2-12.9-3.4-1.9-8.8-4.3-16.2-7.1-.7-.3-.6-.4,0-.6,2-.4,3.7.8,5.5,1.2,10.3,2.5,19,5.2,26.1,8,8.3,3.3,17.2,7.7,26.7,13.4,17,10.1,32.1,21.7,45.4,35,5.2,5.1,10.2,10.3,15.2,15.6,2.4,2.5,4.7,5.4,6.9,8.6.2.3.4.3.5,0,0-.2,0-.4,0-.6-5.7-14-16.7-27.9-27.2-37.9-7.3-6.9-14.7-13.6-22.3-20-7.4-6.2-15.9-12.2-24.1-17.2-1.7-1.1-5.3-3-10.8-5.6-.2,0-.2-.2,0-.3l.2-.3c.2-.3.6-.4.9-.3,4.6,1.8,9.2,3.6,13.8,5.4,14.3,5.5,24.7,12.7,39.3,22.9,1.8,1.2,3.4,2.6,4.9,4.2,1.5,1.5,1.7,1.3.7-.5-.9-1.5-1.9-2.9-3.1-4.2-8.1-8.5-17.5-16.3-28.3-23.6-17-11.4-35-20.6-54-27.5-5.1-1.9-10.7-3.7-16.8-5.5-17.2-5.1-36.2-9.5-52.6-10.3-8.3-.4-17.6-.6-27.9-.5-6.1,0-12.2.6-18.3,1.6-1.3.2-1.5.8-.6,1.8,0,0,.5.2,1.2.4,6.4,1.8,12.2,3.7,17.3,5.6,10.9,4.1,22.6,10,35.1,17.9,9.7,6.1,21.4,14,35,23.7,4.8,3.5,11.1,8.6,18.8,15.4.7.6.6.8-.3.4-1.7-.7-3.5-1.5-5.3-2-29.4-8.2-59.4-11.1-89.9-8.6-8,.6-15.6,1.8-22.7,3.6-18.9,4.6-35.7,11.2-50.4,19.6-10.5,6-20.5,14-30,23.9-5.5,5.7-10,12.1-15.4,17.9-1.3,1.3-1,1.9.8,1.5,2.3-.4,5-2.1,7.1-2.8,13.8-4.8,28-8.7,42.8-11.6,7.9-1.6,15.6-2.2,23.6-3.3,5.9-.7,11.7-1.2,17.5-1.3,23.4-.5,46,1.2,68,5.1,12,2.1,22.9,4.4,32.8,6.9,4.1,1,8.4,2.4,13,4.1.2,0,.3,0,.3-.2v-.4c0-.4-.2-.7-.5-.9-21.3-10.8-44.4-16.8-67.8-19.8-6.9-.9-14.5-1.4-22.7-1.6-8.9-.2-17.6,0-26.2.6-9.5.7-19.8,2.5-30.8,5.4,0,0,0,0,0,0v-.3c-.2-.2,0-.4.1-.5,14-5.9,27.6-9.6,40.9-11.2,10.6-1.3,20.6-1.9,30-1.9,26,0,54,5,80.6,12.8,8.4,2.5,17,4.7,25.7,6.6.2,0,.5,0,.6-.3.2-.3.1-.5-.1-.7-10.9-6.1-21.9-11.4-32.9-15.9-12.3-5-24.8-8.3-37.4-9.9ZM816.1,335.1c-1.5,1.8-3.2,3.4-5.3,4.9-7.7,5.4-15.7,10.4-24.1,15.2-3.8,2.1-8.4,3.9-11.8,5.6-12.1,5.9-24.2,10.3-36.4,13.3-2.3.5-2.2.9,0,1,2.5.2,5.1,0,7.7-.2,13.1-1.4,26.2-5.5,39.1-12.1,6.9-3.5,13.7-7.8,20.6-13,9.3-7,18.3-13.6,27-20.9,8.2-6.9,16.9-13.4,26.2-19.5,13.8-9.1,28.7-15.8,44.1-19.9,1.5-.4,1.5-.8,0-1.3-2.8-1-5.7-2.2-8.8-3.7-3.5-1.7-8.9-3-16-4-9.3-1.3-18.1-1.8-26.4-1.5-6.3.2-13.4,1.2-21.3,3-15.6,3.4-29.6,8.1-42.1,13.9-7.3,3.4-15.2,7.6-24,12.4-11.4,6.3-24,11.7-37.8,16.3-5.9,2-12.3,3.7-19.4,5.4-3.6.8-3.6,1.3.1,1.5,2.1.1,4.2,0,6.1,0,10.1-.7,20.4-2.8,30.3-4.4,1.1-.2,1.1,0,.2.6-1.7,1-3.8,2-6.2,3-8.3,3.3-16.6,6.8-24.7,10.3-1.2.5-1.2.8.2.9,2.4,0,4.5.2,6.8-.2,12.2-2.4,24.1-5.2,35.7-8.6.4-.1.8-.1,1.2,0,1.2.2,1.3.6.2,1.2-8.2,4.7-16.5,9.1-24.9,13.1-2.5,1.2-4.8,1.8-7,3.6-.4.3-.5.7-.1,1.1.1.2.4.2.6.2,7.6-1.3,15.3-2.7,23-4.2,5.6-1.1,11.3-2.8,17.1-3.5,1.3-.2,1.4,0,.2.7-11.9,6.7-24.3,12.2-37.2,16.6-.6.2-1,.5-1.4.9-.4.5-.3.6.3.4,2.9-.9,5.6-.4,8.7-.9,6.3-1.2,12.7-2.1,18.8-3.5,9-2.1,19.3-5.3,31-9.7,10.2-3.8,19.8-8.6,28.9-14.3,1.2-.7,1.3-.6.4.5ZM552.6,364.4c-.8,1.1-1.8,1.8-2.5,3-7.4,11.6-13,22.6-16.8,33.2-8.1,22.8-12.5,46.2-11,70.4.3,4.6,1.5,9.3,2.9,13.7,1,3.2,1.5,3.1,1.5-.2,0-4.2-1.1-8.3-.9-12.6.3-13,1.1-24,2.5-33.1,1.6-11,5.2-22.4,10.6-34.2,1.9-4.1,4.9-8.7,7.7-12.2,11.3-13.7,22.2-25.9,32.9-36.7,7.5-7.6,15.3-13.8,23.7-18.7,8.2-4.8,18-8.2,29.2-10,15.4-2.5,30.8-1,45.9,4.6,0,0,0,0,.1,0,.1,0,.2-.1.2-.3,0-.1,0-.2-.1-.3-20.8-15.9-49.4-20-73.5-9.3-5.9,2.6-11.8,5.8-17.9,9.7-8.7,5.5-16.1,11.7-22.4,19.5-1.9,2.4-3.9,4.9-5.8,7.4-.9,1.2-1.1,1.1-.6-.4,1.2-3.3,3.5-6,4.8-8.7,2.6-5.4,5-9.6,7.3-12.4,16.8-20.8,38.5-33.1,65.2-36.7.8,0,.8-.3,0-.5-1-.3-2.1-.4-3.2-.3-3.5.2-7.2.2-11.1.2-1.9,0-5.4.3-10.5.9-12.5,1.6-25.1,6.9-35.7,13.7-6.1,3.9-11.6,9.2-16.1,14.7-13.3,16.5-22.9,35.8-29.8,56.5,0,.3,0,.5.3.6h.3c.2.2.4.2.6,0,3.4-5.5,6.9-9.9,10.5-13.1,3-2.6,6-5.3,9.1-7.9.6-.5,1.4-.9,2.4-1.2.5-.1.6,0,.3.5ZM465.1,365.6c2.4,1.5,4.7,3.2,6.7,5.2,5.5,5.2,10.4,10.7,14.7,16.6.8,1,1.4,2.2,2,3.5,0,0,0,0,.1,0,.1,0,.3,0,.4-.1,0,0,.1-.2,0-.3-1.9-6.2-4.1-12.2-6.6-18.1-4.7-11.1-11.3-20.8-19.9-29-5.9-5.7-12-11.3-18.6-15.9-.4-.3-.6-.2-.4.3.3.8.7,1.5,1.2,2.2,7.6,9.1,14.1,18.7,19.4,28.8.4.8.3,1-.4.4-2.5-1.9-4.6-4.2-7-6.3-5.6-4.9-11.3-9.7-17.1-14.5-8.3-7-18.3-12.8-30.1-17.6-19.9-8.1-43.1-5.2-61.3,5.5-1,.6-.9.8.2.7,3.6-.4,7.4-1,11.3-1.5,6.7-1,13.6.3,20.4.9,2.8.2,5.7.7,8.8,1.3,15.8,3.2,30.1,10.8,42.7,22.8,9,8.5,17,17.7,25.6,26.5,4,4.1,7.6,8.1,10.6,12,9.8,12.5,16.5,26.7,20,42.7,2.7,12.3,4.2,25.1,4.3,38.3,0,3.9-.2,7.4-.7,10.7-.3,1.7-.3,3.3-.3,5.1s.4,1.7,1.1.2c1.6-3.3,2.6-6.7,2.9-10.1.9-8.4.8-17-.1-25.8-1.3-11.7-3.3-22.3-6.1-31.8-2.5-8.5-6.5-20.9-11-30.7-2.2-4.8-4.1-8.3-5.7-10.6-2.4-3.5-5.1-7-8.1-10.4-1.5-1.8-1.3-2,.7-.8ZM307,338.3c.5,0,.5-.3,0-.5-1.7-.8-3.3-.7-5.1-1.1-20.5-5-41.1-6-60.7.4-14.3,4.7-27.8,12.3-40.3,22.9-5.5,4.7-9.3,10.5-14.4,15.7-.3.3-.3.7,0,1l.2.3c.1.2.3.2.4,0,6.9-6,14.2-10.9,22-14.8,13.8-6.9,28.8-12.1,45-15.6,11.7-2.5,22.7-4.5,33.2-6.1,6.6-1,13.1-1,19.8-2.3ZM431.2,371.7c14.6,9.1,26,21.2,35.5,35.4,0,0,0,0,.1,0l.3-.2c0,0,0-.1,0-.2-3.5-7.6-6.3-12.9-8.4-16.2-9.8-14.9-22.9-27.2-39.4-36.7-6.8-4-13.6-6.9-20.1-8.7-20.8-5.8-40.8-5-60.1,2.4-13.7,5.3-24.8,11.5-33.3,18.8-9.8,8.3-22.3,21.2-32.8,32.5-2.9,3.1-5.7,6.8-8.5,11.2-4.4,6.7-8.1,13-11.2,19-7,13.7-11,28.3-11.9,43.7-.4,7.6-.3,15.5.6,23.6,1.1,10,4.2,20.7,6.8,30.6.6,2.2,1.6,4.2,2.4,6.3,1.6,4.3,4.1,8.1,5.4,12.4.8,2.8.5,2.9-.9.4-2.6-4.7-5.3-9-7.8-12.9-3.1-4.8-5.3-10-8.1-14.9-.4-.7-.6-.6-.6.1,0,1.7.3,3.7,1.1,6,2.4,7.1,5,13.6,7.7,19.3,0,.2,0,.3-.3.4-.1,0-.3,0-.4-.1-7.6-8.6-12.4-15.2-14.5-25.2,0-.4-.3-.6-.6-.7-.4-.1-.9.1-1,.6,0,0,0,.2,0,.2,0,3,0,5.9-.5,8.5-.4,2-.4,4.4-.2,7,.4,4.5.8,8.6,1.3,12.3,1.9,13.7,7.7,25.6,17.6,35.6,11.6,11.9,25.1,18.4,41.8,22.1,1.8.4,3.6.2,5.3,1.1.2.1.4,0,.5-.2,0,0,0,0,0,0l.2-.5c0-.2,0-.3-.2-.4-6.1-2.3-11.6-5.1-16.5-8.5-4.9-3.4-9-7.2-12.3-11.4-4.9-6.4-8.8-12.8-11.6-19.2-.3-.7-.2-.7.3-.2,7,8.6,15.1,15.2,24.5,19.9,12.7,6.3,25.3,10.3,37.9,11.7.4,0,.6-.1.8-.5v-.3c.2-.2,0-.4-.1-.4-8.7-2.7-15.5-5.5-20.4-8.4-10-6-18.8-14.7-26.3-26-.2-.3-.2-.6,0-.8.2-.4.5-.4.8,0,5.6,5.7,12.2,10.4,19.8,14.2,8.2,4,15.3,7.1,21.3,9.3,0,0,.1,0,.1,0l.2-.3c0-.1,0-.3,0-.4,0,0,0,0,0,0-8.4-4.8-16.5-10.4-24.3-16.8-2.9-2.3-5.1-5.2-7.6-7.9-1.7-1.8-3.3-3.8-4.7-6-4.1-6.2-7.7-12.4-10.6-18.6-3.1-6.5-5.1-14.2-6.6-21.3-3.1-14.9-3.9-30.6-2.4-47.2.9-9.9,2.7-17.9,5.3-24.1,2.5-5.8,4.7-11.1,6.6-15.9,1.5-3.6,4.5-9,9.2-16.2.1-.2,0-.4-.1-.6,0,0-.1,0-.2,0h-.3c-.3-.1-.7,0-.9.3l-6.1,8.2c-1.3,1.7-1.6,1.6-.9-.5,7-20.2,21.4-33.8,38.7-45.6,3.9-2.6,7.9-4.8,12-6.3,7.2-2.8,15-5,23.2-6.7,0,0,0,0,.1,0v.3c.2.3,0,.5-.3.6-16.5,5.1-31,13.6-43.3,25.5-3.3,3.1-5.6,6.7-8.6,10.1-.4.5-.6,1-.6,1.6,0,.5.2.6.6.2,33.2-31.4,77.6-42.1,120.8-25.8,7,2.6,15,7,23.9,13,1.2.8,1.9,1.8,3.1,2.6.5.4.6.3.4-.3-.5-1.1-1.1-2-1.8-2.8-3.2-3.7-6.2-7.3-9.1-10.8-.6-.7-.5-.8.3-.3ZM675.1,359.1c-3.9-1.5-3.7-1.9.3-1.1,4.5.8,8.8,2.1,12.9,3.8,8.1,3.4,15.7,6.6,22.9,11.9,11.6,8.6,22.8,20.2,28.9,33.2,1.5,3.2,2.9,6.3,4.2,9.2.6,1.3.4,1.4-.6.4l-7.4-8.1c-.2-.2-.4-.2-.6,0-.1,0-.2.2-.2.3,0,.2,0,.4.1.6,2.4,3.1,3.9,6.8,5.9,10.3,5.7,9.9,10,21.6,12.7,32.3,1.9,7.3,2.9,14.6,3.2,22,.3,8.9.1,16.9-.5,23.9-1.4,15.9-5.6,30.4-12.7,43.6-2.7,5.2-7.1,11.5-13,19.1-1.8,2.4-4.3,4.3-6.4,6.3-1.5,1.4-3.2,2.7-4.9,3.9-5.6,3.8-11,7.3-16.4,10.6-.3.2-.5.4-.7.7,0,.1,0,.3,0,.4,0,0,.1,0,.2,0,3-.5,5.9-1.4,8.9-2.9,9.4-4.6,20.7-9.1,28.4-17,.3-.3.5-.5.6-.4.6,0,.7.4.4.9-4.8,8-10.7,14.6-17.8,19.6-5.7,4-10.7,7-15.3,8.8-3.7,1.5-7.8,2.9-12.5,4.3,0,0,0,0,0,.1,0,0,0,.2.1.3.2.2.4.3.7.3,1.9-.2,3.7-.2,5.5-.5,11.9-2,23.7-6.1,35.6-12,7.8-3.9,14.3-8.7,19.6-14.4,0,0,.2-.1.3-.2.1,0,.2,0,.3,0,.2,0,.3.2.2.5-3.6,6.7-7.8,12.6-12.6,17.6-6.4,6.8-14.3,11.1-22.4,15.4-1.8.9-1.6,1.5.3,1.6.5,0,1.1,0,1.6-.1,9.8-2.5,20.2-5.8,28.6-11.3,12.6-8.3,21.6-19.5,27.1-33.4,4.9-12.6,4.6-27.8,3.9-41.1,0-1.1-.3-1.1-.8-.1-.9,1.9-1.8,3.9-2.6,6.1-2.8,6.8-6.8,13-12,18.6,0,0,0,0-.1,0l-.3-.2c-.1,0-.1-.2,0-.3.7-1,1.2-1.8,1.4-2.4,1.7-4.9,3.5-10.2,5.5-15.9.7-2.1,1.1-4.3,1-6.7,0-1.2-.3-1.2-.8-.2-1.1,2.2-1.7,4.3-2.9,6.5-1.6,2.7-3,5.5-4.2,8.5-1.9,4.5-4.8,9.6-8.7,15.3,0,0-.1,0-.2,0h-.2c0-.2-.1-.3,0-.4,2.3-4.1,4.3-8.8,5.9-14.1,5.4-17.8,8.1-35,7.9-51.8,0-5.6-.5-11.3-1.4-17.1-1-7-2.4-12.7-3.9-17.3-3.5-9.9-9-21.1-16.5-33.6-9.4-15.7-21.8-28.6-35.7-42-12.1-11.7-26-20.3-41.7-25.6-23.9-8.1-51.5-5.6-73.1,7.1-10.7,6.2-18.3,11.3-22.9,15.1-10.2,8.6-18.8,19.9-25.8,33.8-1,2-1.9,4.2-2.7,6.6,0,0,0,.1,0,.2,0,.1.1.2.2.3.1,0,.3,0,.4,0,5.3-8.2,9-13.6,11-16,6.8-8.2,15-15.3,24.4-21.1.4-.2.6-.1.7.3,0,.5,0,1-.5,1.4-3.5,3.6-7.1,7.2-10.7,10.9-.4.4-.3.6.1.9l.4.2c0,0,.1,0,.2,0,5.4-4.4,11-8,16.8-10.7,31.5-14.6,65.5-16.4,97-1.7,7.5,3.5,15.1,7.3,21.6,13,3.6,3.2,7.2,6.4,10.8,9.6.1.1.3.1.4,0,0,0,0,0,0,0l.2-.2c.2-.2.2-.5,0-.7-4.3-4.4-8.4-8.7-12.4-12.9-6.1-6.4-12.7-11.7-20-16-4.9-2.9-9.8-4.6-15.1-6.7ZM460.2,466.4c.4,1.8.6,3.6.3,5.2-.1.8.5,1.5,1.3,1.6.2,0,.3,0,.5,0l5.4-1.2c1.2-.3,1.8.2,1.8,1.4v2.6c.2,1.1-.4,1.7-1.5,1.8-1.9,0-3.9.5-6.2,1.4-.4.1-.6.4-.8.7-1.6,3.1.7,8.6-1.6,11.5-1.8,2.2-3.9,4.1-4.7,6.8-.9,2.9-1.2,5.7-.9,8.3.4,3.5,2.6,7.5,3.9,11.2.5,1.5.3,3.1,1.1,4.6.3.4.5.5.8,0,6-7.8,10.1-16.7,12.3-26.5.9-3.9,1.4-8.6,1.5-14,0-5.4,0-10.3-.3-14.6-.7-10.5-3.2-20.6-7.5-30.2-4.5-10.1-11.9-18.9-19.8-27.4-2.5-2.7-4.9-5-7.2-6.9-6.1-4.9-10.2-8-12.3-9.4-9.7-6.2-19.2-10.5-28.6-12.7-10.4-2.5-22.4-3-35.8-1.6-28.4,2.9-56.5,21.5-71.5,45.2-3.4,5.4-5.5,9.2-6.9,14.7-.2.9.2,1.9,1.1,2.3,3,1.4,6.4,1.6,10.1.7,6.7-1.6,7.9-6,9-11.9,1.2-6.1,5.4-11.5,10.6-14.3,3.4-1.8,8.6-4,12.1-3,2.6.8,2.6,1.5,0,2-3.4.7-6.5,2.3-9.3,4.8-5.7,5.1-9.5,10-8.2,18.2.3,2.2,2.3,2.7,4.2,1.9,2.4-1,6.6-3,8.9-.8.6.6.7,1.2.3,1.9-.2.4-.6.6-1,.6-1.4,0-3.9,0-4.4,1.6-.1.5,0,1.1.4,1.5,1.8,1.9,3.4,4,4.9,6.5.6,1,.6,1.9,0,2.9l-.3.5c-.6,1-1.2,1-1.8,0-2.6-4.6-6.4-7.6-11.6-9.1-4.8-1.4-8.4,0-10.9,3.9-4,6.3-3.7,12.5-3.8,19.7,0,.7-.3,1.1-.8,1.3-.4,0-.8-.2-1-.6-1.6-5.6-2.1-10.9-.8-16.3.4-1.8.6-3.5.5-5,0-.4-.2-.7-.6-.7-3-.7-5.8,0-7.4-3.5-.8-2-1.7-2-2.6,0-4.9,10.8-7.2,22.1-6.7,33.9.1,2.8.1,5.7,0,9-.3,7.6.7,15,3.1,22.2,3.7,11.4,9.1,21.9,16.2,31.4,7.3,9.8,17.3,18.2,28.1,24.6,11,6.5,22.9,10.3,35.5,11.2,10.8.8,21.4.1,31.6-2.1,8.5-1.8,16.7-5.6,24.2-9.7.3-.2.5-.6.4-.9-1.8-5.8-1.7-10.7,2.3-15.5.3-.4.3-1-.1-1.3-.1-.1-.3-.2-.4-.2-6.3-1.1-13.7-3.2-19.1-6.8-1.4-.9-2.7-1.8-3.9-2.7-.4-.3-.5-.8-.2-1.2,0-.1.2-.2.3-.3,4.7-2.3,11.1-6.1,13-11.4.9-2.4.2-4.8.7-7.2,0-.2.3-.4.5-.3.1,0,.2,0,.3.2,1.8,2.8,2.8,5.8,1.7,9.2-1.2,3.6-3.4,6.6-6.5,8.9-.4.3-.5.9-.2,1.4,0,.1.2.2.3.3,1.3.7,2.7,1.4,4.2,1.7,5.8.9,12,1.8,16.9,4.9.8.5,1.3,1.5,1.1,2.5-.6,3.8-3,7.7-4.8,11.2-.4.9-.3,1.6.4,2.1.6.4,1.3.4,1.9,0,5.6-3.4,11.2-6.8,15.5-11.5.9-.9.8-2.4-.1-3.3-5.4-5.1-11.8-8.3-18.8-10.7-5.3-1.9-5.1-2.8.5-3,3,0,7.7.6,10.3-.4.4-.1.7-.4.9-.7,2.6-4.6,2.2-10,2.1-15.2,0-.5.4-.9.9-.9,0,0,0,0,0,0,3.3.2,10.4,1.2,12.2-2.4,1.3-2.6,2.1-5.8,2.6-9.6.3-2.7.9-5-1.5-6.8-1-.7-1.9-1.7-2.7-2.8-1.8-2.9-2.9-5.2-3.3-7.1-.7-3.7-.7-7.6,0-11.9,0-.4.4-.6.8-.6.1,0,.2,0,.3.2.3.3.5.7.6,1.1.4,6.3,2.7,11.4,7.1,15.4,3.2,3,5.3-2.4,5.9-4.6.9-3.6,1.8-6.7,3.4-9.7,1.3-2.6.7-5,1.4-7.7.2-.5.3-.5.4,0ZM554.4,472c2.5.4,5.1,1.6,5.7,4.3.9,4.1,1,9,4,12.2.3.3.6.5,1,.5,1.2,0,2.2-.3,3.2-1.2,5.1-4.5,6.2-10.6,6.6-17.2.2-2.7.6-2.8,1.1,0,.2,1.2.5,2.4.7,3.6,1.5,8.1-.6,14.8-6.4,20.1-.9.8-1.6,2-1.4,3.2.6,3.3,1.3,6.5,2.1,9.7.5,2,1.2,3.6,2.2,4.8.6.7,1.5,1.2,2.4,1.2l7.4.2c1,0,1.8.9,1.8,1.9,0,.2,0,.4,0,.5-1.5,4.3-1.4,14.5,5.4,14.6,2.4,0,8.4-.9,9.8,1.7.2.4,0,.9-.4,1.1,0,0,0,0-.1,0-4.5,1.5-8.8,3.5-12.7,5.8-2.7,1.6-4.5,4.1-6.1,6.7-.3.5-.2,1.1.2,1.5,4.3,4.6,9.2,8.2,14.7,11.1.6.3,1.4,0,1.8-.6.1-.3.2-.5.1-.8-.5-3-1.5-5.9-2.8-8.8-1.2-2.7-.5-4.7,2.2-5.7,3.7-1.5,7.9-2.8,12.6-3.9,1.9-.5,3.7-1.1,5.4-1.9.5-.2.8-.9.5-1.4,0-.2-.2-.4-.4-.5-5.9-3.4-8.8-11-5.5-17.5.8-1.5,1.3-1.4,1.6.2.5,2.7-.2,5.1,1.3,7.8,2.7,4.7,8.2,7.9,13.3,10,.4.2.5.6.4.9,0,.1-.1.2-.2.3-6.3,5.1-13.9,8.2-22.9,9.4-1.4.2-1.7.9-1.1,2.1,2.3,4.2,3.7,9.6,1.9,14.1-.3.8,0,1.6.7,2,5.8,3,12.1,5.7,18.7,8,12.7,4.5,26.9,5,40,3.7,7.7-.8,15.4-2.7,23.2-5.9,3.4-1.4,6.4-3.4,9.6-5.2,2.3-1.3,4.6-2.8,7-4.5,16.1-11.9,27.5-27.4,34.3-46.4,3.5-10,5.4-21.3,5.6-33.9,0-4.4-.3-8.9-1.2-13.4-1.4-7.5-2.3-15.7-6.2-22.3-.2-.4-.8-.6-1.2-.3,0,0-.1,0-.2.1-1.5,1.4-3.3,2.3-5.5,2.6-.4,0-.7,0-1.1-.1-.8-.3-1.6-.4-2.4-.3-.4,0-.6.4-.6.8,0,0,0,0,0,.1,2.5,7.4,3.6,15.2.3,22.2-.2.4-.5.6-1,.5-.3,0-.5-.2-.5-.5h0c0-7.4.2-15.4-4.8-21.2-2.4-2.8-5.2-3.9-8.2-3.2-5.3,1.2-11,5-13.9,9.8-.6.9-1,.9-1.3-.1-.3-.8-.4-1.6-.4-2.4,0-1.4.4-2.6,1.4-3.6l3.7-3.6c.5-.5.5-1.2,0-1.7-.1-.1-.3-.2-.5-.3-1.8-.6-5.9-1.2-5.9-3.7,0-.7.6-1.3,1.4-1.4,3,0,5.8.2,8.5.9.9.3,1.9.4,2.8.3.6,0,1-.5,1.1-1,1.4-9.3-6.5-18-14.2-21.9-1.2-.6-2.5-1-3.9-1.3-1.8-.3-1.8-.8-.2-1.5,3.1-1.3,6.3-1,9.8.8,6.9,3.6,13.6,10,14.9,17.6,1,5.9,1.6,8.3,7.9,10,1.4.4,2.7.4,3.9.1,2.2-.5,4.5-.7,6.6-.7.8,0,1.4-.6,1.4-1.3,0-.2,0-.3,0-.5-1.5-4.2-3.2-8.3-5.8-12.1-4.9-7.2-9.3-12.9-13.3-17-6.8-7-15.6-13.7-26.2-20-17.6-10.5-37.8-13.4-58.2-11.4-10.1,1-20.2,3.9-30.3,8.7-5.1,2.4-9.3,4.8-12.6,7.1-5.4,3.8-10.8,8.4-16.1,13.8-5.1,5.3-10.3,12.5-15.7,21.8-7,12.2-10.2,26.8-11.1,40.7-.2,3-.1,6.5.3,10.4.6,5.2,1,8.5,1.2,10.1,1.6,10.9,5.5,20.8,11.7,29.7.2.3.6.3.8.2.1,0,.2-.2.3-.4.8-3.7,2-6.8,3.7-9.3,2.4-3.8,1.2-10.3,0-14.4-.9-3-4-3.6-4.2-7.2-.2-3.5-.8-6.8-1.8-10.1,0-.3-.3-.5-.6-.7l-5.9-2.7c-.3-.2-.5-.4-.5-.8,0-1,0-2,0-2.9,0-.7.3-1.4.9-1.8.2-.1.4,0,.6.1,0,0,0,0,0,.2.2,1.3.9,2.2,2,2.7.3.2.7.1,1,0,.6-.4.8-.9.5-1.5-.2-.5,0-.7.4-.6ZM509.2,452.6l3,24.3c.1.9.4.9.7.1,1.4-2.7,1-5.7,1.6-8.6,3-16.8,4.8-33.4,5.4-50,.1-3.8,1.2-8.4.9-12.7,0-1.3-.3-1.3-.7,0-1.1,3.4-2.4,6.8-3.3,10.2-2.5,9.4-4.9,18.6-7.2,27.3-.6,2.2-1.1,2.2-1.6,0-1.8-7.5-4-15.5-6.3-24.2-1.3-4.6-1.8-9-3.6-13.5-.4-1-.6-.9-.8,0-.8,4.7.5,9.1.6,13.7.2,5.2.4,10.7.6,16.5,0,2.4.8,5.2.8,7.3,0,9.2.7,17.2,2.1,24.2,1,5.3,1.6,8.6,1.8,10.1,0,.5.4.9.9,1.3.4.3.6.2.7-.3.3-2,.2-4,.7-6,1-4,1.7-8.4,2-13,.2-2.4.7-4.6,1.5-6.7,0-.2.1-.2.2,0ZM482,512c-.6,1.1-1.3,2.2-2.1,3.2-.2.2-.2.4-.1.7,0,.2.2.3.4.3.3,0,.5,0,.8-.2,6.4-5.4,13.7-9.1,22-11.3,4.1-1,7.5-1.3,10.4-.9,8.3,1.2,15.9,4.5,22.8,9.9,1.7,1.3,2.1,1,1.2-.9-1.5-3.2-3.3-6.1-5.4-8.8-5.4-6.8-16.5-12.6-25.5-11.2-11.2,1.7-19.4,9.6-24.5,19.3ZM582.3,535.4c.2,0,.3-.3.3-.5-.6-1.9-1.3-3.9-2.1-5.7-1.6-3.6-2.2-6.2-2.6-9.7,0-.9-.8-1.6-1.7-1.6-1.9,0-3.8-.3-5.6-.7-1.1-.2-2-1-3.1-1.4-.4-.1-.6,0-.7.4-.9,3-1.3,6-1.4,9,0,1.2-.4,2.1-1.3,2.7-.7.5-.8,1.1-.4,1.9,2,3.3,6.3,9.1,10.3,10.8.4.2.8.1,1.1-.3,1.7-2.2,4.2-3.9,7.2-4.9ZM692.8,613.1c-2.6-1.2-5.2-2.4-7.7-3.5-4.2-2-12.8-4.5-25.7-7.5-4.9-1.2-10-2.3-15.4-3.3-9.5-1.9-18.9-5.3-28.5-9-7.2-2.8-13.6-6.7-19.2-11.7-2.7-2.4-5.6-4.7-8.5-6.7-2-1.4-2.4-1-1.2,1.1,1.7,2.9,2.8,6.3,3.2,10.1,0,.5,0,.9-.1,1-.4.4-.8.4-1.2,0l-7-7.1c-.3-.3-.7-.3-1,0-.1.1-.2.2-.2.4-.9,7.2-4.9,12.2-11.8,15.2-4.1,1.8-6.9,2.5-8.5,2.3-1.3-.2-2.6-.5-3.7-1-1.4-.6-1.4-1,.2-1.2,6.2-.7,10.8-3.5,13.7-8.4,5-8.5,3.7-16.1.3-24.7-3.8-9.5-13.8-16.7-23.4-19.2-3.2-.8-5.9-2-8.9-3.1-2.3-.9-4.4-1.9-6.3-3.2-3.4-2.3-6.9-4.2-10.5-5.6-2.6-1-2.5-1.4.3-1.1,2.9.3,5.9,1.4,8.8,3.3,3.3,2.1,6.3,4.2,9,6.3.5.4.8.3.7-.4-.1-1.1-.6-2.1-1.3-3-5.4-6.8-15.9-15.4-25.1-16.4-8.4-.9-15.8,1.1-22.1,6.2-4.9,3.9-8.9,7.4-11.9,10.4-2,2-1.2,4.5-4.5,5.6-3.5,1.2-7.4,2-10.5,3.7-10.6,5.6-16.9,14.4-18.8,26.3-1.4,8.6,1,20,11.1,22.2,2.1.4,4,.9,5.9,1.3,1.4.3,1.4.6,0,.8-3.5.4-7,.3-10.5-.3-7.7-1.3-14.6-9-14.8-17.1,0-.3-.3-.6-.6-.6-.1,0-.3,0-.4.2l-7.3,7.3c-.2.2-.6.2-.8,0,0,0-.1-.2-.2-.3-.6-4,2.4-8.6,4.2-12.1.5-.9.3-1-.5-.4-3.6,2.9-7.1,5.7-10.5,8.5-6.3,5.3-12.6,9-20.1,12-10.1,4.1-20.1,7.3-30.2,9.6-5.7,1.3-11.1,2.7-16,4.1-7.8,2.2-15.9,4.4-23.2,8.1-2.5,1.2-2.8.8-.9-1.2,2.6-2.8,6.7-4.8,9.8-6.8.7-.4.6-.7-.2-.6-1,0-1.9.1-2.9.4-6.4,1.7-12.4,4.3-17.9,7.7-9.6,5.9-15.2,18.4-8.4,28.5,2.6,3.9,7.8,6.6,12.4,8,1.5.5,1.8,0,.9-1.2-.4-.6-1-1.3-1.8-1.9-1.4-1.1-2.3-2.8-2.9-4.9-1.2-4.6,1.5-9.3,5.3-11.8,1.7-1.2,3.5-2.6,5.5-3.3,18-6.8,35.9-11.1,53.8-12.9,12.6-1.3,25.7-.3,39.3,2.9,15.5,3.7,30,11.3,43.4,23,3.2,2.8,6,5.5,8.5,8.3,11.1,12.2,20.8,25.8,29.1,40.8.8,1.4,1.7,2.5,3,3.4,2.5,1.9,5.6,0,6.9-2.4,10-18.3,21.8-34.1,37.7-48.9,16.3-15.1,35.5-24,57.7-26.7,9.5-1.2,19.2-1.2,29.2,0,12.1,1.4,23.8,3.7,35.1,6.9,6.4,1.8,14.2,3.7,19.6,7.1,9.1,5.9,6.4,14.2-.5,20.6-.7.7-.6,1.1.4,1.2.3,0,.6,0,1,0,6-1.8,13.6-5.3,14.9-11.5.7-3.1,1.5-6.1.9-9.2-1.2-6.5-4.7-11.6-10.4-15.4-5.7-3.8-11.9-6.6-18.6-8.6-.4-.1-.8.1-.9.5,0,.1,0,.3,0,.4.1.4.4.7.8.9,4,2.1,7.6,4.7,10.9,7.6,1,.9.9,1.1-.3.5ZM441.6,519.6c-.6-.5-1.3-.7-2.1-.6-.6,0-.9.4-.8,1,.6,3.3-1.8,8.2-3.2,11.3-.5,1.2-.1,2.6.9,3.3l7.3,5.3c.7.5,1.4.5,2-.1l7-6.9c.8-.8,1-1.9.6-2.9-1.4-3.2-2.4-7.1-3.2-11.5-.2-1-1.1-1.6-2-1.4-.2,0-.3,0-.5.2l-5,2.5c-.4.2-.7.2-1.1-.1ZM284.8,551c-2.3-3.4-4.6-6.9-7-10.4-2.2-3.3-2.7-3.1-1.3.7.7,1.9,2.4,4.5,5.1,7.8,2.4,2.9,4.2,5.8,7.2,8.1.2.1.3.1.5,0l.3-.4c.1-.1,0-.3,0-.5-1.8-1.7-3.4-3.4-4.7-5.4ZM733.3,552.1c3-4.2,5.5-8.4,7.5-12.8.4-.8.2-1-.5-.4-.8.6-1.4,1.3-1.9,2.1-1.9,3.2-3.9,6.3-5.9,9.6-1.4,2.3-3.6,4-4.4,6.6,0,.1,0,.2.2.3,0,0,.1,0,.2,0,1.9-1.6,3.5-3.3,5-5.3ZM341.7,757.7c0,.4,0,.9-.1,1.3-3.5,17.3-6.8,35-9.9,52.9-.3,1.5.1,1.7,1.1.5,1.8-2.1,2.2-4.9,3.5-7.3,2-3.8,4-7.7,6.1-11.8,1.9-3.6,4-9.8,6.3-18.6,2.4-9.3,4.8-18.5,7.1-27.7,2-7.9,4.5-15.3,7.2-22.8.7-2,.6-3.8-.4-5.5-5.9-9.6-15.4-18.3-26.3-22.4-10.1-3.9-20.2-6.6-31.2-6.3-3.9.1-7.9,0-12-.5-.2,0-.3-.2-.3-.4v-.3c0,0,0,0,0,0,6.3-.2,12.5-1.4,18.8-1.4,6.8,0,13.2.6,19.3,1.5,7.9,1.2,14.7,4.1,21.2,8.4,1.1.8,1.3.6.4-.4-1.6-1.9-3.4-3.6-5.4-4.9-6.4-4.4-13-7.8-19.7-10.1-10.5-3.5-21.3-5.9-32.2-7.2-6.9-.8-14.7-.9-23.5-.2-1.7.1-4.5.7-8.4,1.6,0,0-.2,0-.2-.1v-.3c-.2-.2,0-.4.1-.4,12.4-5.5,23.6-9.5,36.6-9.4,7.4,0,14.3.1,20.7.2,1.4,0,2.4.5,3.7.9.1,0,.2,0,.2-.1v-.5c0,0,0-.2-.1-.2-7.2-3.1-14.4-6.1-21.5-9-2-.8-4.1-1.5-6.3-1.9-.6-.1-.7-.4-.2-.8,1.7-1.4,4.9-1.3,6.9-1,4.6.6,9.2,1.6,13.9,3.2.2,0,.3,0,.4-.2l.2-.5c0,0,0-.1,0-.1-4.4-2-8.9-3.8-13.5-5.6-3.5-1.3-7.2-2.3-11.2-2.9-.9-.1-1.7-.6-2.2-1.3-.1-.2,0-.4,0-.5,0,0,.1,0,.2,0,2.9,0,5.6,0,8.1.2.9,0,1.7-.5,2.4-1,.4-.3.4-.6,0-.9-2.8-1.9-5.4-3.4-7.9-4.5-12-5.1-27.5-9.3-46.4-12.5-12.8-2.2-24.6-2.4-35.2-.8-5.6.9-11.1,3-16.5,4.9-.7.2-1.2.6-1.7,1.2-.4.4-.3.6.3.4,1.3-.5,2.9-.7,4.7-.6,3.4.1,6.5-1,10.1-1,5.6,0,12,.3,19.1,1.1,11.9,1.3,25.9,3,41.9,5.2,2.5.3,5,1,7.5,1.9,1.3.4,1.2.7-.1.6-8.1-.2-15.9,1.8-23.3,3.8-11.9,3.3-22.6,8.7-32,16.2-2.1,1.7-4.1,3.6-6.1,5.9-4.6,5.3-8.8,10.7-12,17.1,0,0,0,.2,0,.2,0,0,0,.2.2.2.2.1.4,0,.5,0,12.7-13.6,28.2-22.3,46.4-28,3.9-1.2,7.9-1.8,11.9-2.5,2.8-.5,6-.2,9.2-.7,2.3-.4,4.4-.3,6.7-.4.2,0,.3,0,.3.3h0c0,.2,0,.3-.2.3-8.4,1.3-16.6,4-24.4,8.1-6.2,3.2-12.6,6.2-18.3,10.2-21,14.5-35.2,33.8-42.6,58-7,23.1-2.9,47.8,8.8,68.6,1.3,2.3,1.7,2.2,1.1-.4-3.6-16.2-2.9-32.2,2.1-48.1,1.9-6.2,4.4-11.7,7.4-16.6,5.8-9.6,11.9-17.7,20.9-24.4,5.8-4.4,11.9-8.5,18.3-12.4.1,0,.2,0,.3,0l.2.3c0,.1,0,.3-.1.4,0,0,0,0,0,0-1,.5-1.9,1.2-2.7,1.8-9.6,8.4-16.9,18.3-22.1,29.6-1.5,3.4-3,6.8-4.5,10.1-.7,1.6-1,3.2-1,4.7,0,.6.2.7.5.1,1.5-2.4,3.1-5,4.7-8,5-9.1,11.6-17.4,19.1-24.6.8-.7,1.3-1.1,1.7-1.2,1.3-.3,1.5,0,.7,1.1-3.4,4.4-6.9,8.8-9,13.9-2.4,5.8-5.5,11.1-7.4,17-2.3,7.2-3.8,14.3-4.6,21.4-.5,4.7-.4,9.7.2,15,.2,1.3.4,1.3.6,0,.9-4.4,1.7-8.7,2.6-12.8,2.9-14.3,9.9-27.5,19.3-38.8,8.3-10,19.4-16.5,31.5-21.6,1.1-.4,2.1-.7,3.2-.7.6,0,.7.1.2.5-1.5,1-3.3,1.5-4.8,2.6-11.3,7.5-20.4,17.1-27.2,28.9-5.3,9.2-8.8,20.5-11.7,30.7-.3,1.2-.4,2.5-.2,4,.1.9.4.9.7.1,2-4.6,4-8.6,6-11.8,2.6-4.5,6.7-10.2,12.1-17.3,8.5-11.1,19-22,31.5-27.8,5.4-2.5,10.9-4.3,16.4-5.3.2,0,.3,0,.3.3,0,.1,0,.3-.2.3-5.5,2.5-9.8,5.2-13.2,8.1-6.3,5.5-12.5,11.6-18.7,18.3-1.2,1.3-1,1.5.5.6,4.8-2.7,9.4-5.4,13.7-8,5.6-3.5,13.2-7.4,22.7-11.8,5.3-2.5,10.8-4.4,16.5-5.7.3,0,.5,0,.5.3,0,.2,0,.3-.2.4-2.5,1.2-4.9,1.9-7.3,3.5-8.4,5.6-15.1,12.9-20.2,21.9-5.1,9-9.8,19.8-14.3,32.3-.3.9-.4,1.7-.2,2.6,0,.5.3.5.5,0,4.7-8,9.9-14.3,17.7-18.5.2-.1.5-.2.7,0,.2,0,.3.2.2.4,0,0,0,.1-.1.2-3,2.7-5.7,5.7-8,9.1-8,11.7-16.4,25.1-20.5,38.3-8.8,28.2-4.6,59.1,11.1,84.2.2.3.4.6.8.8.6.4.8.2.7-.4-1.5-8.4-2.5-16.3-3-23.6-.4-6.1-.5-14.9-.2-26.3.3-16.3,4.1-32.7,9.6-47.7,1.8-4.8,2.2-4.7,1.4.4-.5,3.2-1.2,6.3-1.4,9.5-.6,10.7-.4,20.7.4,29.9.7,7.7,3.2,16.1,7.4,25.2,0,.2.3.3.5.2h.3c0-.1,0-.1,0-.2-1.3-4.7-2-10-2.2-15.8-.9-20.5,2-39.2,8.6-56.1,1.3-3.2,2.6-6.5,4-9.7,4.5-10.5,11.2-20.5,18.4-29.5.4-.5.9-.9,1.5-1.2.7-.3.8-.1.4.5-2,3.2-4.2,6.3-5.8,9.9-2.9,6.8-5.4,13.5-7.4,20.2-3,10-4.5,21.1-5.8,31.8-.3,2.9,0,3,1.1.3,1.8-4.6,4.6-9,6.9-13.3,2.4-4.5,4.8-9,7.3-13.6,3-5.7,5.4-11.7,7.8-17.9.4-1.1.7-1.1.7.1ZM682.3,751.5c.2,0,.3,0,.3.1,5.2,13.3,11.9,27.6,19.7,40.1,3,4.7,5.3,9.2,7.1,13.6,0,0,.1.1.2.1.1,0,.2,0,.3-.1,0-.1.1-.3,0-.4-.9-2.7-.3-5.4-.9-8.3-1.6-8.2-3.2-15.5-4.8-21.9-2-8.1-5.4-16.7-10.1-25.8-1.1-2.1-2.9-4.6-4.1-7,0-.1,0-.3,0-.4,0,0,0,0,.1,0,.2,0,.4,0,.5.1,3.2,3.3,6.4,7.3,9.6,12.1,10.7,16.2,17.6,33.7,20.5,52.4.9,5.7,1.5,11.4,1.9,17.3.5,6.9-1,14.4-1.1,21.6,0,2.3-1.1,4.2-.6,6.6.2.7.4.8.7,0,7.7-18.2,9.9-36.4,6.6-54.5-.8-4.5-1.8-8.8-3-12.9-.4-1.3-.2-1.4.6-.3.8,1.2,1.5,2.7,2.1,4.2,4.7,12.5,8.7,25,9.5,38,.9,14.2.7,29-.7,44.4-.3,3.7-.3,7.2-1.1,11-.2,1-.2,1.9,0,2.9.2,1.1.6,1.2,1.2.2,5.6-9.7,10.6-20.5,12.8-31.4,2-9.7,2.1-20.2,1.8-30-.5-13.7-4.8-27-11.6-39-4.9-8.7-10.7-17.5-17.2-26.3-1.2-1.6-2.6-2.9-3.9-4.4,0,0-.1-.2,0-.3,0,0,0,0,0-.1.1-.1.2-.1.4,0,7.1,4.5,13,10.4,17.7,17.6.1.2.3.3.4.3.3,0,.5-.1.6-.4,0,0,0-.2,0-.3-2.6-7.1-5.4-14.1-8.5-20.9-3-6.8-7.8-14-14.2-21.7-6.4-7.6-13.1-13.8-22.7-17.3-.2,0-.2-.2-.2-.3h0c0-.2.1-.2.3-.2,4.5.8,8.8,2.1,12.9,4,11.7,5.4,23.2,11.4,34.6,17.9.2.1.4.3.6.5.3.4.5.6.5.6,1.3.6,1.5.3.5-.7-4.9-5.5-10.3-10.7-16.2-15.8-4.5-3.9-9.5-6.8-14.9-8.8-.5-.2-.5-.3,0-.4,1.9-.3,3.5.3,5.1.7,8.1,1.9,15.4,5.3,22,10.3,11.3,8.4,21.5,19.7,30.6,33.8.4.6.9,1.1,1.6,1.5.9.5,1.1.3.8-.7-3.9-10.9-9.8-21.2-17.8-31-5-6.1-9.9-11.4-16.6-15.6-4.2-2.6-3.9-3.1.7-1.4,16.4,5.9,30.3,19.7,39,34.6,4.8,8.1,7.7,18.3,9,27.7,0,.6.2.6.3,0,1.5-11.2-.1-21.4-4.7-31.9-4.3-9.9-8.4-18.1-15.2-26.4,0-.1,0-.2,0-.3h0c0-.1.2-.1.3,0,4,3.4,7.5,6.6,10.4,9.6,4.4,4.6,8.9,9.4,12.2,14.7,1.9,3,3.7,5.9,5.4,8.8,1.4,2.4,1.7,2.2.9-.4-3.3-10.6-8.6-18.9-14.8-28.2-4.6-6.9-9.9-12.4-15.9-16.7-.1,0-.2-.2,0-.4l.2-.3c0-.1.3-.1.4,0,22,11.7,37.3,29.4,45.9,53.2,1.5,4.2,2.7,8.7,3.4,13.5,1,5.9,1.5,11.1,1.6,15.5.1,5.6-.8,12-2.9,19.4-.5,1.8-.2,1.9,1,.5,1.2-1.4,2.2-2.8,3-4.3,5.5-9.9,8.8-20.8,9.9-32.9,1.5-17.7-2.2-34.4-11.2-50.3-11.9-21.1-28.5-36.1-50.4-47.4-9.8-5.1-18.9-9.1-30-10.9-.5,0-.6-.3-.1-.6.5-.3,1.1-.4,1.7-.4,3.7.4,7.5.8,11.4,1.3,18.3,2.2,35.6,9.6,50.1,20.7,2.6,2,5.5,4.4,8.5,7.1,1.6,1.4,2.7,3,4.6,4,.9.4,1.1.3.6-.6-9-16-21.9-27.7-38.9-35.1-11.7-5.2-24.1-8.1-36.9-8.8,0,0-.1,0-.1-.1v-.3s0,0,0,0c9.4-1.7,18.4-3.5,28-4.8,5.6-.7,11.3-1.5,17.1-2.2,5.9-.7,13.3-1.1,22-1.1,1.7,0,3.2.1,4.6.4,2.4.5,5,0,7.2,1.3.7.4.8.2.4-.4-.3-.6-.8-1-1.5-1.3-15-6.6-30.3-7-46.4-4.3-13.1,2.2-25.6,5.4-37.4,9.6-3.8,1.4-6.9,3.9-10.1,6.4-1.1.9-2,1.9-2.6,3.1-.1.2,0,.4.1.5,0,0,.1,0,.2,0,2.6,0,5,.3,7.4.9.8.2.8.4,0,.5-2.2.4-4.5.2-6.7.9-3.8,1.2-7.2,3.3-11,4.5-2.3.7-4.5,1.7-6.8,3,0,0,0,0,0,0v.3c.2.1.3.2.4.1,5.4-1.7,10.8-2.2,16.1-1.7,2.2.2,2.3.7.1,1.3-3.1,1-5.9,2.2-8.5,3.8-3,1.9-6.2,3.4-9.4,5.1-1.4.7-1.3,1.1.3,1.1,7.5.1,15.2-.6,22.5,0,10.7,1.1,21.7,4.2,31.9,9.1.2.1.3.4.2.6,0,.2-.3.3-.5.2-3.2-.7-6.4-1.3-9.7-1.6-9.2-.6-19.3.2-30.1,2.6-16.5,3.6-30.5,8-42.4,18.4-.2.2-.3.4-.4.7,0,.4.1.6.5.3,8.9-4.9,17.7-7.7,26.4-8.4,9.9-.8,19.7-.5,29.4,1.2.1,0,.2,0,.2.2h0c0,.2-.1.3-.3.3-16-.1-30.5,1.9-45.2,9.1-8.8,4.3-15.4,10.7-20,19.2-.2.3-.2.7-.2,1.1.3,2,.8,3.9,1.4,5.9,2.9,9.6,6.1,19.9,9.6,30.9,1.7,5.3,3.1,10.4,4.3,15.6,2,8.2,3.5,13.4,4.6,15.5,3.8,7.7,7.7,15.2,11.8,22.3.7,1.2.9,1.1.7-.2-1.7-9.1-3.5-17.8-5.4-26.2-2.3-10-3.6-20.8-6.4-31.2,0,0,0-.2.1-.2h0ZM376.2,690.7c0,1.3-.2,1.3-.8.2-4.7-10.6-10.2-21.2-16.4-31.8-4.1-6.9-8.9-13.3-14.7-19-2.6-2.6-5.4-4.8-9-3.5-.4.1-.6.5-.6.8,0,2.8.6,5.2,2,7.3,3.6,5.4,7.9,11.8,12.9,19.2,4.6,6.8,9.4,14.9,14.1,24.3,6.8,13.5,11.9,27.9,17.4,42.4,2.8,7.2,5.9,14.3,9.1,21.5,2.1,4.8,4.6,10,7.5,15.7,4.7,9.2,9.1,18.7,14.1,27.4,7.8,13.6,17,27.2,27.6,40.5,2.4,3.1,5.1,6.2,8.2,9.5,5.8,6.2,11.6,12.7,17.7,18.4,3.3,3.1,6.5,5.8,9.5,8.2,8.4,6.6,16.9,11.4,25.6,14.3,10.2,3.5,20.5,3.1,30.9-1.1,4.8-2,9.2-4.3,13-7.1,15.8-11.2,29.6-24.3,41.5-39.4,4.1-5.2,8.6-11.4,13.4-18.5,8.3-12.2,15.6-24.9,22.1-38.1,10.2-20.7,19.2-41.4,27.2-62.9,4.4-11.9,8.5-22.2,12.5-31.1,1.4-3.2,2.9-6.4,4.6-9.4,6.6-11.4,13.7-23.1,18.9-35.8.7-1.6.8-3.2.5-4.7-.2-1-1.2-1.7-2.2-1.5-.3,0-.6.2-.9.4-4.7,4.1-8.7,8.7-12.1,13.7-4.1,6.1-7.4,12-9.9,17.6-3.6,8.2-7.9,15.7-10.8,24.4-.1.3-.3.6-.6.9-.4.3-.6.2-.5-.3.2-.8.6-1.4.6-2.2.2-6.3.1-12.5-.4-18.5,0-1-.2-1-.3,0-.5,3.3-1.1,6.8-1.6,10.4-1.3,9.2-3.3,18.8-6,28.7-1.8,6.4-4.5,13.5-8.1,21.3-4.1,8.7-7.6,15.8-10.6,21.4-.4.8-.8,1.5-1.3,2.3,0,0,0,0-.1,0h-.3c-.2-.2-.2-.3-.1-.5,5.1-11.9,8.7-24.3,10.7-37.1,1.1-7.4,2.2-15.4,3.2-24,.4-3.6.4-7.7,0-12.2,0-1.1-.2-1.1-.5,0-1.6,6.9-3,14.1-5.1,20.8-1,3.3-2,6.4-2.9,9.5-2.3,7.7-5.6,15.1-8.6,22.7-4.6,11.4-10.2,22.4-15.2,33.6-3.1,6.8-6.5,13.7-10.3,20.7-4.6,8.5-8.9,15.7-12.8,21.4-6,8.9-14.3,17.4-24.7,25.6-10.3,8.1-21.4,12.8-33.5,14.3-13.6,1.7-27.6-4.4-39.1-12.3-3.3-2.3-6.1-4.4-8.4-6.5-14.7-13.2-27.1-28.1-37.3-44.7-10.7-17.4-20.7-37.7-30.2-60.8-5.1-12.5-9.7-26.1-13.7-40.9-.1-.4-.3-.4-.5,0-.3.6-.4,1.2-.4,1.8,1.3,13,3.2,25.5,5.7,37.3,2.6,12.4,6.9,23.9,12.9,34.8.3.5.4,1,.4,1.6,0,.6-.2.6-.4,0-.9-2.1-2.5-3.8-3.8-5.8-8.3-13-15-27.3-20.3-42.9-2.4-7.1-4.1-14-5-20.8-1.2-8.2-1.9-15.5-2.2-21.9,0-.4-.2-.6-.6-.8-.4-.1-.6,0-.8.4-.4,1.3-.7,2.3-.7,3.2,0,6.2,0,12.1.1,17.8ZM185.7,646.4c3.4-.4,6.8-.9,10.3-1.7,4.8-1,10.2-1.6,16.2-1.7,4.4-.1,8.8.4,13.1-.1,1.6-.2,1.6-.5,0-1-1.3-.4-2.5-.7-3.7-.9-12.8-2.4-24.9-.9-36.3,4.5-1.8.9-1.7,1.2.3,1ZM823.6,646.2c-12.4-6.5-25.2-7.9-38.4-4.1-.3,0-.4.2-.4.5,0,.2,0,.4.3.4,4.3.2,8.7.2,12.9,0,7-.4,17.2,2,25.1,4.2,3.2.9,3.4.6.4-1ZM488.4,762.5c-3.9-.5-8-1.8-11.9-1-11.6,2.4-19.9,9.2-24.9,20.4,0,.1,0,.3.2.4,0,0,.2,0,.3,0,3.3-3.2,6.8-5.9,10.6-8.2,4.3-2.6,8.5-3.6,12.7-3,3.7.5,3.7,1.2.1,2.2-6.3,1.6-11.3,4.9-14.9,9.9-2.8,3.8-3.2,7.5-1.5,11.6.1.2.4.3.6.2,0,0,.2-.1.2-.2.6-1,1.2-2.1,1.7-3.2,1.7-3.9,6-4.8,9.2-1.8,1.6,1.5,3,3.2,4,5.1,4.7,8.3,9.4,16.1,13.8,23.5,2.9,4.8,6.5,9,10.6,12.6,10.7,9.2,22.5,9,34.9,4.1,15-5.9,26.8-15.3,35.2-28.1,7.8-11.9,12.4-24.5,14-38,.9-7.9.7-17.2-4.7-23.4-4.6-5.3-9.5-8.2-14.8-8.8-9.5-1-18.8.4-26.6,6.3-5.3,4-11,9.7-13.3,15.7-.5,1.2-.9,2.4-1.3,3.6-.1.3,0,.6.1.9,0,0,.1.2.1.3.2.7.5.8.9.2,5.5-7.2,15.8-16.2,25.5-15.6,1.6,0,1.6.4.1,1-6,2.2-12.2,6.1-15.4,11.7-1,1.8-2.1,3.6-3.3,5.4-.6.9-.5,1.6.3,2.1.3.2.7.2,1,0,3.9-3.4,8.7-5.9,14.4-7.5.4-.1.6,0,.6.5,0,.3-.2.5-.4.7-7.7,4.8-14.1,9.8-15.3,19.2-.4,2.7.3,3,2,.8,2.9-3.8,5.2-7.9,10.3-8.7,1.3-.2,1.5.1.6,1.2-1,1.1-2.2,1.7-3.2,3-3.3,4.4-5.7,8.7-7.2,13-2.7,7.7-5.8,15-9.3,21.8-1,2-1.3,1.9-1-.3,2.5-15.1-.3-28.3-8.4-39.5-10.3-14.3-25.8-21.4-43.4-19.5-5.5.6-10.2,2.3-14.1,5-5.5,3.8-12.2,11.3-13.1,18.5-.2,1.9.2,2,1.3.5,3.6-5,8.1-9.5,13.6-13.3,7.8-5.4,20.9-5,29-1.8,2.2.8,2.1,1.1-.2.8ZM340.6,851.8c-.4-5.2-.3-10.2.4-15.4.6-4.8.8-9.7,1.7-14.5.5-2.4.4-5,0-7.8-.1-.6-.3-.7-.5,0-2.1,6.1-3.8,11.6-5.1,16.5-7.4,27.8-6.7,55.3,2.2,82.3,2.7,8.3,6.4,16,11,23.1.7,1.1,1,1,.8-.3-.6-4.4-1.2-9.2-1.9-14.4-.7-5.2-.8-11.9-.5-20,.7-16.9,2.7-33.7,6.1-50.1,0-.4.1-.4.2,0,1.4,9.6,3,19.9,6.9,28.7,1.7,3.7,3.5,7.5,5.7,11.4,1.9,3.5,4.4,7,7.5,10.5.2.2.3.3.5.3.2,0,.4,0,.5-.3,0,0,0-.2,0-.3-1.1-2.4-2.1-4.9-2.9-7.6-7.2-23.5-8.1-48.5-4.5-72.6,2.6-17.7,6.7-35.1,12.2-52,0-.1,0-.2-.1-.2h-.3c-.3,0-.5,0-.6.3-2.5,5.1-4.9,9.9-7.3,14.6-2.4,4.8-4.5,9.5-6.1,14.2-2.5,6.8-4.5,13.7-6.2,20.5-.6,2.4-1,2.4-1.3,0,0-.1,0-.8.1-2.1.3-3.7.8-7.3,1.4-10.9,1.8-9.8,3.7-20,5.5-30.7,1.8-10.2,4.1-20.1,6.4-30.1.2-.9.2-1.8,0-2.8,0-.5-.3-.5-.5,0-.7,1.2-1.3,2.3-1.7,3.5-3.5,9.3-7.4,18.6-10.3,28.1-8.4,27.7-14.6,51.7-18.1,78.4-.5,3.8-.9,3.7-1.2,0ZM685,852.9c-.5-2-.8-4-1-6-.2-2.2-.5-4.3-.9-6.3-1.8-9.2-4.1-19.8-6.9-31.6-4.8-20.9-11.5-40.9-19.9-60.3-1.6-3.7-2-3.5-1.4.4,1.9,10.9,4.1,22.6,6.6,35.3,1.3,6.3,2.4,12.7,3.3,19.2.9,6.3,1.9,12.8,3,19.6,0,.2,0,.4-.3.4h-.3c0,0,0,0,0,0-2.4-8.4-5.2-17.3-8.7-26.7-3.3-9.1-7.1-17.8-11.7-26-.2-.4-.5-.6-.9-.7-.6-.1-.8,0-.6.6,1.8,5.9,4,12,5.4,17.9,2,9.1,4,18.5,5.9,28.1,1.4,6.9,2.7,14.2,3.2,21.1.5,7.1,0,16.2-1.3,27.1-1.4,11.1-3.2,21.8-5.6,32-.6,2.8-.1,3,1.6.7,9.6-13.1,15-28.9,16.1-47.3.2-2.7.5-2.7,1,0,4.7,24.2,7.7,47.9,8.9,71,.2,3.5,0,6.9-.4,10.1-.5,3.7,0,3.9,1.7.5,8.7-17.2,12.2-35.8,12.5-55,.2-15.7-.8-32.2-5.2-46.9-1.5-5.1-4-12.4-7.5-22-.1-.3-.3-.4-.6-.3h-.3c0,.1,0,.1,0,.2.9,3.9,1.7,7.7,2.5,11.5.6,2.5.8,5.1.8,7.7,0,3.2.2,5.7.5,7.8,1,5.9,1.2,11.8.7,17.8,0,.6-.2.6-.3,0ZM638.6,777h-.3c0,.2,0,.2,0,.2,1,3,1.8,5.9,2.5,8.8,3.3,14.6,5.8,29.3,7.5,44.2,1,9,1.2,18.3.6,27.8-.3,4.7-1.6,9-2,13.7-.1,1.3.1,1.3.7.2.7-1.3,1.5-2.6,2-4,4.4-11.2,6.3-22.7,5.7-34.5-.3-5.4-1.4-12-3.3-20-3.1-12.7-6.5-24.9-12.7-36.2-.1-.3-.4-.3-.6-.2ZM385.4,777.9c-2.5,7.6-5.2,15.2-7.9,22.9-1.2,3.3-2,6.7-3,10.1-.8,2.6-1.4,5.2-1.7,7.6-1.5,9.7-1.7,20-.6,31,.8,8,3.4,16.6,6.5,24.3,0,.2.3.3.5.2.3,0,.4-.3.4-.5-.8-6-2.1-11.7-2.4-17.8-.6-11.6,0-22.4,1.5-32.7,1.6-10.3,3.2-20.5,4.8-30.5.7-4.3,1.6-8.5,2.5-12.6.2-.7.1-1.4-.1-2.1-.2-.5-.3-.5-.5,0ZM632.9,802.1c-.1,0-.2.1-.1.2,1,4.7,1.7,7.9,1.9,9.5,1.6,13.4,2.4,25.8,2.6,37.4,0,4.3.2,8.3.5,12.1,0,1.5.4,1.5.8,0,.2-.6.7-1.2.8-1.9,1-6.1,2.5-12.3,2.4-18.4-.2-6.3-.9-12.6-2.3-18.8-.6-2.6-1.1-5.2-1.7-7.8-.9-4.2-2.3-8.4-4-12.4,0-.1-.2-.2-.4-.2h-.3ZM401.4,803.3c-.7,5.2-2.2,10.1-2.4,15.2-.1,3,0,6.1.1,9.2,0,0,0,.1.1.1h.3s0,0,0,0c.5-5.6,1.3-11.7,2.3-18.3.3-1.7.3-3.8,0-6.3-.2-1.6-.4-1.6-.6,0ZM392.4,802.8c-4.2,10.8-6.8,21.9-7.8,33.3-.9,11,.3,21.4,3.6,31.2,1,2.9,1.4,2.8,1.1-.2-.1-1.6-.8-3.1-.9-4.8-.1-5.1,0-10.1.6-15.1.6-5.7,0-11.5.7-17.3.5-4.4.9-8.8,1.3-13,.3-2.8,1.2-7.9,1.1-11.8,0-.4,0-.7.3-1.1.2-.3.3-.7.3-1.1,0-.5-.2-.5-.4,0ZM626.8,828s0,0,0,0c0-5,0-9.9,0-14.9,0-2.8-.5-5.6-1.5-8.3-.8-2.2-1.1-2.1-.9.2l1.7,22.9c0,.1,0,.2.2.2h.4ZM431.1,917.6c-.7-1.1-1.3-2.3-1.9-3.6-1.3-3.3-2.6-6.4-3.8-9.5-4.7-12.2-7.1-24.5-7.1-37.1,0-6.3,0-12.8.1-19.7,0-2.1.2-4.1.5-5.9.5-3.5.4-6.9,1.1-10.4.3-1.6.4-3.2.3-4.9,0-.6-.2-.7-.4,0-1.1,2.4-2.1,4.9-3,7.4-2.5,7.1-4.9,14.8-7.2,23-4,14.3-5.5,32.1-6.1,47.4-.6,16.2,3.2,31.2,11.4,45,6.8,11.4,18.4,21,31.8,24.4,9.6,2.4,18.1,2.4,25.7-.1,7.1-2.4,13.1-5.9,17.9-10.7,8.2-8.2,11.4-18.2,11.1-29.9-.2-7-1.1-13-2.6-18.1-1.7-5.8-3.8-11.3-6.3-16.7-.5-1-1.1-1.8-2-2.5-.4-.3-1-.2-1.3.2-.1.2-.2.4-.2.6.2,2.8,1,5.1,1.1,7.9,0,2.9.3,5.8.6,8.7.3,2.6.3,5.4,0,8.1-1.3,10.5-2.3,19-11.8,25.1-5.6,3.5-11.7,4.2-18.4,2-3.8-1.2-7.7-4.5-10.3-7.5-1.5-1.7-1.3-1.9.6-.7,8.4,5.5,16.5,5.9,24.4,1.1,8.5-5.1,10.3-14.8,9.5-23.9-.6-7-1.6-13.5-3-19.6-.6-2.5-1.5-5.5-3.2-7.5-2.6-3-5.4-5.7-8.3-8.2-.3-.3-.8-.2-1.1,0,0,0-.1.2-.1.3-.8,2.8,1.5,8.3,2.4,11.2,1.6,5.2,1.1,5.4-1.5.6-2.5-4.7-4.9-9.8-7.2-15.2-2.1-5.1-6.5-9.6-11.1-13.1-3.9-3-6.8-6.5-9.3-10.6-.4-.7-.7-.7-.8.2-1,15.6.4,30.5,4.3,44.7,0,.4,0,.5-.4.3-.2,0-.3-.2-.4-.3-3.6-7-6.5-14.3-8.7-21.8-1.7-5.9-3.3-14.1-4.7-24.7-.6-4.3-.8-8.9-.8-13.7,0-.5-.3-1-.8-1.3h-.3c-.2-.2-.5-.1-.6,0,0,0,0,0,0,.1-1.7,13-2.6,21.6-2.8,25.8-.5,13.3.3,26.5,2.2,39.6.7,4.6,1.9,9,3.3,13.4.5,1.7.3,1.8-.7.3ZM589.8,899.5c-.2-1-.3-2.1-.1-3.2.9-7.4,1.2-16,1-25.9-.1-5.9-1.2-11.4-1.2-17.3,0-.9-.3-1-.9-.3-5.1,6.2-10.1,12.5-13.8,19.6-1.5,2.7-3.1,5.5-5,8.3,0,.1-.2.1-.3,0l-.3-.2c-.3-.2-.3-.6-.2-.8,1.3-2.2,2.2-4.9,2.6-7.9,0-.2,0-.4-.2-.6-.6-.6-1.2-.5-1.7.2-.9,1.3-1.8,2.5-2.6,3.6-1.8,2.4-4.7,2.6-5.8,5.6-5,13.5-7.7,27.1-8.2,40.9-.2,7.2.4,13.1,2,17.7,3.5,10.5,12.4,18.8,23.8,20.8,4,.7,7.8.4,11.4-.8,7.2-2.4,13.9-7.2,18.4-13.6,2.1-2.9,3.4-5,3.8-6.2,1.2-3.2,2.5-6.2,3.8-9.1.6-1.4.8-1.3.6.2-.4,2.9-.9,5.9-1.3,9.1-1,7.9-4.6,14.6-10.8,20-4.5,4-9,6.6-13.5,7.8-18.3,5.1-32.4-4.7-38.5-21.4-4.8-13.2-6-27.5-5.3-41.7,0-1.2.2-2.3.5-3.4.6-2.2.5-4.7,0-6.9-.2-1-.5-1-.8,0-3,8.9-4.6,18.3-4.8,28.3-.1,6.8.3,12.5,1.2,17.1,2.6,13.2,10.5,24.8,22.3,31.5,4.9,2.8,12.3,4.8,17.3,4.1,3.5-.4,6.8-.5,10.2-1.5,12.2-3.4,22.6-14.1,27-25.5,3.7-9.6,5.7-21.1,6-32.2,0,0,0,0,0,0h.3c.1,0,.2,0,.2.2.2,2.9.5,5.7.9,8.6,1.3,8.2.3,16.4-1.8,24.6-2.8,10.9-9.6,20-18.6,26.4-16,11.4-38.1,10.7-53.2-1.9-9.8-8.1-16.1-18.7-18.9-31.8-2.5-11.4-1.8-22-2-32.8,0-1.5-.3-1.6-.7,0-2.5,8.6-4.4,18.4-3.7,27.1,1.1,14.5,5.9,26.8,14.2,37,4.1,5,8.5,8.8,13.3,11.6,11.8,6.8,24.8,9.3,38,6.1,7.4-1.8,14-4.9,19.9-9.4,7.2-5.5,12.6-11.8,16.2-18.9,5.8-11.5,8.3-23.9,7.6-37.3-.3-5.3-.6-9-.9-11-3.4-21.7-9.5-42.5-18.5-62.5-3.6-8-6.9-16-11.2-23.6-1.1-1.9-1.4-1.8-1,.4,2.2,10.1,3.9,20.6,5.3,31.5,1.6,13,2,26.9,1.2,41.7,0,1.6-.5,4.9-1.1,9.7,0,.2-.1.2-.2.1,0,0-.2-.1-.2-.2,0-.1-.2-.3-.2-.5-1.1-15.6-3.3-31-6.8-46.3-1.8-8-3.6-16-5.3-24.2-.6-2.8-1.2-2.8-1.8,0-.2,1-.3,2.1-.3,3.2.1,9.7.5,19.1-1,28.6-1.4,9.2-3.3,18.2-5.7,27.1-.3,1.1-.6,1.1-.8,0Z"/>
  <path class="cls-1" d="M721.5,63.7c2,3,1.9,6-.4,9.1-3,4.1-6.6,4.8-10.8,2.2-3.3-2-4.8-4.9-4.5-8.6.4-5.6,5.3-7.3,10.2-6.6,2.2.3,4.1,1.6,5.6,3.8Z"/>
  <path class="cls-1" d="M812.7,156.7c-3.6,2.6-6.5,5.5-8.7,8.8,0,.1-.2.2-.3.3,0,0-.2.1-.3.1-.4.1-.6,0-.5-.5,3.5-10.5,6.3-23,11.3-34.5,3.4-7.8,8.8-18,16.7-21,4.5-1.7,8.9-1.7,13.2,0,11.3,4.5,14,20.4,3.9,28-2,1.6-3.9,3-6.3,3.8-10.6,3.7-19.3,7.8-29.1,14.8Z"/>
  <path class="cls-1" d="M276.4,113.3c-2.4,1.2-5.1,1.4-7.5,2.5-5.8,2.7-11.4,6.1-16.9,10.3-4.6,3.6-10.9,2.5-11.9-3.8-.9-5.6,1.5-9.3,7.4-11,8.8-2.6,20.3-1.1,28.9,1.6.4.1.4.3,0,.4Z"/>
  <path class="cls-1" d="M673.8,139.7c2.9,17.9,1.5,35.4-4.3,52.6-1.2,3.6-2.6,7.5-4.2,11.5,0,0-.1.1-.2.2,0,0,0,0-.1,0,0,0-.1,0,0-.1,3.6-21.3,6.4-42.6,8.6-64.1,0-.9.2-.9.3,0Z"/>
  <path class="cls-1" d="M393.6,203.3c-6.1-2.8-10.2-4.7-12.1-5.5-.7-.3-1.5-.9-2.3-1.8-.7-.8-1-1.6-.7-2.5.4-1.4,1.3-2.4,2.5-3,1.9-.9,4.2-.9,6.7-.2,4.5,1.3,8.7,3,12.8,5,8.1,4.1,16.5,9.9,25.3,17.4,2.2,1.8,2.5,4.2,1.1,7,0,0,0,.1-.1.2-2.3,2.2-4.4,2.4-6.5.6-7.8-6.9-16.6-12.6-26.5-17.2Z"/>
  <path class="cls-1" d="M800.1,247c6.2-13.6,14.1-26.4,23.8-38.4,4.3-5.3,11.6-10.9,18.6-10.5,6.9.4,12.4,4.9,14.5,11.7,1.1,3.3.9,6.5-.6,9.4-2.6,5.2-6.8,8.5-12.5,10-15.1,3.8-31.2,9.5-43.3,19.1-.8.6-1.1.4-.9-.5,0,0,.1-.3.3-.7Z"/>
  <path class="cls-1" d="M539.6,333.9c-1.6,2.4-3,4.4-4.1,5.8,0,0-.2.1-.3.1s-.2,0-.3-.1c0,0,0-.2,0-.2,3.9-8.4,7.2-17,9.7-25.7,3.7-12.5,7.6-24.9,10-37.7,1.5-8.3,2.6-16.1,3.1-23.4.3-4.1.6-8.1.9-11.9.3-3.7,0-7.5-.7-11.5-.2-.9,0-1.8.3-2.8.2-.5.3-.5.4,0,.3,1.7.6,3.3,1,4.7,1.5,5.2,2.4,12.2,2.5,21.1.1,8-.7,17.3-2.6,27.8-1.4,7.9-3.1,15.2-5,21.8-3.1,10.7-8.1,21.4-15,31.9Z"/>
  <path class="cls-1" d="M530.2,329.1c-1,1.9-1.1,1.8-.5-.2,8.1-25.2,14-50.8,17.6-76.8.8-5.8,1.1-11.5,1.5-17.3,0-.2,0-.2.3-.2h0c0,0,.1,0,.1.1.4,4.4.9,8.7,1.4,12.9.4,3.9.3,9-.4,15.3-.9,8.3-1.6,16.6-3.7,24.6-2.1,7.7-4.6,15.7-7.6,23.9-2.3,6.2-5.7,11.9-8.7,17.6Z"/>
  <path class="cls-1" d="M798,310.9c-2.3,1.5-4.8,3-7.4,4.5,0,0-.1,0-.2,0l-.2-.2c0,0,0-.1,0-.2,6.8-5.6,12.7-9.9,17.4-12.9,9.5-6.1,20.2-10.2,32.2-12.4,1.4-.2,2.7-.4,4.1-.3,2.7,0,2.7.4.1,1-1.5.4-3,.8-4.5,1.3-8.1,2.9-16.8,6.4-26.1,10.6-5.5,2.5-10.7,5.4-15.6,8.6Z"/>
  <path class="cls-1" d="M842.8,304c-11.1,5-20.7,10.1-28.5,15.3-.2.2-.6,0-.7-.1,0,0,0,0,0,0l-.2-.3c0,0,0-.1,0-.2,4-3.3,7.9-6.4,11.8-9.2,11.8-8.7,24.4-13.8,37.7-15.6,1.2-.2,2.3,0,3.5.3.5.2.5.3,0,.5-6.6,2.2-14.4,5.3-23.6,9.4Z"/>
  <path class="cls-1" d="M399.8,357.1s0,0,0,0v-.2c.2-.5,2.6,0,5.4,1,0,0,0,0,0,0h.4c2.8,1.1,4.9,2.3,4.7,2.8,0,0,0,0,0,0v.2c0,0,0,0-.1,0l-10.3-3.7Z"/>
  <ellipse class="cls-1" cx="611.4" cy="358.7" rx="2.5" ry=".3" transform="translate(-80.9 206.5) rotate(-18)"/>
  <path class="cls-1" d="M883.9,374.9c-1.1-.4-1.9-.8-2.4-1.1-1-.5-1-1,.1-1.3,10.8-3,22-4.5,33-2.1,3.1.7,6.3,2,9.7,4.1,6.7,4,10.4,14.2,8.6,20.9-1,3.8-4.7,8.2-8.6,9.8-5.1,2-9.4.6-12.9-4.2-5.1-6.9-8.7-14.9-16-19.9-3.6-2.5-7.5-4.5-11.5-6.1Z"/>
  <path class="cls-1" d="M131.5,375.3c-10.4,5-17.7,12.9-21.8,23.7-2.2,5.9-2.8,11.6-8.1,15.9-3.1,2.4-6.7,2.7-10.8.7-4.6-2.2-7.2-6-7.8-11.4-.8-7.4,4.4-14.9,10.4-18.9,11-7.4,25.1-10.2,38-10.8,1.3,0,1.4.2.2.8Z"/>
  <path class="cls-1" d="M399.7,396.8l-2.8-2.7c-1.8-1.8-1.5-2.4,1-2,4.2.8,8.2,3.9,11,7.2.5.5,1.2.7,1.8.5l8.4-2.9c.4-.1.7-.1,1.1,0,3.4,1,6.4,2.2,9,3.8,1.1.6,1,.9-.2.7-3.9-.5-7.9-.2-12,1.1-.9.3-1.3,1.2-1.1,2,0,.2.1.3.2.4,2.9,4.3,7.2,9.1,5.3,14.9-.9,2.8-1.9,2.8-2.8,0-3.2-9.4-9.7-15.4-19.9-15.4-1.5,0-3.3.6-5.1.4-.3,0-.4-.3-.4-.5,0,0,0-.2.1-.2,1.7-2,3.7-3.6,5.9-4.7.8-.4,1.1-1.3.7-2.1,0-.2-.2-.3-.3-.4Z"/>
  <path class="cls-1" d="M601.7,404c-1.3-.5-2.7-1-4.2-1.7-3.5-1.5-7.5-1.1-11.1-1-.8,0-.8-.2-.2-.6,1.6-1,3.4-2,5.5-2.9,2.6-1.2,4.5-1.4,7.5-.4,2.9,1,5.6,1.9,8.1,2.8,1.2.4,2.5-.2,2.9-1.4h0c1.5-4.2,4.5-6.5,9-6.8.6,0,1.1.4,1.2,1,0,0,0,0,0,0,0,.4-.2.8-.5,1.2-1.1,1.1-2.1,2.3-2.9,3.4-.5.7-.4,1.6.3,2.1.1,0,.2.1.3.2l5.3,2.1c.1,0,.2.1.3.2.7.7.8,1.4.3,1.9-.2.3-.5.4-.9.4-4.5,0-9.6-.4-13.8,1.3-5.4,2.2-9,6.3-10.7,12.2-.3.9-.7,1.7-1.3,2.4-.3.3-.8.4-1.1.1-.2-.1-.3-.3-.3-.6-.6-7,1.5-12.1,6.4-15.2.6-.4.6-.7-.1-1Z"/>
  <path class="cls-1" d="M830.7,395.1c-1-.4-1-.6.1-.7,2.1,0,4.1.7,6.2.7,8.7.2,17.2,1.4,25.5,3.7,6,1.7,11.4,4.6,16.1,8.9,5.7,5.2,8.1,11.8,1.2,17.6-5.2,4.4-10.4,1.6-14.3-2.6-7.9-8.6-13.8-14.5-17.7-17.6-5.3-4.1-11-7.5-17.2-10Z"/>
  <ellipse class="cls-1" cx="209.1" cy="413.3" rx="9.9" ry="8" transform="translate(-218.9 236.3) rotate(-40.7)"/>
  <path class="cls-1" d="M453.1,455.1c-.7-5.4-2.3-10.6-4.7-15.6-2.5-5.3-8.3-12-14.6-12.2-.5,0-.8-.4-.8-.9,0,0,0,0,0-.1.1-.7.6-1.3,1.4-1.6,4.1-1.9,8.3-1.4,11.3,2.1,4.5,5.1,7.4,9.8,8.7,14.1,1.5,4.7,1.5,10,0,15.9,0,.3-.3.6-.5.7-.3.2-.6,0-.8-.2,0,0,0,0,0-.1,0-.3,0-.6,0-1,0-.4.1-.7,0-1.1Z"/>
  <path class="cls-1" d="M567.9,430.9c1.5-2.4,4.1-4.4,7.5-6.1,2.5-1.2,6.7-1.5,8.4,1.1.2.3.1.8-.2,1,0,0-.1,0-.2,0-6,1.6-10.6,5-13.8,10.2-3.6,5.9-5.5,12.6-5.6,19.9,0,.5-.2,1-.7,1.4-.2.2-.6.2-.8,0,0,0-.1-.2-.1-.3-1.6-10.1,0-19,5.4-27.3Z"/>
  <path class="cls-1" d="M158,455.5c1.3.5,2.7.7,4.2.6,7.6-.6,16,2.1,23.5,5.5,3.2,1.4,7.3,3.8,8.8,7,.2.4.2.7,0,1.1-1,2.2-3.6,5.4-6.4,4.2-22.7-9.8-47.8-8.8-66,8.4-2.8,2.6-4.9,5.8-7.5,8.7-3.4,3.7-7.9,1.5-9.9-2.2-.2-.4-.3-.8-.2-1.2.5-2.1,1-4.2,2.1-6.1,4.3-7.3,9.7-14.5,16.1-21.5,9.2-10.1,20-17.4,32.4-22,11.2-4.1,24.7-4.5,36.4-3.2,5.9.6,11.8,1.6,15.5,5,2,1.8.7,5.7-.3,7.7-.8,1.6-2.7,1.8-4.2,1.7-4.6-.3-8.9-.6-13-.8-9.6-.4-19.1,1-28.4,4.4-1.3.5-2.4,1.1-3.5,1.9-.4.4-.4.6.1.8Z"/>
  <path class="cls-1" d="M847.1,458.3c1.7-.4,1.7-.8,0-1.2-6.7-1.5-13.5-2.6-20.4-3.1-2.4-.2-7.7.3-16,1.4-4.9.7-6-7.5-2.6-9.4,3.7-2.1,7.5-3.4,11.5-4.1,16.3-2.5,31.7-.3,46.1,6.8,14.2,6.9,25.1,17.4,32.8,31.6,1.6,2.9,3.6,6.6,2.2,9.8-1.6,3.7-6.5,5.1-9.1,1.5-7.4-10-19.2-18.6-31.3-20.5-11.2-1.8-22.3-.6-33.2,3.6-3.7,1.4-6.1.4-7.1-3.3-1.5-5.2,11.9-9.7,15.7-10.6,3.8-.9,7.6-1.7,11.3-2.7Z"/>
  <path class="cls-1" d="M414.3,485.5c-4.3,6.6-9.8,10.9-17.1,12.9-12.7,3.6-22.9,0-30.8-10.5-8-10.7-7.3-24.1.7-34.7,10.4-13.8,35-13.2,44.9,1.3,6.5,9.6,8.8,20.8,2.2,31ZM387.8,456.7c-1.1-2.3-2.6-3.9-4.4-4.7-5.3-2.2-12,1-10.8,7.5.4,2.5,1.4,5,4,6.1.4.2.6.7.4,1.1,0,0-.1.2-.2.3-3.6,3.7-1.8,8.9.8,12.8,2.5,3.7,5.7,5.8,9.5,6.1,12.2,1.1,21.7-10.1,15.5-21.7-2.8-5.1-7.9-10.3-14-7.1-.4.2-.7.1-.9-.3Z"/>
  <path class="cls-1" d="M656.3,472c-.4,15.6-13.4,27.9-29.2,27.6-15.8-.4-28.3-13.3-27.9-28.9h0c.4-15.6,13.4-27.9,29.2-27.6h0c15.8.4,28.3,13.3,27.9,28.9ZM624.8,456.3c0-.4.2-.8.5-1.2.3-.4.3-.8.2-1.2l-1.6-4.7c-.1-.4-.4-.7-.8-.8-2.1-.7-4.3-.5-6.6.4-5.6,2.4-4.2,8.7-.3,11.7.5.4.5.8.1,1.3-3.6,3.9-4.6,9-2.8,14.4,2.3,7.2,9.3,10.5,16.7,9.4,6.5-.9,10.4-5.1,11.8-12.6.9-5.1-.6-9.6-4.7-13.4-3.9-3.7-7.8-4.6-11.8-2.9-.5.2-.7,0-.6-.5Z"/>
  <path class="cls-1" d="M397.9,472.7c-2.8,8.9-13.3,10.4-17,.9-1.4-3.6-.1-6.7,2.9-8.7,1.2-.8,2.8-2.2,4-2.6,5.1-1.4,8.8,1.2,10.1,6.1.4,1.5.4,2.9,0,4.3Z"/>
  <ellipse class="cls-1" cx="627.5" cy="471" rx="9.2" ry="8.5" transform="translate(-131.7 668.8) rotate(-51.5)"/>
  <path class="cls-1" d="M266.1,553c-3.6-5-6.8-10.1-9.8-15.1-3.1-5.3-5.2-11.2-6.5-17.7-1.9-10.2-2.2-20.2-.8-29.8.6-4.2,1.2-8.6,1.9-13.2,1-6.8,1.6-6.8,1.7.1.1,11.7,1.1,22.6,3,32.5,1.6,8.5,5.2,19.3,7.4,29.1.7,3.1,1.8,6.6,3.2,10.5.4,1.2.5,2.4.3,3.6,0,.4-.2.4-.5.1Z"/>
  <path class="cls-1" d="M758,541c-3.1,4.6-6.1,9.4-8.9,14.1,0,.1-.2.2-.4.2-.3,0-.4,0-.3-.4,5.8-16.7,9.9-33.8,12.7-50.8,1.6-9.5,2.2-18.9,1.9-28.4,0-1,0-2.1.2-3.1,0-.4.2-.5.3,0,3,11.2,4.2,22.7,3.9,34.3,0,2.1-.3,4.4-.7,6.9-.4,2.9-.6,6.1-1.4,8.9-2.3,8.3-4.8,14.3-7.4,18.3Z"/>
  <path class="cls-1" d="M308.7,512.2c.8,1.2,1.6,1.3,2.6.2,2.6-3.1,4.8-6.2,5.6-10.4.5-2.5.9-5,1.3-7.4.4-2.8,1.2-5.1,2.1-7.7,0-.2.2-.2.4-.2h.4c0,.2,0,.2,0,.2-.9,3.5-1.2,6.8-.8,10,.2,1.4.7,2.5,1.5,3.4.3.4.9.5,1.3.3.9-.4,1.8-.6,2.8-.6.5,0,.9.4.9.9,0,.3-.1.5-.3.7-2.5,2.3-5,4.8-6.2,8.2-1.2,3.3-2.6,6.5-4.4,9.5-.2.3-.2.7,0,1.1.5,1.1,1.3,2.3,2.4,3.4,4.3,4.6,9.1,8.3,14.4,11.1.4.2.7.1.9-.3,1.3-2.6,2.3-6.9,5.8-7.3,8.7-.9,15.5-1.9,21.1-9.4.1-.1.3-.2.5,0,0,0,0,.1.1.2.6,2.1.8,5.1-1.4,6.4-3.9,2.3-7.4,4.4-10.8,6.2-1.6.9-3.3,1-5.1,1.2-1.2.1-2.1,1.2-1.9,2.4,0,0,0,.1,0,.2.8,3.9,2.2,8.4,6.4,9.8,4.3,1.4,9.2,3.4,13.5,3.4,2.3,0,4.7.1,7,.5.1,0,.2,0,.1.2v.4c0,0,0,.1-.1.1-3.2.1-6.4.2-9.7.7-3.3.6-6.7.4-10.2-.4-2.4-.6-3.7.4-3.8,2.8,0,1.9,1,3.2,3.2,3.9,7.6,2.3,16.5,3.7,26.9,4.1,4.6.2,8.7,0,12.5-.6.8-.1,1.7,0,2.6.1.8.2.8.4,0,.5-7.4,1.7-14.7,3.1-21.8,4.1-10.8,1.6-21.1.4-30.8-3.6-.7-.3-1.4,0-1.8.5-2,2.4-4.2,4.7-7.7,3.8-.9-.2-1.5-1.1-1.4-2,.2-2.3.9-4.3,1.9-6,.3-.5.2-.8-.3-1-1.8-.7-3.8-1.5-5.5-2.7-9.1-6.1-16.3-13.4-23.1-22-6.4-8.2-11-16.6-13.7-25.3-1.3-4-2.1-8.9-2.7-14.7,0-.4-.2-.7-.5-.9-2.9-2.2-5.2-5.1-6.8-8.8-.8-1.8-.3-3,1.6-3.6l1-.3c2.4-.8,4.2,0,5.2,2.3,2.2,5.1,5.3,7.3,9.4,6.6,1.8-.3,3.1-1.5,3.7-3.5.9-2.9,1.8-5.8,2.7-8.6.4-1.2.7-1.2.9,0,.4,2.9.5,6.3.3,10.3-.4,6.7-5.2,8-10.8,8.8-.4,0-.7.5-.7.9,0,0,0,0,0,0,1.5,7.3,3.8,13.6,6.8,18.9,5.4,9.6,11.4,17.3,17.9,22.9,5.3,4.6,12.1,9,20.4,13.1.8.4,1.8.2,2.3-.5.4-.5.7-1,.7-1.6,0-2.1-.9-3.5-2.9-4.1-5.3-1.5-9.8-3.7-13.5-6.7-12.2-9.8-21.5-22.8-24.9-38.2-.2-1,0-1.8.9-2.3.3-.2.8-.1,1,.2l10.6,16.6Z"/>
  <path class="cls-1" d="M727.9,492.1c-3.8,1.3-7.4.4-10.8-2.8-.4-.4-.6-.9-.7-1.5l-.7-14.3c0-.1,0-.2.2-.3h.3s0,0,0,0c.6,5.1,2.8,8.9,6.7,11.6,5.7,3.9,8.8-3.2,10.5-7.4.1-.4.5-.6.8-.8,1.6-.5,3.1-.4,4.5.3,1,.5,1.3,1.3,1.1,2.3-.4,1.7-.8,3.3-2,4.6-3.3,3.7-6.9,5.8-6.7,11.5.3,7-1.8,14.3-6.3,21.7-.2.3-.2.6-.1.9l.2.7c0,.4,0,.7-.1,1.1-.6,1.2-1.2,2.3-2,3.4-4.7,6.6-10.3,12.9-16.6,18.9-3.9,3.7-6.9,6.2-9.1,7.3-2.5,1.3-5.1,2.8-7.6,4.6-.9.6-1.1,1.9-.5,2.8,0,0,0,0,0,0l2,2.8c.4.6.4,1.3,0,1.9-1.9,3.2-4.3,3.7-7.1,1.6-.4-.3-.7-.7-.8-1.1-.6-1.6-1.9-2.4-3.6-1.8-12,4.3-24.3,5.2-37.1,2.8-5.1-1-10.3-2.1-15.7-3.3-.8-.2-.8-.4,0-.5,2.6-.5,4.6.5,7.1.5,11.5,0,22.7-1.2,33.7-3.9,1.6-.4,3.2-1,4.7-1.8.6-.3.8-1,.5-1.6,0,0,0,0,0-.1l-2.1-2.9c-.3-.4-.7-.7-1.3-.7-1.2,0-2.3.5-3.6.6-3.8.3-7.7.4-11.7.3-.4,0-.6-.2-.4-.6.3-.7.8-1.2,1.4-1.3,4.3-.8,9.9-1.2,13.3-3.4,3.6-2.4,7.9-7.8,5.2-12.1-.2-.4-.6-.6-1-.7-6.7-.8-15-4.8-17.7-11.6-.2-.5,0-1,.5-1.3.4-.2.8-.1,1.1.1,5.4,4.7,11.3,7,17.5,6.8,3.6-.1,7.8,1.2,7.2,5.8-.1.9.5,1.6,1.4,1.7.3,0,.5,0,.8,0,6.9-2.7,12.3-6.9,16.3-12.6.9-1.4,1-2.8,0-4.2-1.4-2.1-2.6-4.3-3.7-6.7-1.6-3.4-4.1-6-6.7-8.6-.5-.5-.5-1,.1-1.4.6-.4,1.2-.5,2-.3,1.5.3,2.9.7,4.2,1.1.6.2,1.1-.2,1.3-.7,0,0,0,0,0-.1.7-3.8.3-7.7-1.1-11.8-.1-.3,0-.7.3-.8l.3-.2c.2,0,.4,0,.4.1,3.2,5.1,1.7,10.6,3.5,16,.9,2.5,2.6,5.4,5.3,8.7.2.3.5.3.8.1,1.3-1,2.4-2.1,3.4-3.4,2.6-3.7,5-7.5,7.3-11.6.2-.3.4-.5.8-.7,1.6-.7,2.3-.2,2.1,1.4-.3,2.9-1.1,5.6-2.3,8.3-4.2,9.3-10.1,17.7-17.8,25.1-5.6,5.4-11.7,9.2-18.5,11.5-1.7.6-2.3,1.7-1.7,3.5,0,0,0,.1,0,.2.5,1.9,1.7,2.4,3.4,1.6,9.5-4.2,17.5-9.9,23.9-17,5.1-5.7,10.1-12.3,13.4-19.2,3.1-6.4,5.7-12.7,8-19,.2-.6,0-.8-.6-.6Z"/>
  <path class="cls-1" d="M179.7,519.9c-26.6-1.4-51.9,8.3-71.1,26.8-2.2,2.1-4.4,2.3-6.6.6-2.6-2.1-2.8-4.6-.6-7.7,3.3-4.7,7-8.8,11.2-12.4,7.1-6,14.1-10.6,20.9-13.6,5.5-2.5,11.5-4.5,18-6.1,5.4-1.3,11.6-1.8,18.7-1.4,11.9.7,21,6,28.7,15.2.9,1.1,1.6,2.2,2.2,3.4.3.7.2.8-.4.3-5.7-4.6-13.8-4.8-21-5.2Z"/>
  <path class="cls-1" d="M807.8,522.8c11-14.2,27.6-18.8,44.8-14.7,20.4,4.9,37.7,15.5,49.6,32.4.6.9,1.1,1.9,1.4,3.2,0,.4,0,.7,0,1.1-.7,1.7-1.9,3.1-3.5,4.2-1,.7-2.4.6-3.3-.2-7.2-6.6-15.3-13.5-23.7-18.1-7.5-4.1-16.3-7.2-26.4-9.1-11.6-2.2-22.8-2.1-33.8.3-1.5.3-3,.9-4.5,1.6-1,.5-1.1.3-.5-.6Z"/>
  <path class="cls-1" d="M483.7,533.7c3.6-2.9,10.9-7.5,16-7,1.3.1,1.3.4.1.8-6.3,2.2-12.5,6.1-18.6,9.5-1.1.6-1.4.4-.8-.8.6-1.2,2.2-1.7,3.3-2.6Z"/>
  <path class="cls-1" d="M147.2,555.6c-6.5,3.3-13.1,7.8-20,13.5-8.3,7-15.1,15.6-21.2,24.3-2.5,3.6-4.9,7.9-7.2,12.9-.4.9-1,1.8-1.8,2.6-2.5,2.6-5.1,2.7-7.8.4-2.8-2.4-2.5-6.8-1.6-9.9,6.9-25,26.8-46.7,49.8-57,8.6-3.9,17.9-6,28-6.6,8.7-.4,17.4,1.1,25.9,3,.3,0,.6.2.8.5.1.2,0,.5-.2.6,0,0-.1,0-.2,0-8.3,1.2-16,3.2-23.1,6-6.8,2.6-13.9,5.8-21.4,9.6Z"/>
  <path class="cls-1" d="M907.4,607.5c-11.3-22.5-29.4-42-51.9-53.2-12.8-6.4-26-11-39.7-14-.3,0-.4-.3-.4-.6,0,0,0-.2.1-.2,1.1-1.1,2.4-1,3.7-1.3,32.6-7.5,63.4,5.7,83.4,31.8,6.7,8.7,12,18.9,16,30.8,1.5,4.3-.5,10.5-5.6,10.6-2.6,0-4.5-1.2-5.9-3.9Z"/>
  <path class="cls-1" d="M552.1,578.6c.4,1.4.9,2.8,1.5,4.1.6,1.3.3,1.5-.8.5-1.2-1-2.4-2.3-3.1-3.7-2.9-5.6-5.7-11.2-8.5-16.8-.4-.8-.7-1.6-.8-2.6,0-.4,0-.8.2-1.1,2.1-3.2,5.7-4.9,9.4-3,7.7,3.8,15,12.2,14.5,21.1,0,.3-.3.6-.6.6,0,0,0,0,0,0-.4,0-.6-.2-.7-.4-.2-.8-.6-1-1.4-.7l-2.3,1.1c-.5.2-.6.6-.4,1.1l.2.4c.3.6.1.8-.5.6-.4-.2-.7-.4-1-.8-.3-.4-.6-.4-1-.2-1.2.6-2.4.3-3.6-.8-1.1-1-1.4-.8-1,.6Z"/>
  <path class="cls-1" d="M460.5,576.5c-.2,1.4-.1,2.6.4,3.7.2.4,0,.6-.4.5-2-.5-5.6-2.8-5.2-5.4,1.2-6.7,3.5-11.8,7-15.2,3.9-3.8,9.7-5.7,14.7-2.8.3.2.5.5.6.8.4,1.6.3,3.2-.4,4.8-1.9,4.5-4.1,8.8-6.7,12.9-1.5,2.4-2.2,4.8-3.2,7.3-.2.4-.6.6-1,.4-.1,0-.2-.1-.3-.2-.8-1-1.1-2.3-.9-3.7,0-.4-.2-.9-.6-1l-2.5-.9c-.2,0-.4-.3-.6-.5l-.3-.8c-.3-.7-.5-.7-.7,0Z"/>
  <path class="cls-1" d="M486.7,561.2c-3.9,8.2-8.3,16.2-12.7,23.9-1,1.7-1.2,1.6-.7-.3,2.5-9.1,5.6-17.1,12.2-24.4,2.2-2.5,2.6-2.2,1.2.8Z"/>
  <path class="cls-1" d="M543.5,585.6c-3.7-9.3-8-17.6-12.7-24.8-1.4-2.1-1-2.4,1-.9,5.4,3.9,9.2,13.1,11.5,19.5.7,2.1,1.2,4,1.5,5.9.4,3.2,0,3.3-1.2.3Z"/>
  <path class="cls-1" d="M510.6,672.8c0,.1,0,.2-.2.2h-.3c0,0-.1,0-.1,0-.8-3.6-1.2-6-1.2-7.2-.3-5.3-.4-10.7-.3-16,.1-25.3.2-53.2.2-83.8s.2-1.5.6-2.1c.3-.4.6-.6,1-.6.2,0,.3.1.3.3,0,0,0,0,0,0,0,9.4.1,18.8.2,28.4,0,5.6.3,13.2.8,22.8.6,12.1.6,23.4,0,33.8-.7,10.7-1,18.8-1,24.3Z"/>
  <ellipse class="cls-1" cx="462.3" cy="581.5" rx=".6" ry="1.1" transform="translate(-253.2 381.5) rotate(-35.9)"/>
  <path class="cls-1" d="M886.4,738c-3.3-1.6-6.6-3.1-9.8-4.3-.2,0-.3-.3-.3-.6,1.3-4.3,2-8.6,2-12.9,0-2.5,1.1-4.3,3.2-5.4,3-1.7,6.1-1.2,9.1,1.5,2.3,2.1,3.1,4.4,2.3,7-1.5,4.6-2.9,9.2-4.3,13.9-.1.4-.4.7-.8.8-.5.1-.9.1-1.3,0Z"/>
  <path class="cls-1" d="M137.8,734.3c-2.7,1.6-5.2,2.9-7.5,3.8-.7.3-1.4,0-1.8-.6-2.4-4.2-4.3-8.9-5.6-14.1-.6-2.3.3-5.1,2.2-6.4,3.5-2.5,5.8-4.2,10-1.2,1.2.8,1.9,2,2.2,3.5.9,4.2,1.5,8.3,1.9,12.2.1,1.3-.4,2.2-1.4,2.9Z"/>
  <path class="cls-1" d="M859.3,758.1c-1.3-1.9.8-4.3,2.3-5.5,3-2.3,5.1-4.4,6.2-6.3,1.3-2.2,2.6-4.4,4.1-6.5.6-.9,1.8-1.2,2.7-.7,3.2,1.7,5.7,4.2,7.5,7.5.2.3.2.7,0,1.1-3.2,5.9-9.2,13-15.7,15.1-.4.1-.8.1-1.3,0-2.4-.9-4.3-2.5-5.8-4.7Z"/>
  <path class="cls-1" d="M146.8,762.1c-5.4-2.9-11.1-8.5-12.8-14.5-.1-.5,0-.9.1-1.3,1.6-3.4,3.8-4.3,6.7-6.5,1.3-1,2.4-.7,3.4.7,3.8,5.8,8.1,11,13,15.6.4.3.4.8.2,1.2-2.4,3.8-5.7,7.5-10.7,4.7Z"/>
  <path class="cls-1" d="M518.7,803.3c0,.4,0,.7,0,1,0,.3-.1.3-.4.2-.1-.1-.2-.3-.3-.5-2.2-7.7-5.7-14.7-10.8-21-1.5-1.8-1.3-2,.6-.6,6.3,5,9.9,11.9,10.9,20.9Z"/>
  <path class="cls-1" d="M600.2,803.4c.2-.5.5-.9.8-1.1.9-.7,1.1-.5.6.5-2.1,4.7-4.7,9.3-7.6,13.9-14,21.6-30.5,39.2-49.5,53-11.1,8-26.2,14.8-40.5,10.7-15.6-4.4-30.3-16.2-41.4-27.6-14.3-14.7-26.9-30.8-37.8-48.1-3.3-5.2-6.6-10.6-9.9-16.2,0,0,0-.2,0-.3h0c0,0,.1,0,.2,0,2.4,2.9,4.8,5.8,7,8.8,5.9,7.9,12.8,15.1,19.5,22.4,7.9,8.6,16.1,16.3,24.8,23.7,5.9,5.1,12.8,9.8,20.6,14.2,9.7,5.5,22.2,9.8,33.3,8.1,17.4-2.6,32.4-12.9,45-24.3,12.4-11.2,23.7-23.1,33.8-35.9.5-.6.9-1.2,1.2-1.9Z"/>
  <ellipse class="cls-1" cx="189.4" cy="827.4" rx="7" ry="6.6" transform="translate(-657.9 877.7) rotate(-80.5)"/>
  <circle class="cls-1" cx="798.8" cy="846.6" r="8.3"/>
  <path class="cls-1" d="M426.2,939.9c4.5,8.6,9.9,17,17.6,21.8,2.7,1.6,5.2,3.4,7.5,5.1.7.5.6.7-.2.6-12.5-1.9-21.7-8.2-27.8-18.7-5.1-8.9-8.3-19.4-8.7-29.7-.1-3.7-.5-7.4-1.1-11.3,0-.2,0-.3.2-.3h0c.2,0,.3,0,.4.2,3.4,11.1,6.9,22.1,12.1,32.2Z"/>
  <path class="cls-1" d="M453.1,961.8c-7.4-3.3-13.2-11.2-16.2-18.7-.9-2.3-.5-2.5,1.2-.8,2.2,2.2,4.4,4.3,6.7,6.2,2.6,2.2,6.4,4.2,11.3,6,10.1,3.7,20.2,1.8,28-5.5,7-6.5,10-15.7,9.7-25.3,0-.5.1-1.1.4-1.7,0-.2.3-.4.5-.6.2-.1.5,0,.6.1,0,0,0,.1,0,.2,1.1,8.7,1.2,15.9,0,21.6-.8,4.2-3.2,8.4-7.3,12.5-4.3,4.4-9.7,7.3-16.2,8.8-3.2.7-6.2.8-9,.3-3.8-.8-7.1-1.8-9.9-3Z"/>
</svg>