<?xml version="1.0" encoding="UTF-8"?>
<svg id="Layer_1" data-name="Layer 1" xmlns="http://www.w3.org/2000/svg" version="1.1" viewBox="0 0 1024 1024">
  <defs>
    <style>
      .cls-1 {
        fill: #000;
        stroke-width: 0px;
      }
    </style>
  </defs>
  <path class="cls-1" d="M697,321.9c2.4-.2,2.4-.6,0-1.1-6.7-1.6-13.7-3.9-20.3-5-12.7-2.1-24.1-2.6-34.2-1.6-7.7.8-16.8,2.5-27.3,5.4-6.4,1.7-12.9,4.1-19.5,7-8.6,3.8-16.3,7.9-23.3,12.1-6.3,3.8-13.7,9-22,15.7,0,0,0,0,0,0l-.2-.2c-.2-.2-.2-.3,0-.5,1.7-1.6,3.4-3.5,5.1-5.9,3.8-5.2,8-10.3,12.8-15.2,4.6-4.8,9.7-9,15.1-12.5,8.4-5.4,15.6-9.5,21.6-12.4,13.9-6.6,29.1-12.1,45.8-16.3,31.3-7.9,64.4-4.6,94.5,5.7,7.1,2.4,15.5,5.7,25.3,9.8,14.1,5.9,27.7,11.6,40.7,16.9,11.5,4.7,17.9,7.3,19.4,7.8,13.8,5,27.9,8.3,42.6,9.8,4.5.5,9.7.7,15.7.6,5.2,0,10.5-.2,15.7-.3.2,0,.2,0,.2-.2h0c0-.2,0-.2-.2-.2-11.2-.7-20.8-1.8-28.7-3.4-7.4-1.5-12.3-2.7-14.6-3.8-9.8-4.6-20.3-8.9-29.1-14.5-10.6-6.7-21.1-13.3-31.3-19.7-10.3-6.4-21.5-13.1-33.7-19.9-8.1-4.5-17.2-8.9-27.2-13.2-8.1-3.5-16.6-5.9-25.1-8.4-13.8-4.2-27.4-5.3-41.9-5-22.2.4-44.5,6.7-65.1,16.1-4.4,2-8.7,4.3-13,7.1-4.3,2.8-8.5,5.5-12.5,8.1-1.9,1.3-3.6,2.9-5.1,4.9-5.9,7.6-11.4,16.2-16.5,25.8-4.6,8.6-9.4,18.4-14.5,29.4-.3.6-.4.6-.4,0-.2-4.9.5-9.8.7-14.7.4-8.6,1.2-19,2.4-31,1.4-13,3.5-24.9,6.3-35.5,2-7.5,5.3-15,8.2-22.5,3.4-8.5,7.9-16.8,12-25,.9-1.8,2.1-3.9,3.4-6.1,1.2-2,2.4-4,3.5-6,.3-.5.4-.5.4.1,0,0,0,.2-.1.3,0,0-.1.2-.2.2-5.9,12.7-11.2,25.9-15.8,39.7-1.6,4.8-3.1,9.6-4.4,14.5-1.7,6.5-3.9,13-5.3,19.6-2.4,11.3-4.3,22.6-5.7,33.9,0,.1,0,.2.2.2h.5c.1.1.2,0,.2,0,4-13.2,7.8-23.8,11.3-31.8,2.5-5.8,5-11.4,7.3-16.9,5.3-12.4,11.1-22.9,17.6-33.8,21.1-34.9,49.4-69.5,80.6-95.2,17.4-14.3,36.8-25.5,58.4-33.7,4.3-1.6,8.9-3.2,14-4.8,13.5-4.3,27-6.1,41.2-4.9,8.1.7,16.1,4.2,20.9,10.6.3.4.2.6-.3.6-6.2.2-12.2-.8-18.3-.4-12.4.7-24,2.9-34.9,6.6-24.5,8.3-47.7,20.4-67.2,36.7-14.5,12.1-28,26.1-40,41.5-10.7,13.7-21.7,28.8-33.1,45.1-.8,1.2-2.7,3.3-3.5,5.2-.3.7-.1.8.4.3,9.8-8.2,20.3-15.4,31.2-21.8,5.2-3,11.2-5.8,17.9-8.4,10.1-3.9,20.5-7.1,31.3-9.5,6.9-1.5,13.8-2.6,20.5-3.1,18.7-1.4,35-.8,48.8,1.7,25.4,4.6,49.4,14,71.7,28.4,14.9,9.6,28.5,22.4,40,35.8,5.4,6.2,11.2,13,17.4,20.4,9.8,11.6,17.6,20.4,28.5,27.7,4,2.7,8.7,4.7,14.1,5.9,3.2.7,6.1.8,8.8.1,3.4-.9,6.3-2.3,8.8-4.3,1.7-1.4,3.5-2.7,5.3-3.9,1.4-.9,2.8-1.1,4.2-.5,2.1.8,4,2,4.4,4.3.8,4.3.4,8.4-1.2,12.4-4.9,11.7-13.7,21.3-25.4,26.8-6.6,3.1-13.3,5.2-20,6.2-22.9,3.5-46.3,2.1-70.1-4.3-6.8-1.8-13.1-3.8-19-5.9-14.7-5.3-30.3-11.7-46.9-19.3-16.3-7.5-33.2-13.8-50.6-18.8-9.2-2.7-19.5-4.2-29.3-4.2-7.7,0-15,0-21.9.3-2.1,0-2.2.5-.2,1.2,2,.8,4.4.9,6.6,1.5,12.7,3.3,24.9,8,36.5,14.3,12.7,6.8,23.4,15,32.2,24.7,4.2,4.6,7.7,9.8,10.6,15.6.4.8.3,1-.5.4-5.9-4.2-12-8.7-18.2-11.5-5.9-2.6-12-5-18.2-7.2-1.5-.5-3.1-.9-4.7-1.2-3.8-.6-4,0-.6,1.7,6,3.2,11,6.1,15.2,8.9,8.3,5.6,15.4,12.9,23.6,18.7,3.3,2.3,6.7,4.5,9.8,6.8,9.4,7.1,18.1,15.4,26.1,24.9,5.7,6.8,11.3,13.5,16.9,20.1,8.6,10.2,18.9,15.3,30.4,20.7.7.3,1.2.8,1.5,1.5.2.3,0,.7-.3.9,0,0,0,0,0,0-4.3,2.1-10.4,4.6-14.8,2.9-1.6-.6-1.8-.3-.7,1,5.7,6.4,12.8,11.7,20.5,17.2,9.2,6.7,19,11.7,29.5,15.1.3.1.5.4.4.8,0,.1-.1.2-.2.3-.7.6-1.5,1-2.4,1.3-9.6,3.8-19.2,4.6-28.8,2.5-1.2-.3-1.4,0-.5,1,2.1,2.2,4.5,3.7,6.8,5.8,6.6,6.1,13.3,12.2,20.1,18.3,9.3,8.3,19.4,15,30.4,20.2,12.9,6.1,26,7.3,39.4,3.6.3,0,.6,0,.7.4,0,.1,0,.3,0,.4-2.2,4.4-5,8.3-8.4,11.8-5.3,5.4-12.1,10.8-19.3,14.1-6.6,3.1-13.6,5.5-20.8,7-2.1.5-4.2.3-6.3.6-.2,0-.3.2-.3.4,0,0,0,.2.1.2,10,7.7,20.3,13.3,31.4,18.7.3.1.5.4.6.7,0,.2,0,.4-.3.4,0,0,0,0,0,0-12.1,1-25.3-.7-35.7-6.5-2.1-1.2-4.3-2.4-6.6-3.6-.8-.4-1-.2-.6.6,1.3,2.5,4.8,4.8,7.1,6.6,2.9,2.4,5.3,5.2,8.2,7.6,2.2,1.9,4.1,3.7,5.7,5.5,2.7,2.9,5.4,5.6,7.8,8.6,9.5,11.8,16.8,24.8,21.9,39.1,2.6,7.2,4.1,14.2,4.8,20.8.8,8.7.7,17.4-.2,26-.4,3.9-1.4,7.7-2.8,11.6-.2.6-.8.8-1.4.6-.3,0-.5-.3-.6-.5-2.4-5.1-4.9-9.7-7.5-13.9-3.9-6.3-9.4-10.7-16.7-13.2-2.9-1-5.7-2.1-8.4-3.4-.5-.2-.6-.1-.4.4,1.6,2.9,3.1,5.9,4.5,8.9,9.1,19,11.9,39.1,8.3,60.2-1,5.5-2.6,10.9-4.9,16.2-.9,2.1-1.5,2-1.8-.3-1-9.9-2.3-20-3.9-30.5-.7-4.6-2.3-10.7-4.8-18.3-.2-.5-.3-.5-.4,0-.3,1.3-.5,2.7-.5,4.1,0,3.6,0,7.3.1,11.1.2,6.3-.4,12-1.6,18-.5,2.5-1.2,4.8-2.3,7-.6,1.4-1,1.3-1.1-.2-1-10.6-4.3-20.1-9.9-28.6-1.4-2-3-3.8-4.9-5.3-.9-.7-1.2-.5-.8.6,1.8,5.4,2.7,10.2,2.9,14.4.2,5.3.2,12.3,0,21-.1,5.4-.8,10.5-2,15.2-2.2,8.5-5,17-8.6,25.4-2.9,6.8-6.2,12.6-10,17.4-2.1,2.6-4.2,5.3-6.5,8.1-.4.5-1,.9-1.6,1.2-.5.2-1,0-1.2-.5,0-.2,0-.4,0-.5,1.9-8.3,3.3-16.6,4.1-24.7.4-3.8.4-7.6.2-11.4-.2-4.1-.4-7.9-.4-11.4,0-3.1-.7-6.4-2.1-9.9-.2-.6-.4-.6-.5,0-1.6,13.2-3.5,23.3-5.9,30.2-1.6,4.7-3.3,9.7-5,14.8-7.5,22.1-20.5,40.7-39.1,55.6-2.9,2.3-6.2,4.5-9.9,6.5-.8.4-1.1.2-.9-.7,1-3.6,2.1-7.2,3.4-10.9,2.9-8.5,4.5-16.5,5-24.2,0-1.5.9-2.9.7-4.3-.2-1.2-.5-1.3-1.2-.2-1.5,2.5-2.1,5.4-3.6,8-10.5,17.9-22.4,33.7-37.5,47.3-6.6,6-12.7,11-18.3,15.1-10.3,7.6-20.5,15-32.3,21.5-5.8,3.2-13.6,7.1-23.2,11.7-2,1-3.9,1.8-5.8,2.4-3.4,1.2-7.7,3-11.3,2.3-.9-.2-1.6-1.1-1.4-2,0-.2.1-.4.2-.6,3.4-5.8,7.1-11.5,11.1-17.2.9-1.3,1.7-2.8,2.2-4.4,0-.3,0-.6-.3-.7-.3-.1-.5,0-.7.2-1.1,1.7-2.4,3.3-4,4.8-5.2,5-10,9.3-14.5,13-11.1,9-23.6,16.2-37.7,21.7-10.4,4.1-19.7,7.1-28,9.1-9.3,2.2-18.2,4.3-26.6,6.1-1,.2-1.8.8-2.4,1.6-1.7,2.3-3.3,4.7-5,7.2-5.2,7.8-10.9,14.3-19,19.2-3.6,2.2-7.8,3.8-12.8,4.9-11.9,2.7-25-2.3-34.3-10-4.4-3.7-10-8.6-16.8-14.8-1.2-1.1-2.7-1.7-4.4-1.7-1.7,0-2.6,0-2.7,0-11.6-.9-19.4-1.7-23.6-2.1-24.7-2.7-47.8-10.2-69.1-22.4-4.1-2.3-8.5-5.3-13.4-9.1-.3-.2-.6-.2-.8,0l-.2.2c0,0,0,.2,0,.3,3,3.3,5.7,6.8,8.1,10.5.2.3.2.6.1.9-.7,2.2-2.2,3.3-4.5,3.3-2.8,0-5.6-.8-8.4-2.1-13.7-6.4-26.4-14.5-37.9-24.3-2.2-1.9-6.2-5.5-11.8-10.9-2.4-2.3-4.7-4.7-7-7.2-2.2-2.4-4.4-4.9-6.6-7.4-3.2-3.6-3.7-3.2-1.4,1,2.9,5.5,5.9,11,9.1,16.6,3.2,5.7,6.7,10.9,9.4,16.9,0,.2,0,.4-.2.5,0,0,0,0-.1,0-.6,0-1.2,0-1.7-.2-5.7-2.1-11.4-4.8-17.1-8.1-14.9-8.6-29.3-19-43.8-29.4-8.9-6.4-17.4-13-25.6-19.9-5.9-4.9-11-9.7-15.3-14.3-10-10.6-18-22.5-24.1-35.9-1.6-3.4-2.9-6.9-3.9-10.3-.3-1-.5-1-.6,0-1.4,13.2-.6,26,2.3,38.3,1.5,6.3,3.8,13.8,6.9,22.4.8,2.1,2.2,4.8,2.9,7.2.3,1,0,1.2-.9.7-2.9-1.9-5.8-4.1-8.6-6.6-16.7-14.7-29.2-31.9-37.4-51.7-3-7.2-5.5-15-7.6-23.6-2-8.5-3-18.3-2.9-29.3.1-12.3.2-23.5.2-33.6s.8-8.1,1.9-12.3c.2-.9.3-1.5,0-1.9-.4-.6-.7-.6-1.2,0-1.5,2-3.1,3.8-4.7,5.6-4.4,4.8-7.4,10.8-9.6,16.8-1.8,5-3.3,10.5-3.4,15.9,0,.3-.2.5-.5.5-.1,0-.2,0-.3-.1-.3-.3-.5-.6-.7-.9-3.3-8.6-4.9-16.9-4.6-24.9.1-4.4,1.3-8.8,1.1-13.4,0-.3,0-.7.3-.9.4-.6.5-1.1.4-1.8,0-.4-.5-.7-1-.7-.2,0-.4.1-.5.3-1.5,2-3.2,3.9-5,5.8-1.9,2-3.4,4-4.5,6.1-4.2,8-5.8,16.2-7.5,25.1-.4,1.9-.9,2-1.6.1-1.5-3.8-3-7.9-3.6-11.9-1.4-9.1-1.6-17.7-.5-25.7,2.1-15.2,6.9-29.6,14.3-43.4,4.5-8.3,8.9-15.3,15.2-21.4.4-.3.4-.9,0-1.3-.1-.1-.2-.2-.4-.2-.4-.1-.8-.1-1.2,0-9.9,5.4-17.9,10.4-23.8,14.9-4.6,3.5-8.5,7.6-11.5,12.3-1.6,2.4-2.2,2.2-1.9-.7,1.1-9.4,4.3-18.3,9.4-26.6,5-8,10.9-14.4,16.9-21.2,3.8-4.3,7.8-7.7,12.4-10.7,1.5-1,1.4-1.3-.4-.9-1.9.5-3.8,1-5.6,1.5-2.1.6-4,1-5.6,1.1-2.5.1-5.1.8-7.7.7-5.1-.2-10.5-1-15.9-2.4-.2,0-.3-.2-.2-.4,0,0,0,0,0,0,.2-.4.6-.7,1.1-.8,2.5-.5,4.3-1,5.4-1.5,8.7-3.9,16.9-9.5,23.5-16.5,2.2-2.3,4.4-4.5,6.7-6.7.2-.2.3-.4.4-.6.3-.9.1-1.4-.5-1.6-.3,0-.7,0-1,0-5.4,2.5-9.8,2.6-15.2,3-9.8.8-23.9-2.3-31.4-9.2-.7-.7-.7-1.3,0-2,.6-.6,1.2-1,2-1.3,8-3,14.7-6.6,21.2-12.3,5.5-4.9,10.9-10.9,16.2-17.9,10.3-13.7,18.6-28.3,27.5-42.5,1.3-2.2,2.7-4.3,4.1-6.6,1.1-1.7.8-2-.9-.8-12.5,8.9-23.6,17.7-33.2,26.4-2.1,1.9-2.6,1.6-1.4-1,3.9-8.6,8.8-17,14.6-25.1,7.8-11,15.4-21.3,22.7-31.1,1-1.3,1.5-2.8,1.7-4.3,3.1-43.8,18-83.1,44.7-117.8,3.4-4.4,7.3-9,11.7-14,4.9-5.5,9.7-10.3,14.6-14.6,15-13.3,31.2-23.9,48.6-32,12.5-5.8,26.5-10.6,42.1-14.2,8.9-2.1,18.3-3.2,27.4-4.7,1.9-.3,3.6-.9,5.3-1.8,6.5-3.6,12.4-7.1,19.5-9.6.5-.2,1-.5,1.4-.9.5-.6.5-1.1-.1-1.7-25.7-20.9-43.2-48.3-50.7-80.3-5.9-25-6.4-50.1-1.4-75.3,4.6-23.6,15.1-45.2,31.2-64.9,2.3-2.7,5.3-5,7.9-7.5,5.8-5.5,12.3-9.7,19.6-12.6,6.3-2.5,12.7-3.8,19.3-3.9,1,0,1.1.3.3.9-1.4,1-3.2,1.2-4.7,2.1-6.3,3.7-11.2,7-14.9,10.1-25.2,21-41.8,50.3-46.7,83.1-4.5,30.5-.8,62.5,11.5,91,2.2,5,4.8,9.9,7.9,14.6,5,7.5,10.5,14.6,16.6,21.4,7.8,8.8,18.2,16.3,31.1,22.6.2,0,.4.1.6,0,0,0,.2,0,.2-.2,0,0,0-.1,0-.2-16.2-12.1-29.8-26.3-40.8-42.8-3.1-4.6-6.4-10.8-9.9-18.4,0-.2,0-.3.1-.3h.2c0-.1,0-.1,0-.1.7,1.1,1.3,2.2,2,3.4.7,1.1,1.4,2.2,2.2,3.2,3.3,4.1,6.6,8.6,10.2,12.3,9.5,9.7,16.7,16.9,21.8,21.5,7,6.3,14.9,12.4,23.8,18.3.1,0,.3,0,.4,0,0,0,0-.1,0-.2,0-.6-.3-1-.7-1.4-8.8-8.5-17.9-17.7-25.1-27.8-4.6-6.4-9.4-14.3-14.4-23.7-3.9-7.3-7-13.5-9.3-18.9-4-9.3-6.9-19-8.7-29-.3-1.8-.6-4.4-.9-7.7-.2-2.6-.5-5.2-.8-7.7,0,0,0,0,0,0h.3c.2,0,.3,0,.3.2,1.6,8.8,3.4,16.3,5.3,22.4,1.5,4.6,3.2,9.3,5.2,13.9.1.3.4.5.8.6.3,0,.5,0,.4-.4-5-21.1-5.2-41.3-.5-60.7,0-.2.3-.4.6-.3s0,0,.1,0l.3.2c.2.1.2.3.1.4-.2.8-.4,1.8-.4,2.9,0,6.5,0,12.1.4,16.8.4,5.4,1,11,1.8,16.9,2.2,15.6,6.7,30.7,13,45.4,7,16.3,14.3,31.1,25.7,44,2.2,2.5,4.4,5,6.6,7.5,2,2.3,4.1,4.3,6.3,5.8,4,2.9,8,5.8,12,8.8.4.3.6.2.5-.3-.1-.7-.4-1.4-.9-1.9-3.8-4.1-6.6-7.8-8.4-10.9-6.7-11.5-12.4-22.5-16.9-33-1.5-3.5-3.4-8.8-5.5-15.7-1.7-5.6-3.2-10.9-4.5-16-3.8-15.3-6.9-30.1-9.2-44.6-2.8-17.2-3.9-36.6-3.3-58,0-3.7.4-7.5.9-11.5.5-3.8,1-7.6,1.7-11.5.2-1.4,0-1.5-.6-.2-3.6,7.5-6.4,15.1-8.5,22.8-.4,1.5-.7,1.5-.8,0-.1-2.4,0-4.7.5-6.8,3.3-15.7,8.1-29,14.3-39.7,4.7-8.1,10.4-15.7,17.1-22.7.2-.2.3-.3.5-.4,1-.6,1.3-.4,1,.8-2.1,7-4.2,14.3-6.2,22-3.4,12.9-5.7,25.9-6.8,38.8-.7,9-1,22.9-.6,41.8,0,3.7.7,6.9,1.2,10.5,0,.6.2.6.4,0,2.3-6.5,4.7-13.7,7.6-20,6.9-15,15.8-28,26.6-39.1,10-10.3,20.5-18.7,31.6-25.4,10.7-6.4,22.3-11.6,34.8-15.5,14-4.5,28.4-5.9,43.1-4.4,2.4.3,4.9.8,7.4,1.6,4.4,1.3,8.3,3.7,11.6,6.8.7.7.6,1.2-.3,1.5-23.7,8.1-41.3,22.6-52.9,43.5-3.3,6-5.8,12.2-7.4,18.5-2.7,10.6-4.5,20.5-5.1,29.6-1.5,20-.9,40.2,1.8,60.4,1.2,9,3,18,4.8,26.8.4,1.9.7,1.9.9,0,.2-1.5.9-2.7,1.1-4.2,1.3-10.6,4.2-20.1,7.6-30.1,1.5-4.2,3.3-8.6,5.4-13.2,8.3-17.7,19-34,31.9-49,6.8-7.9,14.4-15,22.6-21.3,7.9-6.1,16.1-12.2,24.9-16.9,10.6-5.7,20.7-10.4,30.4-14.1,7.6-2.9,17.3-6,29-9.3,25.9-7.2,53-7.9,80.3-5.4,26.2,2.5,49.8,9.7,71.1,23.7,4.7,3.1,8.9,6.7,12.6,10.8,0,0,0,.2,0,.2,0,0-.2,0-.2,0-3-1.7-5.9-3.1-8.8-4.2-11.3-4.3-22.6-8-34-10.9-5.5-1.4-11.9-2.6-19.4-3.5-18-2.3-35.2-2.7-52,.5-15.3,2.9-30.9,7.4-44.8,13.9-3.9,1.8-8.2,3.9-12.8,6.2-21.2,10.6-41.4,24.7-57.4,42.6-6.9,7.8-12.9,15.2-17.9,22.1,0,.1-.2.2-.4.2-.3,0-.4-.2-.2-.4.5-1,.9-2,1.4-2.9,2.3-4.4,4.9-8.6,7.7-12.6,3-4.3,6.3-8.4,9.8-12.5,11.1-12.6,24-23.6,37.8-32.8,11.1-7.4,23-13.1,35.2-18.2,3.4-1.4,3.3-1.7-.3-1.1-20.4,3.9-40.3,12.4-59.5,25.3-3,2-5.5,4.8-8.4,7-4.4,3.2-8.3,6.7-12,10.3,0,.1-.3.1-.4,0l-.2-.2c-.2-.2-.2-.5,0-.7,0,0,0,0,0,0,1.4-1.5,2.7-3.1,3.9-4.7,3.4-4.7,8.2-8.7,12.3-12.8.3-.3.4-.6.4-.8,0-.3-.3-.5-.5-.4,0,0-.1,0-.2,0-3.3,1.9-6.7,3.6-9.8,5.8-23.7,16.7-42.4,37.4-56,62.3-10.3,18.9-16.6,39.7-18.8,62.5-1.7,17.7-.3,34.9,4.4,51.6,3.8,13.6,8.1,26.9,12.8,40.1,3.2,8.9,7.5,17.7,11.3,26.3.5,1.1,1.2,1.7,1.8,2.7.3.4.2.5-.3.3-.7-.4-1.3-.9-1.8-1.5-3.4-4.2-6.6-8.3-9.6-12.4-3.7-5.1-7.9-9.6-10.7-15.6-7.3-15.6-12.7-29.3-16.2-40.8-2.2-7.3-4.6-16.6-7.3-28.1-2.2-9.7-5.1-19.4-7.6-29-3.9-14.9-6.6-29.1-7.9-42.6-1.9-19.4-1.6-40.5,2-60.4,1.2-6.4,2.8-12.2,4.7-17.3,2.1-5.5,1.5-5.8-1.9-1.1-7.9,11.1-14.8,23.2-19.8,35.9-1.9,4.9-4.1,9.7-5.7,14.8-1.7,5.6-2.8,11-3.5,16.2-.5,4.1-1,8.5-1.3,13.2-.3,4.2.4,8.9.5,12.2.2,9.1,1.5,18.7,4.2,28.9,3.9,15,9,29.2,15.4,42.8,5.7,12,11.2,22.2,16.4,30.7,4.8,7.7,10.1,15.9,15.9,24.5,2.5,3.7,5.5,7,7.5,11,0,0,0,.2,0,.2l-.3.2s0,0,0,0c-1.2-2.2-2.7-3.9-4.4-5.3-1.1-.9-2.1-1.8-3.1-2.8-8.2-8.2-15.3-16.5-21.3-25.1-5.6-7.9-11-15.8-16.3-23.6-8.5-12.6-14.5-26.5-20.4-40.6-1.5-3.5-2.7-7.5-3.8-11.8-2.6-10.8-5-20.6-5.7-32.1-.2-3.1-.1-6.7.1-10.8.3-4.9.6-9.8,1.4-14.6,2.7-15.9,7.5-31.4,14.4-46.5,4.4-9.8,8.8-18,13.2-24.7,6-9.2,11.5-16.5,16.4-21.9,3.8-4.2,8-8.5,12.7-12.9,1.6-1.5,3.4-2.5,5-3.7,1.4-1.1,1.6-.9.6.6-.8,1.2-2,2.3-3.4,3.5-1.1.9-2.2,1.9-3.1,3-2.6,2.9-5.2,5.9-8,9-9.1,10.4-16.9,21.7-23.4,33.9-1.9,3.7-4.8,9.9-8.6,18.6-2.8,6.4-5.1,12.6-6.8,18.6-6.6,22.3-8.5,47.9-2.4,70.1,3.5,12.7,8.5,26.5,15.6,39.1.6,1.1.6,2.4,1.2,3.5.3.5.4.4.4-.1,0-.9,0-1.8-.4-2.7-2.4-7.6-4.8-15.6-7.2-24.1-1.9-6.9-3.2-13.5-3.8-19.9-1.4-13.7-1.5-26.4-.4-38,.7-7.7,2.6-16.9,5.5-27.6,1.9-6.8,4.1-13.4,6.7-19.8,9.6-23.2,23.1-44.2,40.5-63,5-5.4,10.5-10,16.4-13.8,3.1-2,6.3-3.8,9.6-5.5,2.7-1.3,5.5-2.4,8.6-3.1.7-.2,1.1-.5,1.4-1.1.2-.3,0-.5-.3-.5-1.9-.1-3.8-.1-5.6,0-5.9.6-11.3,1.3-16.2,2.3-3.8.7-8.5,2-14.1,3.7-17.6,5.4-34.6,14.9-49.2,25.9-22.8,17.1-39,39.3-48.7,66.8-3.1,8.8-5,17.3-5.8,25.8-1.8,19.5-.1,38.5,5.2,57,4,13.9,9.8,25.8,17.7,35.9,2.5,3.2,5.4,5.9,7.9,9,1,1.2,2.1,2.4,3.3,3.4,5.3,4.8,10.3,9.9,15.8,14.4,6.7,5.5,13.6,11,19.7,16.8,9.9,9.5,19.2,19.8,27.8,31.1,0,.1,0,.2,0,.3,0,0,0,0,0,0,0,0-.2,0-.2,0-6-5.5-11.7-10.3-17.1-14.3-15.3-11.5-31.7-20.8-49.2-27.9-3.1-1.2-6.4-2.3-9.9-3.2-4.5-1.1-8.6-2.6-13.2-3.3-9.3-1.5-18.7-2.2-28.2-2.2-2.1,0-2.1.3-.1.9,4.3,1.2,8.7,1.4,13,2.4,16,3.7,30.4,9.6,45,16.9,19.6,9.9,36.9,22.6,52,38.2,4.3,4.5,8.7,9.7,13.2,15.8,4.2,5.6,7.9,11.3,11.1,17.1,8.2,14.9,14.1,30.5,17.8,46.9,1.6,7.1,2,15.1,2.7,22.5,0,.5.2.5.4,0,16.2-26.7,39.2-45,69-54.9,6.8-2.3,14.2-4.4,22.1-6.5,2-.5,4.2-.9,6.5-1.2,14.1-1.7,27.2-2,39.4-.8,9.8.9,20.2,3.2,31.4,6.7,13.3,4.3,26.6,11.4,39.9,21.4,4.9,3.7,9,7.3,12.2,10.9,8.2,9,14.8,19,19.8,29.8,5.5,11.9,10.3,23.3,11,36.7.4,8.4.4,16.5,0,24.2-.2,3.1-.6,6.1-1.3,9.1-.9,4.1-1.7,8.2-3.1,12-3.6,9.7-7.5,18.1-11.8,25.2-1.9,3.1-4.4,6.9-7.6,11.2-9.8,13.5-22.5,25.1-36.6,33.4-7.3,4.3-15.2,8.2-23.6,11.8-.1,0-.2.2-.2.4,0,0,0,.1.1.2,9.1,4.5,17.8,10.2,23.7,18.3,8.2,11.1,13.7,25.2,12.3,38.9-.3,3.2-1.3,6.6-3,10.1-.2.3-.4.6-.7.7l-1.5.8c-.4.2-.5.5-.4.9,1.7,6.3,1.9,11.7,2.2,18,.1,2.6,0,5.2-.1,7.8-.7,8.3-2,16.5-5.2,23.9-.2.3-.4.6-.7.8-.1,0-.3,0-.3-.1,0,0,0,0,0-.1.7-4.4,1.2-8.3,1.5-11.7,1.1-11.5,0-23.3-3.5-35.3-1.1-3.8-3.3-6.6-6.8-8.5-.4-.2-.6,0-.6.3-.3,2.1-.4,4-.3,5.7.6,9.4-.3,19-2.7,28.6-3.7,15.1-8.4,29.4-14.1,42.9-5.8,13.7-12.9,27.9-21.2,42.4-17.3,30.4-35.5,60.2-54.7,89.4-1.8,2.8-3.9,5.4-5.8,8.1,0,0,0,.2,0,.3,0,.1,0,.2.2.2,0,0,.2,0,.2,0,8.1-7.4,15.2-15.7,21.5-24.7,0-.1.2-.1.2,0l.2.3c0,.1,0,.3,0,.4-4.1,7.3-8.4,14.6-13.1,21.9-1.7,2.7-3.7,5.3-5.7,7.8-2.8,3.3-5.2,6.9-8.3,10-3.7,3.7-7.4,7.5-11.2,11.2-.3.3-.6.7-.7,1.1,0,.2,0,.4.2.5,0,0,.2,0,.3,0,1.1-.4,2.1-.9,3-1.5,10-6.3,19.7-13.9,28.9-22.7,3.2-3,5.9-6.5,8.8-9.7,1.2-1.3,2.3-2.6,3.4-4.1,5.1-6.6,10.9-13.3,15.5-19.8,2.5-3.5,5-7.1,7.5-10.6,0,0,.2-.1.3,0h0c.1,0,.1.2,0,.3-1.5,3-2.8,6-4.1,9-1.1,2.6-2.2,4.9-3.5,6.9-1.9,3-3.4,6.2-5.4,9.2-3,4.4-6.2,8.8-9.3,13.2,0,0,0,0,0,.1,0,.2,0,.3.2.4.1,0,.2,0,.3,0,5.5-5.2,10.5-10.9,15-17.2,8.1-11.5,15.3-23.9,21.5-37.3,2-4.3,3.9-8.6,5.7-12.9,0-.2.2-.2.4-.2h.4c0,.2.1.2,0,.3-1.8,7.3-3.9,14-6.4,20.2-4.8,11.8-9.8,22.6-17.1,33.2-9.5,13.8-21,27.5-34.1,38-4,3.2-7.2,5.7-9.6,7.5-4.8,3.7-10.3,6.9-16.5,9.9-.3.1-.5.5-.4.8v.4c.1.2.3.2.5.2,0,0,0,0,0,0,7.3-3.4,15.3-7,21.9-11.6,8.2-5.7,15.1-11.3,20.7-16.8,6-5.9,11.9-11.8,17.6-17.6,2.7-2.7,3-2.5.9.7-4.5,7-10.3,14.6-17.4,22.7-4.5,5.1-9.9,9.6-15.1,14-3.7,3.1-8.2,6.1-13.6,9.2,0,0,0,0,0,0v.2c.2.2.3.2.5.1,4.4-1.8,8-4.2,12.1-6.3,2-1.1,3.9-2.2,5.6-3.5,10.3-7.5,18.4-15.6,26.9-25.8,4.9-5.8,9.7-11.7,14.4-17.5,1.9-2.3,3.9-5.3,6.1-8.9,0-.1.2-.2.4-.1h.2c.1.2.2.3.1.4-7.8,18.9-19.3,35.5-34.3,49.7-1.2,1.1-2.6,2.3-4.4,3.4-.7.5-1.3,1.1-1.7,1.8-.3.5-.2.7.3.3,7.9-4.4,14.7-9.5,20.4-15.4,3.4-3.5,7-7.3,10.8-11.5,3.6-3.9,6.9-8,10-12.3.1-.2.3-.2.5,0,0,0,0,0,0,0l.2.3s0,0,0,.1c-2,2.6-4,5.5-6,8.7-.7,1.1-2,2.6-3.7,4.5-.2.3-.4.6-.4.9,0,.1,0,.2,0,.3.2.4.4.5.7.2,3.8-3.5,7.3-7,10.3-10.5,2.8-3.2,5.6-6.3,8.4-9.3,5.2-5.6,10.2-12.6,15.2-21,11.2-19,19.3-39.4,24.1-61.3,0-.3.3-.4.5-.5h.4c.2,0,.3,0,.3.3-.6,7.6-1.5,14.5-2.7,20.8-1.9,9.9-4.1,20.8-7.7,30.9-3.3,9.2-6.5,17.1-9.5,23.7-3.9,8.5-9.7,18.5-17.3,30-1.9,2.9-2.8,5.5-5.7,7.7-.2.2-.3.5-.1.8,0,0,0,0,0,0l.2.3c.1.1.2.1.4,0,2.7-1.7,4.4-2.8,5.1-3.5,2.4-2.4,4.8-4.6,7.3-6.8,2.8-2.5,5.2-4.8,7.1-7.1,3.5-4.1,7.3-7.9,10.8-12.2,6.5-7.9,12.9-17.2,19.3-28.1,10.7-18.3,18.3-37,22.8-56.2,1.5-6.3,2.2-13,3.1-19.4,0-.1,0-.2.2-.2,0,0,0,0,.1,0,.1,0,.2.1.2.2.4,11.1.3,20.7-.5,28.8-.9,9.4-3.1,19.3-6.5,29.7-4.6,13.8-11,25.6-19.3,38.8-.8,1.2-1.9,2.1-2.7,3.3-.3.4-.2.6.3.5.6,0,1.2-.3,1.7-.7,22.8-20.8,37.8-46.2,45-76.1.5-2.2.9-2.2,1.1,0,0,1.3,0,3-.3,5.3-.7,4.9-1.4,9.7-2.2,14.3-1,5.9-2.5,10.5-4.8,16-.2.6-.3,1.2-.2,1.8.1.6.3.6.6.1,11.3-19,17.3-39.8,18-62.5.3-8.3.2-15.9-1.5-24.4-.5-2.6-.2-2.7.9-.3,2.1,4.5,3.3,9.3,4.7,14.1,1.2,4.1,2.4,8.5,3.4,13.2,0,0,0,.1.1,0h.3c.3,0,.4-.3.4-.6-.4-2.9-.7-5.7-.9-8.6-.5-7.9-2.9-15.8-5.2-22.9,0,0,0-.2.1-.2,0,0,0,0,.1,0,.3,0,.5.3.7.5,2.7,4.8,5,9.5,6.9,14,2.8,6.6,4.7,14.6,5.8,23.9.8,7,1.1,13,1.1,18.1,0,1.4,0,2.8,0,4.2,0,.8.1.8.4,0,.3-1,.3-2.1,0-3.2,0-.2,0-.4.3-.4h.3c0,0,0,0,0,0,.5,3.2.7,6.1.5,8.7-.4,4.4-.8,8.6-1.4,12.5-.4,2.6.2,2.8,1.7.7,4.5-6.3,7-11.8,10.6-20.3,2.2-5.1,3.8-10,4.9-14.7,1.5-6.6,2.4-12.4,2.8-17.5.9-14.6.8-27.5-3-41.1-.8-2.7-2.2-6.8-4.4-12.4-4.5-11.8-11-22.3-19.2-31.7-1.3-1.5-2.8-2.7-4.1-4.2-.2-.2-.2-.4.1-.6.2,0,.3,0,.5,0,9.6,7.3,18.1,16.8,23.7,27.5,5.3,10,9.2,19.5,11.7,28.4,1.2,4.2,1.7,8.7,2.6,13.1.5,2.4,1,2.4,1.5,0,.5-2.3.7-4.6.5-7.1-2.3-31.6-17.5-60.2-44.1-77.6-1.2-.8-2.7-1.3-3.8-2.3-.6-.5-.5-.7.3-.5,12.7,3.9,23.7,10.9,32.7,20.9,10.6,11.6,19,24.4,25.2,38.4,2,4.5,4.1,8.8,5.8,13.3,2.9,8,4.9,16.1,5.9,24.3.1,1.1.3,1.1.6,0,.7-3.3,1.9-6.5,2.1-9.9.5-7.9.5-15.8,0-23.6-.2-3.4-.8-6.6-1.7-9.7-3.7-12.7-8.6-24.8-18.1-34.2-11.7-11.6-25.4-20.1-41-25.4-.2,0-.3-.2-.3-.5v-.3c0,0,0,0,.1,0,2.6.3,5,.6,7.3,1,2.3.4,4.6,1,7,1.7,14,4.2,27.1,11.7,39.5,22.6,5.2,4.6,9.9,9,14.1,13.3.3.3.4.2.4-.2,0-.6-.2-1.2-.6-1.7-2.4-3.5-4.9-7-7.3-10.4-3.7-5.2-8.1-9.5-12.5-13.9-.6-.6-.5-.7.2-.3,15.9,8.6,27.7,21.2,35.5,38,.2.5.6.8,1.2,1h.3c.2.1.3,0,.4-.2,0,0,0-.1,0-.2-.9-2.8-1.7-5.5-2.3-8.2-.6-2.7-1.5-5.3-2.6-7.9-3-6.8-6.3-12.6-10-17.6-4.5-5.9-10.7-12-18.8-18.4,0,0-.1-.2,0-.3l.2-.2s0,0,.1,0c5.7,3.4,10.3,6.4,13.6,9.1,5,4.1,10.1,8.6,15.4,13.6,2.1,2,3.4,4.6,5.9,6.2.2.1.4,0,.5-.1,0,0,0-.1,0-.2,0-.5-.2-.9-.5-1.3-1.3-1.2-2.3-2.3-3-3.5-1.3-2.1-2.1-3.4-2.5-3.9-13.4-16.9-29.6-29.9-48.6-39.3-.6-.3-2.1-.8-4.6-1.5-.1,0-.2-.1-.1-.3,0-.1.1-.2.2-.1,21,1.7,39.3,11.3,57.4,21.5,4.6,2.6,9.4,4.8,14.1,7,1.1.5,1.3.3.6-.7-.5-.7-1.3-1.6-2.3-2.4-5.4-4.5-10.7-9-15.8-13.5-8.6-7.5-18-14-28.2-19.6-4.4-2.4-8.6-4.3-12.4-5.6,0,0-.2-.1-.1-.2,0,0,0,0,0,0v-.2c.2-.3.5-.4.8-.4,8.6,1.4,14.8,2.9,18.8,4.4,21.8,8.3,40.9,20.9,57.3,37.7.9,1,1.2.8.9-.5-.6-2.3-1.2-4.7-1.7-7.1-.5-2.2-1.1-4.5-1.9-6.9-6.5-19.5-18.2-35-35.2-46.4-10.8-7.3-22.7-13.8-35.5-19.5-6.8-3-13.2-5.3-19.3-6.9-.2,0-.3-.3-.3-.5,0,0,0,0,0,0l.2-.4c0-.2.3-.2.4-.2,16.8,1.6,32.5,6.7,47.3,15.3,2,1.2,3.4,2.6,5.3,3.8,1.2.8,1.4.6.6-.6-.7-1-1.6-1.9-2.7-2.7-3.1-2.3-5.7-5-8.7-7.5-17.6-14.9-34.7-30.4-44.6-50.8-2.2-4.5-4.4-9-6.7-13.4-.1-.2,0-.4.2-.6.2,0,.4,0,.6.2,9.6,12.7,22.1,22.5,37.6,29.4,3.5,1.5,7.2,2.8,11.3,3.9,3.8,1,7.8,2.3,12.2,3.9.4.2.9.1,1.3-.1.1,0,0-.2,0-.3,0,0-.1-.1-.2-.1-11.1-6.5-20.5-14-28.1-22.2-7.1-7.7-15.2-17.3-24.3-28.6-4.1-5.1-8.9-9.9-13.2-15.1-.8-1-.7-1.2.4-.5,2.7,1.7,5.3,3.5,7.8,5.5,13.6,10.6,23.4,18.9,29.7,24.9,4.8,4.6,10,9.1,15.7,13.3,6.4,4.8,12.3,8,17.7,9.7,6.9,2.2,13.6,3.3,20.2,3.3,2.7,0,5.2-.6,7.5-1.8.3-.2.6-.2,1,0l.8.3c.3,0,.5,0,.5-.3v-.4c.1-.3,0-.4-.3-.5-2-.4-3.8-.6-5.7-1.3-14.9-5.6-28.2-13.7-40-24.4-3.6-3.3-7.3-6.7-11-10.2-.9-.8-1.7-1.4-2.5-1.6-.9-.3-1,0-.4.6.7.8,1.4,1.3,1.9,2.3,4.1,7.4,9.5,13.1,15.3,19.2,0,.1,0,.2,0,.3l-.2.2s0,0,0,0c-3.2-2.8-7.1-5.1-10-7.8-12.5-11.9-22.8-26.1-34.7-38.6-14.3-15.1-29-29-43.9-41.6-2.8-2.4-6.6-5.1-11.3-8.1-.1,0-.1-.2,0-.3v-.2c.3-.2.6-.3.8-.2,4.2,2.4,8.4,4.6,12.3,6.8,4.1,2.2,8.1,4.5,12.1,7,7.9,4.9,15.9,9.9,23.9,15.1,4.1,2.7,8.2,5,12.4,7,1.3.6,1.5.4.4-.6-1-1-2.2-2.1-3.6-3.3-9.2-7.8-18.5-16-28.1-24.7-3.6-3.3-9.2-7.6-16.7-12.9-9.2-6.6-18.4-13.1-27.6-19.7-4.8-3.5-9.6-7.4-14.6-10.7-3.9-2.6-7.5-5.1-11-7.5-.1,0-.2-.2,0-.4v-.2c.2,0,.2,0,.2,0,2.5,1.5,5.1,2.9,7.7,4.2,5.2,2.7,10.1,5.8,15.1,8.8,8.7,5,17.6,11.4,26.8,19,1.3,1.1,2.3,2.4,3.7,3.4.2.2.4.1.5,0l.2-.2s0,0,0,0c-2-1.5-2.7-3.5-4.3-5.2-3.7-4-7-7.2-10.1-9.8-11-9.1-22.9-17.5-35.8-25.3-.5-.3-.9-.5-1.4-.7-1-.3-1.5-.5-1.5-.5-2.5-1.7-2.3-2.2.6-1.3,4.7,1.4,9.5,2.8,14.2,4.1,7.8,2.2,13.1,4.1,15.9,5.6,4.3,2.2,8.4,4.4,12.2,6.5.9.5,1.1.3.5-.6-1.1-1.8-3-2.5-4.5-3.9-1.8-1.7-3.6-3.3-5.5-4.8-11.2-8.8-22.8-15.6-34.8-20.5-8.4-3.4-15.9-7.7-24.2-11-.6-.3-.6-.5,0-.7.6-.2,1.2-.3,2-.3,6.6,0,13.3,1.1,20,3.4.2,0,.4,0,.4-.2v-.3c0-.3-.1-.6-.4-.7-3.9-1.7-7.8-3.4-11.9-5.1-7-2.9-14.4-4.7-21.6-7.2-6.6-2.3-13.9-3.2-20.6-5.6-1.2-.4-1.1-.6.1-.7,5.5-.1,11.5,0,17.7.4,1.3,0,2.6.2,3.7.5,1,.2,1.1,0,.2-.5-3.1-1.9-6.5-3.4-10.2-4.4-7.1-1.9-14-3-20.7-3.1-9.3-.1-18.3-.9-27.5-1.5,0,0,0,0,0-.1,0,0,0,0,0,0,6.3-2.3,12.1-4.9,18.6-6.6,4.8-1.3,9.3-2.7,14.3-3.4,6-.8,12-1.8,18-1.8,3,0,5.8-.2,8.5-.4ZM754.4,269c1.9.9,3.9,1.7,5.7,2.7,7.8,4.5,15.6,8.7,23.4,13.2,5.5,3.2,10.8,6.3,16.1,9.2,4.3,2.4,9.7,5.5,16.1,9.2,14.7,8.6,27.5,15.3,38.5,20.3,13.5,6.1,29,10.7,46.6,13.8,2.7.5,5.3.5,7.9.9,2,.3,4,.4,5.9.2,5.7-.5,11.1-1.2,16.2-3.8,2.4-1.2,4.7-2.4,6.9-3.5.8-.4,1.2-1,1.4-1.8,0-.4,0-.5-.4-.5-8.6,1.4-16.5.6-23.9-2.3-9.1-3.6-16.9-8.5-23.5-14.6-3.5-3.2-6.7-6.4-9.6-9.6-7-7.7-14-15.5-21-23.5-6.6-7.6-13.2-14.5-19.8-20.7-18.1-17-37.8-29.6-60.4-37.5-26.2-9.2-53.1-12-80.6-8.4-13.5,1.7-26.4,5.1-38.6,10.1-6.2,2.5-12.8,5.6-19.8,9.2-10.5,5.4-20.3,11.8-29.6,19.5-7.6,6.3-12.9,11-15.8,14.1-3.5,3.7-7.1,8.3-10.9,13.7-.3.4-.4.7-.5.9-.2,1.2.2,1.5,1.2.7,2.7-2.2,4.8-4.9,7.7-6.9,9.8-6.9,18.8-11.9,27.1-15,33-12.4,66.1-13.6,99.4-3.6,4.9,1.5,10.8,3.7,17.6,6.5,5.9,2.5,11.5,5,16.8,7.7ZM399.6,371.3c-3.5,2.6-3.7,2.3-.7-.8.9-.9,1.2-2,1-3.3-.3-2.3-2.4-4.4-3.4-6.5-.2-.3-.2-.7,0-1l.9-2.1c.5-1.1,0-2.3-.9-2.9-4.2-2.4-8.6-4.2-13.2-5.3-1.1-.3-2.4,0-3.4-.4-.4-.1-.5-.4-.5-.8.3-10.7-4.2-16.9-9.6-25.4-.2-.3-.5-.6-.9-.6-4.6-1.1-9.3-1.4-14.2-1.1-8.6.6-17.1,1.1-25.4,1.5-1.2,0-2.4.2-3.5.3-3.2.5-6.4.7-9.6,1.4-16.2,3.6-31.8,8.8-46.7,15.5-3.5,1.5-7,3.4-10.6,5.6-1.5.9-2.6,2-3.2,3.3-.9,1.9-1.9,3.9-2.9,5.8-.8,1.5-.4,2.8,1.1,3.8,2.4,1.6,4.7,2.9,6.7,3.9.1,0,.2.2,0,.3l-.4.3c-.1,0-.2.1-.4,0-3.4-1-6.7-2.2-9.8-3.6-1.1-.5-1.7-1.8-1.4-3l1.6-6c.2-.9,0-1.1-.7-.5-1.8,1.4-3.4,2.9-5.3,4.1-5.3,3.4-11.8,7.9-15.9,12.9-1,1.2-2.2,1.9-3.4,2.9-.3.2-.4.5-.3.9.9,2.6,2.2,4.8,4.1,6.5.5.4.5,1.2,0,1.7-3,3.3-4.9,7.4-5.7,12.4-.1.9-.2,1.8,0,2.7,0,.7.4,1.3.9,1.8,2.9,2.8,5.7,5.2,8.4,7.4.3.2.3.6,0,.8,0,0-.2.2-.3.2l-1.7.4c-.4,0-.6.3-.8.6-1.6,2.6-4.2,7.2-.8,9.3,3.4,2.1,6.6,4.2,8.8,7.5.9,1.3,1.8,2.5,2.9,3.7.1.1.1.2,0,.3h0c-.1.1-.2.1-.3,0-2.9-2.3-5.8-4.9-9.3-6.4-2.6-1.1-6.6-3.8-9.2-2.1-4.8,3.1-9.6,5.5-14.6,7.2-.4.1-.6,0-.6-.4,0-1.4-.5-2.9-1.3-4-2.2-3-4.2-6.1-6-9.3,0-.1,0-.3.1-.4,0,0,0,0,.1,0,.4,0,.8,0,1.2.3.5.3,1,.8,1.3,1.3,1.7,3,3.7,5.7,6.1,8.1.6.6,1.4.7,2.2.4,2.9-1.2,11-4.9,11.9-8.2.9-3.1,1.7-6.3,2.6-9.4.1-.4,0-.8-.3-1-1.2-1.2-2.7-2.1-4.5-2.9-.4-.2-.7-.4-.9-.7-1.1-1.7-1.4-3.6-1.1-5.7.5-3.7,1.2-7.4,2-11.3.6-2.8-.8-4.9-2.7-6.9-.2-.2-.5-.2-.7,0-.7.6-1,1.6-1.7,2.3-2.9,3-5.9,6.1-9,9.2-1.5,1.6-2.4,3.7-4.2,5-.5.4-.6.3-.4-.3,1.6-3.3,3.8-6.8,6.5-10.5,17.6-24.1,42.8-42.7,70.2-53.1,7.5-2.9,15.5-5.2,23.5-7.3,8-2.2,16.8-3.3,25.3-3.6,9.5-.3,19.1-.2,28.8.2,2.3.1,4.6.3,6.8.7,3.9.6,7.9,1,11.7,2.2,1.4.4,2.8.8,4.2,1,3,.5,6,1.3,9,2.4.6.2.6.4,0,.5-.9.2-1.9.3-2.9,0-3.7-.6-7.4-1.1-11-1.5-.2,0-.3.1-.4.3,0,0,0,.1,0,.2,2.1,3.2,4.2,6.5,6.1,9.9,2.1,3.8,3.1,7.8,3.6,12.1.1,1.2,1,2.2,2.2,2.6,5,1.5,9.6,4,13.9,7.3.3.2.4.5.6.8.2.3.4.3.7.2,1.9-.7,3.2-1.7,3.9-3.2,1.7-3.8,2.8-8.7,3.3-14.5.3-3.2,1.3-6.6,4.6-8,.6-.3.9-1,.6-1.6-.1-.2-.3-.4-.5-.6-15.4-8.7-31.6-14.5-48.7-17.2-12.2-2-25.2-1.7-37.6-1.4-9.8.3-20.4,2-29.7,4.8-12.6,3.8-25.6,8.2-37.1,14.5-28.8,15.6-51.9,38-69.3,67.2-6.1,10.3-11.7,22.2-16.8,35.8-4.2,11.2-7.2,22.2-9.1,32.9-1.1,6.2-1.7,13.2-1.9,20.8-.2,13.1,0,24.3.6,33.6.5,7.3,1.8,15.8,4,25.5,6.3,28.2,18.5,52.4,36.7,72.8,4.6,5.2,10.7,10.6,18.2,16.1,9.6,7,20.5,11.9,31.6,16.4.1,0,.3,0,.4-.1,0,0,0-.1,0-.2-.1-.5-.4-.8-.7-1.1-6.8-4.7-13.4-9.4-19.7-13.9-6.6-4.8-12.1-9.1-16.3-12.9-13.3-12.1-23.8-26.5-31.7-43.4-3.8-8.2-6.6-15.8-8.4-22.7-1.3-5.1-2.5-10.8-3.4-17.2-.2-1,.2-1.3,1.2-.9,3.1,1.6,6.5,2.8,10.2,3.8.6.2,1.3-.1,1.6-.7l4.5-9.7c.2-.4.3-.9.2-1.3-.8-6-1.4-12-1.9-17.9-.5-6.1.8-12,3.8-17.7.7-1.3,1.2-2.7,1.5-4.2.1-.5.4-.8,1-.7l10,1.9c1.1.2,1.1.4,0,.7-1.8.4-3.9.4-6,0-1.6-.3-2.8,0-3.4,1.1-1.2,2-2.7,5-4.4,8.9-.9,2-1.3,3.8-1.3,5.5,0,5.3,1.2,10.8,2.5,15.9.7,2.8.3,5.7,2.2,8.2.2.3.6.3.8.1,0,0,0,0,0,0,4-3.7,8.4-6.8,13.1-9.3,1.9-1,3.2-2.5,3.8-4.4,1.3-4,2.7-8.1,4-12.3.9-2.6,2.7-3.7,5.5-3.1,2.9.6,5.9,1.3,8.7,2.2,2.6.7,2.6,1.1-.2,1.1h-8.9c-1.1,0-1.8.4-2.1,1.4l-4.9,16.6c-.3,1.1.2,2.2,1.2,2.7,4,2,8.1,4,12.3,6.1,1.3.7,2.3,1.6,3.4,2.6.4.4.7.3,1-.1l8.2-13.2c.7-1.2,2.1-1.7,3.4-1.4,6.9,1.7,13.8,3.7,20.6,5.8,2.5.8,3.2-1.9,4.8-2.9.5-.3.6-.2.3.3-.7,1.2-1.4,2.4-2.2,3.4-.2.3-.5.4-.9.5-2.7.2-5.4,0-8.2-.6-3.4-.8-7-1.6-11-2.3-2.4-.5-4.2.3-5.3,2.4-2.2,4.2-4.9,8.3-8.1,12.2-.5.6-1,.7-1.6.3-.6-.4-1-1-1.8-1.3-6.5-2.8-12.9-5.8-20-7.2-1.1-.2-2.4,0-3.3.8-3.3,2.7-6.9,5.5-10.9,8.6-1.9,1.4-3.3,3.1-4.2,4.9-.5.9-.1,2,.7,2.6,1.9,1.2,4,2.2,6.1,3.1,5.9,2.4,11.2,4.9,16.1,7.6,3.2,1.7,6.5,4,10,6.8.2.1.2.3,0,.4l-.2.2s0,0,0,0c-3.1-2.5-6.4-4.5-10.2-5.9-3.1-1.2-6.2-2.6-9.6-3.2-5.5-1.1-11.5-2-16.9-4-2.2-.8-4.5-1.3-6.9-1.3-.5,0-.9.4-.9.8,0,0,0,.2,0,.3,4.1,14.2,10.6,27.5,19.5,39.7,4.6,6.4,10.1,12.9,16.3,19.4,3.8,4,8,7.7,12.7,11.2,1.1.8,1.9.6,2.4-.6.8-1.9,1.8-3.9,2.8-5.9,1.8-3.6,4.6-3.1,7.8-3.3,1.5,0,2.2-.8,2.4-2.3l.7-8.1c0-.1,0-.2,0-.2h.3c.2,0,.4.2.4.4v10.9c.1.8.7,1.4,1.5,1.4h7.8c.9,0,1.7-.6,1.9-1.5l1.5-7.7c0-.4.2-.4.5,0,.3.4.4.9.4,1.5-.1,3-.1,5.8,0,8.5,0,1.9,1,3.6,1.9,5.3.7,1.5.4,1.7-.9.7-1.4-1.1-2.5-2.4-3.2-3.9-.2-.4-.5-.6-.9-.6-2.5-.3-4.1-1.1-6.8-.5-2.6.5-8-.7-9.6,1.8-1.4,2.2-3.7,7.6-3.3,10.8,0,.3.2.6.4.8,4.3,3.6,8.2,7.8,12.8,11.2,5.1,3.7,10.4,7.4,15.8,10.8,3.5,2.2,6.8,2.3,10.5,3.2.5.1.6,0,.5-.5-1.2-3.2-2.6-6.5-4-10-1.7-3.9-1.9-7.9-2.9-12,0-.4,0-.7.4-.8.7-.3,1.4-.6,2.2-.9,3.4-1.4,6.9-3.2,10.6-5.4,3.2-1.9,6.7-3.4,9.9-5.6.8-.6,1.1-1.6.8-2.5-1-2.9-1.3-5.8-.9-8.7,0,0,0-.2.2-.2,0,0,0,0,.1,0,.2,0,.3.1.3.3.7,4.2,1.8,8.2,3.3,11.8.1.3,0,.5-.2.6-6.3,3.9-12.6,7.4-18.7,10.5-1.3.7-2.6.8-3.9,1.4-.4.2-.6.5-.5.9,1.4,5.9,3.1,11.8,4.9,17.7.8,2.6,1.9,4.1,3.3,4.4.7.2,2.4.3,5.1.4,3.7.1,7.6.2,11.5.3,6.4.1,12.4,1,18.9,0,1.7-.2,3.1-.7,4.2-1.5,1.2-.8,2.5-1.5,3.8-2.1,6.5-2.8,12.8-5.2,18.9-7.4,9.3-3.3,18.2-6.9,27.4-10,4.8-1.6,9.6-3.4,14.5-5.2,5-1.9,9.9-3.6,14.6-5.2,1.5-.5,2.6-1.5,3.2-3,2.1-4.9,4.4-10.2,6.8-15.7,3.4-7.8,8.2-15.6,14.5-23.4,9.3-11.7,27.1-17.7,41.5-18.2,5.1-.2,10.4.5,15.9,2,1,.3,2-.3,2.2-1.3,0,0,0,0,0,0,.9-3.5,1.6-6.9,3.3-10.1,1.3-2.3,2.4-4.8,3.3-7.5.5-1.5.7-2.9.6-4.3-.8-7.8-1.9-15.7-3.2-23.9,0-.4-.5-.7-.9-.6,0,0,0,0,0,0-4.3.8-8.5,2-12.4,3.5-.6.2-1.3.1-1.8-.3-1.3-1.2-2.4-2.5-3.4-3.9-4.2-5.9-7.9-11.9-11.2-17.9-.5-1-1.3-1.5-2.4-1.5-10-.1-20.2,0-30.4.5-.2,0-.3,0-.3-.3v-.4c0,0,0-.2.1-.2,8.6-1.8,17.2-3.1,25.7-4,1.6-.2,3.1-.6,4.7-.9.5,0,.9-.5,1.1-1,.9-3.2,1.2-6.5.8-10-.3-2.9-.7-5.9-1-8.9,0,0,0,0,0,0h.3c.2,0,.3,0,.4.2.8,3.9,1.4,7.8,1.6,11.8.2,3.6,1.2,6.7,2.9,9.5,3.9,6.2,8.3,12.7,13,19.3.3.5.8.7,1.4.6,3.9-.8,7.5-2.5,11.6-2.7.7,0,1.2-.6,1.2-1.2-.1-8.1,1.3-16.3,3.1-24.3,1.4-6.4,3.9-13,8-17.5,2.3-2.5,2.8-6.2,2.3-9.5-.6-4.1-1.3-7.8-1.9-11.1-2-10.7-5.4-20.8-10.4-30.4-.4-.8-1.1-1.3-1.9-1.4-6.9-1.3-13.8-4.3-20.6-9-.8-.5-1.4-.4-1.8.4l-10.5,19.7c-.4.7-1.2,1.2-2,1.2l-12.5-.2c-.7,0-1.4.4-1.7,1.1-.8,2-1.8,3.9-3.2,5.9-2.9,4.5-5.8,8.7-8.6,12.7-.2.3-.5.4-.7.1-.1-.1-.1-.3,0-.5l8.4-18.4c.5-1.1,0-2.4-1-2.9-1.2-.6-2.5-1.4-3.8-2.2-2.9-2-7-3.8-10.7-3.9-1.7,0-3.5-.2-5.4-.4-1.3-.2-1.3-.3,0-.5,2.7-.4,5.4-.4,8.2,0,4.2.6,8.8,3.7,12.9,5.7.3.2.6.2,1,.2,1.2-.1,2.2-1.3,3.6-1.7,2.6-.7,5.3-1.1,8.2-1.3.5,0,.9-.5.8-1,0-.2-.1-.5-.3-.6-3.4-2.9-6.4-6.4-9.1-10.3,0,0,0,0,0,0l.2-.2c.1,0,.2,0,.3,0,3.4,3.3,6.4,6.6,9,10.2.3.5.6,1,.7,1.5.1.5.3.6.6,0,3.1-5.2,5.7-11,8-17.4.5-1.4,1.1-2.8,1.9-4.2.4-.7,1.1-1,1.9-.8,7.6,2,15.2,4.8,22.6,8.7.4.2.8,0,1-.3,0-.2.1-.4,0-.6-2.4-8.4-7.3-16.1-12.2-23.4-13.1-19.7-29.4-35.9-49.2-48.8-2.3-1.5-4.9-2.7-7.3-3.9-.9-.4-2.1,0-2.5.9,0,.2-.1.3-.2.5l-4,23c0,.5-.5.9-.9,1-3.2.9-6.3,2.1-9.2,3.5-.4.2-.5.6-.4,1l2.9,7.1c.2.4,0,.9-.4,1.2-1.1.8-2.2,1.5-3.2,2.3ZM649.1,567.3c0-.1,0-.2.1-.3,6.5-3,12.9-6.3,19.1-10,.2-.1.3-.4.3-.7l-5.3-16.2c-.1-.4-.4-.7-.8-.9-3.5-1.4-6.8-2.3-9.9-2.7-2.2-.2-3.7-1.4-4.4-3.6-1.3-4-2.5-7.8-3.7-11.5-.7-2.3-.5-2.4.8-.4,1.9,3.1,3.7,6.4,5.6,9.9.5,1,1.5,1.7,2.5,2.1l9.5,2.7c.6.2,1.3-.2,1.5-.8,0,0,0,0,0-.1.4-2,.2-4.1-.4-6.1,0,0,0,0,0,0h.2c.1-.1.2,0,.2,0,1.3,3.1.8,6.1,2.1,9.1,2,4.8,4.3,9.7,6.9,14.7,1.7,3.3,4.6,5.8,8.3,6.2,1.4.1,2.7.4,3.8.7,1.1.4,2.3-.2,2.7-1.3,0,0,0,0,0,0,.5-1.5.8-3.7,2.1-4.8.2-.2.6-.2.8,0,0,0,0,.1.1.2,1.2,4.2,2.9,7.5,5.3,9.9,2.1,2.2,6.3,5.2,12.5,9.1,1.1.7,2.1.5,3-.4,4.5-4.7,8.8-9.5,12.8-14.7,9.5-12.1,15.9-28.1,17.9-42.6,3.3-23.6-.7-46.1-11.9-67.5-9.5-18.2-25.5-33.3-43.1-43.9-6.5-3.9-13.5-6.9-20.9-9.1-7.2-2.1-13.5-3.4-18.8-3.9-11-1.1-22.5-.8-34.4.7-10.4,1.4-21.1,4.9-31,8.7-23.5,9.1-45.6,25.1-59.2,46.4-7.1,11.1-12.2,21.2-15.2,30.4-6.3,18.9-7.8,38.8-4.5,59.5,1.4,9,4.2,18,8.4,27.1,4.2,9.1,9.9,17.3,17,24.6,3.8,3.9,8.8,7.5,15,10.7,5.5,2.9,12.6,4.1,18.8,4.8,10.4,1.1,21.5,1.2,31.9-.2,9.5-1.3,18.8-2.7,28.4-2.9,8.9-.2,17.9,0,26.8.5,1.7.1,4,.4,6.8.9,3.2.6,5.4.2,8.3-.8,8.7-3,17.2-6.9,25.5-11.8,5.9-3.5,10-5.9,13.9-10.5.5-.5.4-1.4-.2-1.8,0,0-.1,0-.2-.1-2.8-1.6-5.6-3.1-8.3-4.4-2.7-1.3-4.9-3.1-7.3-4.9-.8-.6-1.4-.4-1.9.4-1.5,2.5-3.6,4.6-6.3,6.4-1.9,1.3-4.9,3-9,5.2,0,0,0,0,0,0l-.2-.3c0-.1,0-.2,0-.3,5.2-3.5,9.8-7.5,13.7-12.1,1.1-1.2.8-1.6-.8-1.2-5.1,1.4-10.7-1.9-15.2-4.2-.3-.2-.7-.2-1-.1-1.9.4-3.9.8-5.7,1.5-4.2,1.7-8.5,3.4-12.9,5.1,0,0,0,0,0,0v-.3ZM135.6,502c.1-.7,0-.8-.4-.2-.8,1.2-1.8,2.5-3,3.7-.6.6-.5.9.4.7,1.5-.3,2.6-1.8,3.1-4.2ZM140.8,551.6c.1.6,0,1.1,0,1.6-2.6,8.2-7,14.9-12.3,22.6-3.3,4.7-7.3,8.4-11.2,12.4,0,0,0,.2,0,.3l.2.2c.2.3.5.3.8,0,4.7-3.4,9.2-6.9,13.5-10.4,4.4-3.6,7.7-8.2,11.4-12.5.3-.4.6-.3.7.2v.5c.2.4.1.8-.1,1.1-2.7,4.4-5.3,9.5-7.9,15.3-4.1,9.1-10.3,19-18.6,29.8-1.9,2.4-4.5,3.7-6.6,5.8-1.1,1.2-.9,1.6.7,1.3.1,0,.6-.3,1.4-.8,10.2-6.3,18-13.8,26.8-23.1,4.3-4.5,7.9-9.5,11.5-14.5.5-.7.6-1.6.4-2.4-.7-2.2-1.1-4.4-1.9-6.5-1.8-4.8-3.5-9.7-5-14.8-1.6-5.5-1.9-10.8-3.5-16-1.1-3.7-.7-6.7-.9-10.3,0-.4-.2-.7-.5-.9-.2-.2-.4-.1-.6,0-5.2,7.3-9.2,13.4-14.5,22.2-7,11.5-14,21-21.1,28.5-4.4,4.7-9.2,8.6-14.3,11.8-1.4.8-1.3,1.1.3.6,8.2-2.3,16.8-5.5,23.5-11,4.2-3.4,8.4-7,12.1-11.1,5.6-6.3,11.4-12.7,15.3-20.1.4-.7.7-.7.8.1ZM505.3,575.7c-2.5-4.4-5.3-7.9-6.8-12.9-.3-.9-.7-1.6-1.2-2.3-.2-.2-.5-.3-.8,0,0,0-.2.2-.2.3-.5,2.6-1.3,5-2.4,7.1-.3.5-.1,1.2.4,1.5,3.4,2.2,6.8,4.6,10,7.1,1.8,1.4,2.1,1.1,1-.9ZM547,667.9c13.6-6.8,27.9-12.3,42.3-16.8,3.9-1.2,7.9-2.1,11.8-3.3,1.1-.3,1.1-.5,0-.6-4.4-.2-8.7-.5-13-.7-12.3-.8-23.8-3.8-34.5-9.2-5.5-2.8-11.3-6.6-17.3-11.4-6-4.9-11.2-9.5-15.5-14-13-13.7-27.2-28.3-46.1-31.9-19.2-3.7-35.6,6.7-45.2,23-3.8,6.4-6.8,12.6-8.9,18.4-2.5,6.7-4.9,12.9-7.3,18.6-5.8,13.9-15.3,25.4-28.7,34.4-5.8,3.9-11.9,7.2-18.1,9.9-.9.4-.9.7,0,.9.6.1,1.2.2,1.7.2,27.1-.1,52.4,6.1,76.1,18.6,12.1,6.4,24.3,15.8,36.1,23.7,1.3.9,2.7,1.6,4.2,2.1.3.1.6,0,.9-.2,1-1,1.9-1.8,2.7-3,4.3-6.8,8.4-13,12.2-18.7,5.7-8.3,13.3-17.4,21.5-23.7,9.1-7,17.4-12.4,25.1-16.2ZM297.2,780.4c-2.7-4-4.9-8.1-6.2-12.8-1.8-6.4-3.2-12.9-4.2-19.6,0-.5-.3-.8-.8-.9-4.2-.9-6.8-1.7-9.4-5.2-7.7-10.3-8.1-23.9-5.3-36,1.4-5.9,4.4-10.9,7-16.3.1-.3,0-.7-.3-.8-.1,0-.2,0-.4,0-2.7.5-5.4,1-8.2,1.5-20.1,4.2-39.6,2.7-58.4-4.5-11.2-4.3-21.8-11.4-31.1-19.1-1.2-1-2.3-2.1-3.3-3.3-.8-.9-.6-1,.4-.4,10.6,6.7,22,12.4,34,17.1.4.2.6,0,.5-.4,0-.2-.2-.4-.4-.6-3.1-2.1-6.1-4.2-8.9-6.1-7.6-5.3-13.9-10.6-19.6-17.6-4.1-4.9-7.6-9.6-10.4-14-1.8-2.7-1.5-2.9.7-.6,4.9,5,9.9,10.1,15.4,14.2,25,18.4,54.3,29.3,85.2,27.2,3.5-.2,7.1-.9,10.8-1.9,3.5-1,5.6-4.1,8.6-6.1.3-.2.3-.5.2-.7,0-.1-.2-.2-.4-.2-2-.4-4.1-.5-6.3-.2-3.3.4-6.6.5-9.9.4-19.3-.7-37.7-5.3-55.3-13.9-17.7-8.6-33.6-22.1-45.2-37.6-8.6-11.5-16-23.6-22.1-36.4-.1-.2-.4-.3-.6-.2,0,0-.2.1-.2.2-2.2,4.1-3.9,8.4-6.8,12.1-5.4,6.9-11.8,13.2-19,19-2.7,2.1-2.4,2.5.7,1.3,3-1.2,6.2-2.5,9.7-3.9,5-2,11.8-3.7,20.3-5.3.3,0,.6,0,.8.3.2.2.2.4,0,.6,0,0,0,0-.1,0-7.1,3.7-14.2,8.2-21,13.4-10.6,8-20.9,17.1-30.9,27.3-1.1,1.2-1.9,2.4-2.9,3.7-.2.3-.5.6-.8.8l-1.5,1.2c-.3.2-.3.6,0,.8,0,0,0,0,.2.1.6.4,1.2.4,1.8,0,13.9-7.7,28.8-14,44.5-18.7,3.7-1.1,7.3-2.3,10.7-3.4,2.5-.8,2.7-.5.5,1-4,2.8-7.9,5.7-11.6,8.7-3.7,3.1-8.3,7.1-13.6,12.2-12.8,12.3-22.7,26.1-30.1,42.5-2.3,5.1-4.4,11.7-6.3,19.7-.2,1-.4,2.1-.4,3.2s.2.9.6.2c2-3.4,4.1-7.1,6.5-11.3,3.1-5.4,6.6-10.6,10.6-15.9.7-.9,1.5-1.7,2.4-2.4.4-.3.6-.2.4.3-.4,1.1-.9,2.1-1.4,3.1-2.6,4.2-5.1,8.2-7.5,11.9-1,1.6-1.5,3.5-2,5.3-.2.9,0,1,.7.5,1.1-.8,1.2-2.7,2-3.9,4.9-7.4,9.4-13.2,13.4-17.5,3.8-4.1,8.2-8.5,13.2-13.2.3-.3.6-.4,1-.2.4.1.5.3.2.7-2.6,3.9-5.4,7.7-7.5,11.9-6.1,12.4-10.4,25.4-12.8,39,0,.2,0,.3.2.3,0,0,.1,0,.2,0,.3-.2.6-.4.8-.7,4.7-7.4,9.8-14.6,15.5-21.5,3-3.6,6.1-6.6,9.5-8.8,1.8-1.2,2-1,.6.7-4.4,5.1-8,11.3-11.8,16.4-.2.3-.3.7-.2,1v.4c.2.6.5.7.9.2,5.4-6.9,11-13.1,16.9-18.5,1.2-1.1,2.4-2,3.7-2.8.9-.5,1.1-.3.6.6-1.4,2.4-2.7,5.1-3.9,8-2.4,5.7-4.6,11.1-6.5,16.1-2.5,6.4-4.1,13.8-4.9,22.3,0,.1,0,.2.2.2h.5c.1.1.2,0,.2,0,1.9-6.9,4.2-13,6.7-18.2,3.6-7.6,8.8-15.6,15.6-24.2,2.1-2.7,4.3-5.4,6.4-8.2.1-.2.3-.2.4,0l.2.2c0,0,.1.1,0,.2-2.8,4.6-5.3,9-7.7,13.4-2.9,5.5-6.2,13.1-9.7,22.9-7.1,19.5-10.7,41.3-9.2,62.2,1.5,19.9,7.2,38.4,17.2,55.7.6,1,.7.9.5-.2-.6-3.5-.7-7.3-.4-11.3.9-9.6,1.3-19.5,3.5-28.7.2-1,.4-1,.5,0l.4,4.7c0,.5.2.6.6.2,1.9-2.5.6-5.7,1-8.5,1.2-8.6,1.9-14.3,2.2-17.1.7-6.3,2.1-12.5,4.3-18.5,0-.2.3-.3.5-.2.2.1.2.3.2.5-1,5.5-1.7,11.5-2.2,18-.2,3.5-.2,6.8,0,10.1.3,3.8.5,7.3.7,10.7,0,.3.3.6.6.6h.3c.2,0,.4-.2.4-.3.4-6.9,1.2-13.7,2.4-20.2.7-3.6,1.7-7.2,3.1-10.7,4-10,9.5-19,16.3-27.1,0,0,.2-.1.3,0,0,0,.2,0,.2.2.1.2.2.4,0,.6-2.4,4.5-4.1,8.9-5.1,13.1-5.7,25.1-4.2,51.6,6.5,75.1,1.7,3.7,4.4,8,6.5,12.1,1,2.1,2.8,3.5,3.8,5.7,0,.2.2.3.4.2h.3c0-.2,0-.2,0-.2-3.2-9-5.3-18.2-6.3-27.6-.4-3.7-.7-7.6-1.1-11.9-.6-7.2.5-14.2,1.1-21.4.3-3.5.7-3.5,1.3,0,.7,4.2,1.5,8.6,2.2,13.1,2.1,12.4,5.6,24.4,10.3,36,2.7,6.6,5.8,12.8,9.4,18.5,4.2,6.7,8.9,13,14.1,19,.7.8,1.3,1.7,1.7,2.6,0,0,0,0,.1,0h.3c.2-.2.2-.4.2-.6-1.5-3.4-3.1-6.7-4.8-10-6.4-12.1-10.2-25.2-13.1-39.9,0-.4,0-.8,0-1.2.2-.7.5-.7.8,0,6.1,15.2,12.7,28.5,19.8,39.9,2.5,4,5.5,8.4,9.2,13.3,5.8,7.7,12.6,14.6,19,21.6.6.7,1.4,1.4,2.2,2.1,1.2,1.1,1.7.8,1.3-.8-.4-1.7-1.9-3.1-2.6-4.6-3.7-7.7-8.4-15.5-11.8-22.8-8.7-19-14-39.3-15.8-60.7-.3-3.1-1.1-6.1-1.1-9.2,0-2.1.3-2.1.9,0,2.4,9.1,4.5,17.1,6.5,24,2.9,10,6.4,19.5,10.4,28.4,1.8,4,2.3,3.9,1.3-.4-2.1-9.3-4.3-19.2-5.4-28.3-.9-7.7-1.7-15.1-2.6-22.3,0-.2.1-.3.3-.4,0,0,0,0,0,0h.3c0,0,.2,0,.2.1,1.7,5.7,3.3,11.4,4.9,17.3,2.8,10.5,7.1,21.2,12.9,32.1,4.7,8.8,11.2,18.4,19.6,28.7,5.6,6.9,13.4,15,23.5,24.5,4.9,4.6,9.5,8.5,13.8,11.8,5.2,3.9,10.1,7.7,14.5,11.3.5.4.7.3.4-.3-.4-1-.9-1.9-1.5-2.8-5.1-6.9-10.2-14.3-15.2-22.1-2.7-4.1-5.4-9.2-8.4-15.4-3.3-7-6.9-13.7-10.7-20.3-1-1.7-1.6-2.9-1.9-3.8-.3-.8-.2-.9.4-.2,2.9,3.6,4.9,6.2,6.3,7.7,3.6,4.1,7.1,8.1,10.6,12.1,11,12.8,23.3,24.1,36.7,34,5.5,4,9.9,7,13.4,8.8,4.6,2.5,9.1,4.3,13.6,5.7,3.1.9,5.4,1.7,7.1,2.4,4.7,2,8.4,3.9,14,5,.1,0,.2,0,.3,0,.1,0,0-.3-.2-.5,0,0-.2-.2-.3-.2-13.9-7-26.6-16.8-37-28.6-3.2-3.6-6.2-6.9-8.7-10.7,0,0,0-.1,0-.2,0-.1,0-.3,0-.3.2-.2.2-.5,0-.7-.6-.8-1.2-1.6-1.7-2.4-.9-1.2-.7-1.5.6-.7.9.5,1.8,1.2,2.7,1.9,14.8,12.4,30,23.1,45.5,32.1,5.8,3.3,11.8,6.1,18.1,8.4,2.2.8,4.5,1.4,6.8,1.8.1,0,.2,0,.3,0,.1,0,.1-.2,0-.4,0-.1-.2-.2-.3-.3-17.6-7.2-33.3-17.3-47.3-30.2-14.2-13.3-27.6-26.3-40.1-41.6-1.4-1.7-2.4-3.5-3.8-5.2,0,0,0,0,0,0l.2-.2c.1-.1.3-.1.5,0,7.8,7.6,15.8,15.1,23.9,22.5,10.9,9.8,23,19.5,36.4,29,10.2,7.3,18.5,12.3,24.8,15.2.2,0,.3,0,.5-.1l.2-.2c0,0,0-.2,0-.2-7.9-5.6-15.5-11.3-22.9-16.9-3-2.3-5.8-4.9-8.7-7.4-5.9-5-11-11.1-16.5-16.7,0,0,0,0,0,0l.2-.2c.1-.1.3-.1.4,0,3.4,2.7,6.6,5.1,9.8,6.9,5.8,3.5,11.3,7,16.6,10.6,0,0,0,0,.1,0,0,0,0,0,0,0,0-.2,0-.3-.1-.4-25.4-27.1-48.3-54.4-68.7-81.9-10.9-14.7-20.7-31.3-29.4-49.8-3.3-7-6-14.1-8.9-21.3-2.9-7.1-4.7-13.8-6.4-21.4-.3-1.3-.7-2.4-1.2-3.5-.2-.4-.4-.4-.6,0-1.1,1.7-1.7,3.9-1.9,6.5-.9,13,.7,25.6,4.9,37.8.6,1.8.4,1.9-.7.3ZM539.7,610.2c11.1,9.7,22.9,15.9,35.5,18.5,9.9,2.1,19.1,3.5,27.6,4.2,21.2,1.8,39.8,4.5,55.7,8.2,15.1,3.5,28,9.2,41.1,16.2,1,.6,2,1.2,2.9,1.9.4.3,1,.2,1.3-.2,0,0,.1-.2.2-.3.1-.5,0-.9-.1-1.4-1-2.2-2-4.7-2.9-7.5-3.6-10.2-10.4-18.2-20.7-24.1-5.5-3.2-10.8-5.4-16-6.8-14.9-3.9-30.6-5.1-47.1-3.8-9,.7-17.8,1.5-26.2,2.2-17.8,1.6-35.5-1.8-51.8-8.7-.5-.2-.7,0-.6.5,0,.3.2.5.6.7.1,0,.3.2.4.3ZM287,722.3c3.4-3.6,6.1-7.8,10.1-11,7.4-6.2,13.9-12.7,22.4-17.8,4.2-2.5,8.4-5.1,12.8-7.7,8.6-5.3,17.5-9.4,26.4-13.9,7-3.6,14-7.7,21-12.5,4.5-3.1,8.7-6.9,12.9-10.6,4-3.6,6.8-7.7,10.5-11.3.2-.2.2-.5,0-.7-.1-.2-.3-.2-.5-.2-.2,0-.4,0-.6.2-3.7,2.3-6.9,4.1-9.6,5.2-5,2.2-12,4.9-21,8-5.6,1.9-11.8,4.2-18.6,6.8-15.7,5.9-28.2,11.5-41.2,18.7-6.3,3.5-14.8,9.8-18.8,16-4.9,7.7-7.7,15.9-8.2,24.5-.1,2.1.3,4.6,1.4,7.6.1.4.3.4.4,0l.2-.5c.1-.3.3-.6.5-.8ZM594.5,831.9c-.7,1.2-1.4,2.5-2.3,3.7-3.5,4.5-6.9,8.9-10.2,13.7-8,11.9-15.9,23.7-23.5,35.7-5.6,8.8-11.6,17.8-18.1,27-6.1,8.7-15.6,17.9-25.9,20.7-3.1.9-6.6,1.2-10.4,1-3.3-.2-6.7-1-10.1-2.5-11.7-5-20.9-13.3-30.4-22.1-11-10.1-21.4-20.5-31.3-31-1.5-1.6-2.4-3.5-3.5-5.5-.1-.2-.2-.4-.1-.7,0-.1,0-.2,0-.4,0-.3,0-.5-.2-.8-1.7-2.8-3.4-5.5-5.1-7.9-10.2-14.4-21.5-29.9-34-46.6-9-12.1-17.5-24.1-25.4-35.8-15.7-23.4-30.9-46.3-45.6-68.8-.5-.7-1.4-.9-2.2-.5-.2.1-.4.3-.5.5-2.8,4.6-5,7.3-3.8,13.1,1.8,8.7,3.4,17.6,6.3,26,6.2,18.4,14.5,35.6,24.8,51.8,13.4,21,28.8,40.8,45.3,60,19,22.2,37.6,43.9,56,65.1,2.9,3.3,9.6,10.6,20.3,22,2.3,2.5,4.8,4.7,7.2,7.2,4.4,4.6,9.2,8.9,14,13.2,3.4,3.1,7.8,6.3,13.1,9.8,4.6,3,12,6.1,17.6,5,3.5-.7,6.5-1.9,8.8-3.5,2.6-1.8,4.7-3.5,6.2-5.3,8.2-9,15-18,20.5-27,5.9-9.8,11.8-19.7,17.5-29.5,5.7-9.8,10.9-20,16.7-30.1,7.7-13.6,15.3-27,22.8-40.1,4.4-7.7,9.7-16.6,16.1-26.7,5.8-9.3,12-19.7,18.6-31.2,8.7-15.2,16.2-30.4,23.3-46.5,5.5-12.5,9.6-25.2,12.6-38.3,2.6-11.6,3.4-23.7,2.5-36.3-.1-1.5-.6-2.8-1.4-4-2.4-3.4-5.9-5.6-8.9-8.3-.2-.2-.6-.2-.8,0,0,0,0,.1-.1.2-3,7.4-5.8,15-8.6,22.7-6.3,17.2-13.1,32.3-22.7,54.1-.6,1.3-1.2,2.5-1.8,3.8-1.7,3-2.9,6.4-4.4,9.5-10.5,21-20.9,41.8-31.2,62.5-1.5,3-2.7,5.6-3.7,7.9-1.1,2.8-2.1,5.5-2.8,8.2-.1.5-.2,1.4-.3,2.7,0,.9-.3,1.7-.7,2.5ZM506.7,884c-.3-.2-.4-.4-.4-.8,0-.3,0-.6-.2-.9-3.8-11.8-3.8-23.3,0-34.3.3-1,0-2.1-.7-2.8-10.8-9.6-20.9-17.2-35.7-18.6-1.6-.1-3.4-.1-5.2,0-13.6,1.5-23.9,7.4-30.4,19.7-2.4,4.6-2.5,9.1.6,13.2,7.6,10,16.6,20.2,25.2,29.9,1.2,1.3,2.4,2.5,3.6,3.5,1.4,1.1,2.7,2.2,4.1,3.3,2.1,1.6,4.1,3.3,6.1,5,5.5,4.9,11.4,9.3,17.6,13.3,2.6,1.7,5.2,2.9,7.7,3.7,6,1.9,10.5,1.9,16.4-.8,4.9-2.2,8.9-6.3,12.3-10.3,10.7-12.6,19.5-26.2,28.5-41,8.4-13.8,16.9-26.4,25.7-39.4.4-.6.3-1.5-.4-2,0,0-.1,0-.2-.1-1.5-.7-2.3-2-3.6-3-1.1-.9-2.2-1.8-3.4-2.7-5.4-4.3-14.4-5.9-21.1-5.4-5.4.4-10.8,2.3-16.3,5.6-9.3,5.6-16.4,13.2-21.4,23-1.7,3.4-2.7,7-3.9,10.5-3.2,9.8-4.6,20.2-4.3,31.1,0,.6-.2.7-.7.4Z"/>
  <path class="cls-1" d="M662.3,99.2c10.2-5.3,19.7-9.4,28.4-12.1,7.3-2.3,15.6-4.2,25-5.7,3.7-.6,7.4-.9,11-.9,3.9,0,7.6,0,11,0,1.8,0,3.7.2,5.7.7,0,0,.2,0,.2.1,0,0,0,.1,0,.3,0,0,0,.1-.2.1-7.1,0-14.2.5-21.4,1.6-28.8,4.5-55.4,15.8-80.2,31.9-2.3,1.5-7.1,4.9-14.3,10.3-.2.1-.3.1-.5,0-.2,0-.2-.2,0-.4,3.2-3.6,7-7.2,10.8-10.2,7.5-5.8,15.7-11,24.4-15.5Z"/>
  <path class="cls-1" d="M415.7,243.4c0-.7,0-1.5-.4-2.2-4.7-10.8-7.9-21.4-9.5-32-1.1-7.2-1.9-14.6-2.4-22.2-.6-9.7.1-20.3,2.3-31.7,2.4-12.5,6.1-24.3,11.2-35.4,3.4-7.3,7.4-14.1,12-20.5,1.2-1.7,2.4-3.3,3.5-5,2.7-4,6-7.2,9.5-10.4.1-.1.2-.1.4,0,.2,0,.3.2.1.4-3.3,4.7-6.9,8.8-9.6,13.9-3.3,6.5-6.9,12.4-9.7,19.5-6.6,16.8-10.4,34.2-11.5,52.1-.3,5.6-.2,11.4.2,17.3,1.3,16.1,4.2,30.9,10.2,45.9,4.4,11.2,8.9,20.8,13.2,29,2.7,5,6.4,10.9,11.1,17.6,9,12.8,18.5,25.1,28.3,36.9,0,0,0,.2,0,.2h-.2c0,.1,0,.1,0,.1-1-1-2-1.8-3.1-2.6-2.2-1.6-3.7-3.9-6-5.4-1.1-.7-2.1-1.5-3-2.4-5.2-4.9-10.2-9.7-15.1-14.4-4.4-4.2-8.3-8.2-11.6-11.9-4.9-5.5-10.2-11-14.6-16.8-7.3-9.7-13.5-20.4-18.8-32.2-2.4-5.4-4.6-10.8-6.7-16.3-1.9-4.9-3.3-10.5-4.2-16.8-1.5-10.2-2-20.2-1.4-29.8,0-.2.1-.3.4-.3h.3s0,0,0,0c0,8.5.8,16.1,2.4,23,2.4,10.2,5.6,19.4,9.4,27.6,2.9,6.1,7.1,14.4,12.6,24.7.3.7.6.6.6-.1Z"/>
  <path class="cls-1" d="M548.7,236.7c.1,0,.2,0,.3-.2,1.8-4.1,3.6-8.2,5.5-12.3,7.6-16.7,16.2-31.7,26-45,4.5-6.1,9.6-12.2,15.5-18.1,2.2-2.2,4.4-4,6.8-5.4,0,0,0,0,0,0v.2c.2.1.1.3,0,.4,0,0,0,0,0,0-1.4.6-1.9,1.9-2.9,2.9-4.1,4.4-7.6,8.8-10.3,13.1-5.2,8.1-10.9,15.8-15.3,24.4-4.3,8.4-7.8,15.8-10.3,22.2-4.3,11.1-8.1,21.9-11.2,32.5-1.9,6.4-3.4,13.5-4.6,21.3-2.9,18.9-5.3,38.3-7.2,58.2-.2,2.6,0,5.2-.6,7.7-.1.5-.3.5-.5,0-.5-1.2-.8-2.4-.9-3.6-1.4-15.1-2.7-29.8-4-44-.5-5.6-.7-13.1-.7-22.4,0-8.5.4-15.4,1-20.8,2.5-21,8.9-40.7,19.3-59,2.8-5,6.1-10.4,9.7-16.2,9.5-15.1,21.7-29,36.4-41.8,3.2-2.8,6.2-5.1,9-6.9,3.6-2.4,3.8-2.1.8,1-11,11.2-21.2,23.2-30.9,36.6-8.1,11.2-14.6,23.2-19.4,35.7-1.9,5-4,10.6-6.2,16.7-1,2.8-2.9,10.3-5.6,22.5,0,.2,0,.3.3.3Z"/>
  <path class="cls-1" d="M484,303.8c3.3,6.6,6.7,13,10.2,19.3,1.1,2,.9,2.1-.6.4-1.1-1.2-2-2.5-2.9-4-1.6-2.6-3.8-4.5-5.3-7.1-3.4-6.1-7.7-11.5-9.6-15.1-8.1-15-15.1-31-19.2-47.7-2.2-9.1-4-17.5-5.2-25-1.3-8-1.7-16.6-1.2-25.7,0-1.2.2-1.3.4,0,2,12,4.3,23.9,7.2,35.9,1.2,4.9,3.4,12.1,6.6,21.7,2,5.9,4.4,12.4,7.2,19.4,4.7,11.6,8.8,20.9,12.4,28Z"/>
  <path class="cls-1" d="M879.8,310.9c-17-15.5-34-29.5-51-42-5.6-4.1-11.4-8.1-17.4-11.9-15.5-9.9-30.7-18-45.7-24.3-14.7-6.1-31.2-10.4-49.7-12.9-.1,0-.2,0-.2-.2,0,0,0,0,0-.1,0,0,.1,0,.2,0,3.4-.3,6.6-.3,9.8-.2,18.7.9,36.7,4.1,54.1,10.8,28.5,11,55.3,28.4,75.9,51.2,8.1,8.9,15.3,17.4,21.8,25.5.9,1.2,1.8,2.4,2.7,3.6,1.3,1.8,1.1,1.9-.5.4Z"/>
  <path class="cls-1" d="M522.1,320c-2.8-5.9-5.3-14.1-6.6-21.2-1.8-10-2.8-20-3.1-30-.5-16.5,2-32.7,7.6-48.7,0-.1.1-.1.2-.1h.4c0,.1,0,.1,0,.2-.4,3.9-1,7.7-1.6,11.5-.6,3.5-.9,7.3-1.1,11.4-.7,16.3-.4,29.8,1.9,46.2,1.5,10.5,3.9,22.3,7.1,35.3.8,3.3,1.4,6.4,1.8,9.3.4,2.8,0,2.9-.9.2-1.5-4.2-3.5-8.8-5.9-14Z"/>
  <path class="cls-1" d="M757.6,239.4c-.2,0-.2-.2-.1-.4v-.2c.1,0,.1,0,.2,0,2.9.9,5.7,1.9,8.4,3,4,1.6,8,3.3,12.2,5.2,4.2,1.9,8.1,3.9,11.7,6.2,8.6,5.3,16.2,10.5,22.7,15.6.7.6,1.3,1.2,1.8,1.9.5.8.4.9-.4.4-8.8-5.6-17.8-11-26.9-16.4-8.4-5-18.3-10-29.5-15.2Z"/>
  <path class="cls-1" d="M575.8,315.4c-2.3,2.6-4.8,5.1-7.3,7.5-.8.7-2,2.4-3.4,4.8,0,0,0,0,0,0h-.3c-.1-.2-.2-.3-.1-.4,1.4-3.2,2.9-6.1,4.6-8.5,17.4-25.3,41.1-42,71.2-50.1,6.7-1.8,14-3.1,22-3.9,6.8-.7,13.5-.7,20.3,0,8.1.7,15.9,1.9,23.4,3.5,1,.2,2,.5,3,.8,0,0,0,0,0,.1v.2c-.1.2-.3.2-.5.2,0,0,0,0,0,0-2-.9-3.7,0-5.9-.1-11.9-.8-22-.8-30.2-.1-17.4,1.4-35,6.2-52.7,14.4-3.3,1.5-8.4,4.4-15.5,8.8-9.6,5.9-18.8,13.2-27.6,21.8-.3.3-.6.6-.9,1Z"/>
  <path class="cls-1" d="M523.6,350.2c-.5-.8-1-1.7-1.3-2.6-2-5.6-3.9-11-5.7-16.3-2.6-7.6-4.7-16.4-6.3-26.2,0-.1,0-.2.2-.2h.3c0,0,0,0,0,0,2.2,7.7,4.7,15.4,7.7,22.8,1.8,4.5,2.4,10.3,3.9,15.3.9,2.9,1.7,6.1,2.4,9.6.1.5,0,.6-.5.3-.4-.3-.5-.7-.4-1.4.1-.5,0-.9-.2-1.4Z"/>
  <path class="cls-1" d="M689.1,369.2c-5.3-3.1-11.9-6.3-20-9.7-7.5-3.1-15.7-5.7-24.7-7.7-23.1-5.1-45.4-2.7-67,7.1-9.1,4.1-17.3,9.8-24.7,17.2-.1.1-.3.2-.4.1h-.3c0-.1,0-.2,0-.2.9-1.1,1.4-2.3,2.4-3.4,2.9-3.3,5.6-6.8,8.8-9.9,11.6-11,25.5-18.4,41.6-22.2,12.6-3,26.1-1.8,39,.9,17.1,3.6,32.6,11.7,46.2,22.2,5.6,4.3,10.8,9.3,15.7,15.1.7.9,1.2,1.8,1.5,2.9.2.9,0,1.1-.7.4-5.9-5.2-11.7-9.5-17.4-12.9Z"/>
  <path class="cls-1" d="M678.1,368.5c3.9,1.6,7.5,3.6,10.8,5.9,5.5,3.9,5.3,4.2-.6,1-3.5-1.9-7.2-3.4-11.1-4.5-16.5-4.7-32.7-8.1-49.6-8.1-10.7,0-22.3.9-33.1,2.8-8.9,1.6-17.2,3.5-24.8,5.6-2.7.8-2.8.4-.4-1,17.4-10.1,37.6-16.2,57.2-14.8,11.6.9,21.3,2.5,29,4.9,8.6,2.7,16.2,5.4,22.6,8.1Z"/>
  <path class="cls-1" d="M515.9,375.4c7.2,10.9,10.3,26.3,6.4,39.4,0,0,0,.1-.2.1-.1,0-.2,0-.2-.2,0-14.7-2.2-27.7-7-38.9-1.4-3.4-1.1-3.6.9-.5Z"/>
  <path class="cls-1" d="M657,435.1l3.5-7.4c.5-.9,1.4-1.5,2.4-1.5h9c.6,0,1.2-.6,1.2-1.2,0-.1,0-.2,0-.3-1.5-5.4-4.7-10.8-7.2-15.7-.8-1.6-1.9-2.6-3.2-3.3-14.2-6.6-30.6-8.6-46.6-9.6-.7,0-1.1.2-1.7.4-.6.2-.7,0-.2-.4.2-.3.5-.4.8-.4,11.1-1.1,22.2-.9,33.3.5,6.5.8,12.5,2.5,18,4.9,1.8.8,3.1,2.2,4.1,4.2,1.9,4.1,3.7,8.2,5.2,12.3,1.2,3.1,4.8,7.8,8.6,5.7,3.8-2,7.6-3.7,11.5-5.2,1.2-.5,2.4-.3,3.4.5,8.5,6.8,14.7,13.3,18.8,19.5,2.3,3.5,4.8,7.3,7.4,11.3.9,1.4.5,2.6,0,4-.1.3-.1.7,0,1,.3.8.5,1.5.6,2.3.1.8,0,.9-.6.2-5.7-7.7-11-16.1-18.2-22.4-3.1-2.8-6.1-5.6-9-8.4-1.5-1.5-3.5-.9-5.1.2-3.3,2.2-6.7,3.3-10.3,3.1-5.9-.2-11.5.2-17,1.2-1.2.2-2.4.6-3.2,1.6-2.2,2.8-3.6,5.7-4.5,8.7-.4,1.4-.7,1.4-.9,0l-.4-2.4c0-.4-.3-.7-.7-.9-5.2-2-10-4.1-14.2-6.5-.9-.5-1.7-.5-2.4,0-2.2,1.3-4.3,3-6.4,4.9-.1.1-.3.1-.4,0l-.2-.2c-.2-.2-.2-.5,0-.8,1.7-2.2,6.1-7.8,9.2-6.5,4.9,2.1,9,5.1,13.6,7.2.7.3,1.2.1,1.6-.6Z"/>
  <path class="cls-1" d="M391.1,494.9c0,24-19.5,43.5-43.5,43.5s-43.5-19.5-43.5-43.5h0c0-24,19.5-43.5,43.5-43.5h0c24,0,43.5,19.5,43.5,43.5ZM322.2,486.3c5.6,5,14.5,4,19.9-2.1,0,0,0,0,0,0,5.4-6.1,5.2-15.1-.4-20t0,0c-5.6-5-14.5-4-19.9,2.1h0c-5.4,6.1-5.2,15.1.4,20h0Z"/>
  <path class="cls-1" d="M701.7,470.3c-3.3-3.6-6.8-6.9-10.4-10.1,0,0,0,0,0,0l.2-.3c.2-.2.3-.2.6,0l11.9,8.5c.7.5,1.6.7,2.5.4,2.7-.8,5.5-.7,8.2.5,5.7,2.3,11.7,4.5,18.1,6.8,1.3.5,2,1.4,1.8,2.9l-.2,2.3c0,1.2-.7,1.6-1.9,1.2-7.2-2.7-14.3-5.2-21.4-7.5-3.7-1.2-5.4-1.7-8.9.5-5,3.1-9.9,6.1-14.7,8.9-2.4,1.4-5,2.1-7.5,3.2-1.2.5-1.4.3-.4-.6,1.1-1,2.3-1.9,3.7-2.6.8-.4,1.2-1.4.8-2.2-.1-.2-.3-.4-.5-.6-2.6-2-5.2-4.1-7.6-6.2-1.3-1.2-2.9-2-4.6-2.5-3.2-.8-7.4,1.5-10.5,2.5-1.6.5-3.4.7-5.1,1.1-.2,0-.3,0-.4,0,0,0-.1-.1-.2-.2,0,0,0-.1,0-.1,4.7-1.9,9.3-4,13.8-6.3.4-.2.8-.3,1.2-.2,1.7.2,2.9.5,3.5.9,4.3,2.4,8.3,5.1,12.1,8.1,1.4,1.1,2.9,1,4.5-.2,3.4-2.5,7.2-5,11.4-7.4,0,0,.1-.1,0-.2,0,0,0,0,0,0Z"/>
  <path class="cls-1" d="M584.4,537.5c-1.9.7-3.6,1-5.3.9-15.6-.9-27.4-11.4-31.2-26.6-3.4-13.5,4.9-30.2,17.9-34.9,3.5-1.3,7.3-2,11.2-2.2,3.9-.2,8.3.5,13.2,2.1,6,2,11.4,6.2,14.9,11.8,9.5,15.2,6.7,32.9-7.7,43.4-2.9,2.1-6.6,3.9-11.2,5.3-.8.2-1.2,0-2,.3ZM565.1,481.5c-5.6,3-9.9,7.9-6.9,14.6,1.9,4.3,5,6.4,9.3,6.3,5.2-.2,10.1-4.9,10.7-10,.8-7.3-5.4-14.9-13.1-10.8Z"/>
  <path class="cls-1" d="M746.3,593.6c-12.7,9.5-26.7,16.6-42,21.4-2,.6-2.1.4-.3-.6,6.3-3.7,13-7.4,18.6-11.6,22-16.5,38.7-37.4,49.3-62.9,2.5-6.1,4.4-12.6,5.5-19.5,2.2-13.6,2.1-26.8-.2-39.6-.1-.7,0-.7.4-.1.4.6.7,1.3,1,2,7.2,19.3,7.9,43,1.5,62-1.8,5.3-4.2,10.1-6.4,15.3-.9,2-1.9,4-3,5.8-6.4,10.8-14,20.2-24.3,27.9Z"/>
  <path class="cls-1" d="M719.4,516.3c2.7-3.3.5-8.8-.7-12.5-.2-.6-.2-.9,0-1.1.3-.4.9-.4,1.2,0,0,0,0,0,0,0,3.4,3.4,4.9,9.5,11.2,7.7,1.4-.4,2.1-1.2,3.1-2.1,1.2-1.2,1.8-.9,1.7.8,0,1.4-.4,2.7-.9,4-1.6,4.1-6.8,2.8-9.9,1.4-.7-.3-1.6,0-1.9.7,0,0,0,.1,0,.2-.5,1.8-1.5,3.7-3,5.5-.2.3-.5.3-.8,0-.6-.5-1.1-1.1-1.4-1.8-.2-.3-.4-.6-.7-.8-3.7-2.8-6.2-6.6-10.8-8.3-.3-.1-.6-.1-.9,0-4.4,1.1-8,3.4-12.2,5.4-.7.3-1.4.5-2.1.4-.7,0-.7-.3-.2-.7,3.7-2.8,7.8-5.2,12.1-7.2.7-.3,1-1.1.6-1.8,0,0,0,0,0-.1-1.8-3.1-3.9-5.7-6.2-8-.3-.3-.4-.7-.1-1.1l.2-.2c.1-.2.3-.2.5,0,0,0,0,0,0,0,4.9,5.2,9.1,9.2,12.8,12.1,2.6,2.1,5.2,4.6,7.8,7.5.3.3.6.3.8,0Z"/>
  <path class="cls-1" d="M524,522c.3,0,.5.1.6.4,0,0,0,.2,0,.3-.2.4-.5.6-1.1.5-.4,0-.5-.3-.3-.6.2-.3.5-.5.8-.5Z"/>
  <path class="cls-1" d="M515.2,535.4c.3.1.6,0,.8-.3.9-2.2.2-4.2,1-6.4.7-1.9,2.3-3.4,4.7-4.6.5-.2.6-.1.4.4-1,2.3-2.3,4.2-3.8,5.8-.3.3-.4.6-.4,1l-.3,5.6c0,.8-.7,1.3-1.4,1.3-.2,0-.4,0-.6-.2-1.5-.9-3.2-1.4-5.1-1.7-.4,0-.7-.3-.8-.6-.9-1.8-1.3-3.9-1.2-6.2,0-.7.2-.7.5,0,1.3,2.8,3.4,4.8,6.3,6Z"/>
  <path class="cls-1" d="M528.5,530.8l-3,.6c-.4,0-.7.3-.9.7l-1.1,1.9c-.3.5-.5.5-.6,0-.2-1.1,0-2.7,1.2-3.2,2.3-1,4.5-1.1,6.4-.1.5.2.5.4,0,.6-.5.1-1,0-1.4-.2-.2-.1-.4-.2-.6-.1Z"/>
  <path class="cls-1" d="M728.5,535.4c.1,0,.3,0,.3.1,0,0,0,.1,0,.2l-2.9,7.2c-.5,1.2-1.6,2-2.9,2-5.8,0-11.7,0-17.7.2-2.7,0-5.3.8-8,.8-.9,0-.9-.2,0-.5,5.4-1.9,11.2-3.6,17.4-5.1,4.4-1.1,8.9-2.7,13.7-4.9Z"/>
  <path class="cls-1" d="M722.4,614.4c3.6-1.9,7.1-3.8,10.7-5.6,1.5-.8,3-1.6,4.5-2.7,5.1-3.4,9.2-6.3,12.2-8.7,10.3-7.9,19.6-17.5,27.7-28.8,2.3-3.2,4.2-7.1,6.5-10.6.9-1.3,1.1-1.2.6.3-1.7,5.5-3.6,10.1-5.6,13.8-7.4,13.6-18.5,25.8-32.5,32.8-4.3,2.1-8.3,4.9-12.8,6.5-3.5,1.2-7.1,2.4-10.8,3.5-.1,0-.2,0-.3,0l-.2-.2c0-.1,0-.2,0-.2Z"/>
  <path class="cls-1" d="M541.9,587.4c-.2,0-.2.3-.1.4,0,0,0,0,0,0l6,7.6c.3.4.2.6-.3.5-2.3-.5-6.6-5.4-8.2-7.2-1.4-1.5-1.2-2.7.7-3.5l3.1-1.4c.4-.2.6-.7.4-1.1,0,0,0,0,0,0l-4.4-8.6c-.2-.3-.2-.7,0-1,1-1.5,2.6-3.1,4.4-3.4.8-.1,1.5-.4,2.2-.8.1,0,.3,0,.3,0,0,0,0,0,0,0v.2c.1,0,.1,0,.1,0,0,0,0,0,0,0-.9.3-1.8.7-2.6,1-6,2.4,2.6,12,4.8,14.1.8.8.7,1.2-.5,1.1-1.9,0-4,.6-6,1.8Z"/>
  <path class="cls-1" d="M340.7,578.5c0,2.2.5,4.1,1.3,5.7,1.6,3.3,3.2,6.7,4.8,10.2.2.4.1.7,0,1-2.2,3.5-4.5,7.2-7.1,11.3-1.2,1.9-2.1,3.7-2.8,5.5-.3.7-.2,1.3.2,1.9,3.2,4.9,7,7.9,11.3,11.5.7.6.9,1.6.5,2.4l-5,9.8c-.3.6-.7.8-1.4.9h-.3c-.2,0-.4-.1-.4-.3,0,0,0,0,0-.1l2.4-7.2c.5-1.4.1-2.9-.9-3.9-2.6-2.8-5.4-5.5-8.2-8.4-1.2-1.2-2-2.7-3.1-3.9-.3-.3-.4-.7-.3-1.2.3-1.3.8-2.6,1.7-3.9,3-4.8,5.8-9.3,8.5-13.5.9-1.4,1-2.9.6-4.5-1-3.6-2.1-7.1-3.4-10.6-.2-.6-.3-1.5-.2-2.6,0-.3.2-.6.4-.9.9-.9,1.8-1.6,2.9-2.1.8-.4.9-.2.3.4l-1.5,1.6c-.2.2-.3.6-.3.9Z"/>
  <path class="cls-1" d="M510.1,618.8c-2.9-2.5-5.7-4.7-8.7-6.6-1.1-.7-2.3-.8-3.4-.2-1.1.6-1.5,1.9-1,3,0,0,0,0,0,0,1.7,2.9,3.8,5.5,6.3,7.7,0,0,0,0,0,0s0,0,0,0l-.2.2c-.2.2-.3.2-.5,0-1.4-1.5-3-2.8-4.7-4-4.9-3.4-9.1-9.2-10.4-14.7-1.1-4.8,4.3-6.5,7.7-4.8,3.4,1.6,6.9,4.4,9.1,7.6,2.5,3.7,4.6,7.5,6.2,11.3,0,.1,0,.2,0,.3-.1.3-.3.3-.5.1Z"/>
  <path class="cls-1" d="M431.6,627.7c-1.6,2.8-2.9,5.7-3.9,8.7,0,.2-.3.4-.6.3h-.3c-.4-.2-.7-.6-.6-1.1.3-1.9.6-3.9.8-5.9.5-4.7,2.1-9.7,4.3-13.8,1.1-2.2,2.9-4.2,5.3-6,2.6-2,5,1.6,5.1,3.9.4,8.5-1.7,16.3-6.3,23.3-.7,1-.9.9-.6-.2.5-2,2-10.4-2.4-9.8-.4,0-.7.3-.9.6Z"/>
  <ellipse class="cls-1" cx="512.2" cy="612.3" rx=".4" ry="3.6" transform="translate(-281.8 530.4) rotate(-44.2)"/>
  <path class="cls-1" d="M716.8,626.2c4.6-2.1,9.4-4.1,14.3-6,7.5-2.9,13.3-5.6,19.3-9.2,2.1-1.2,2.3-1,.7.8-.7.8-1.6,1.6-2.5,2.3-5.6,4.4-12.4,7.8-20.7,10.2-4.5,1.3-8.2,2-11.1,2.1,0,0,0,0,0,0,0,0,0,0,0,0,0,0,0,0,0,0s0,0,0,0Z"/>
  <path class="cls-1" d="M310.6,630.1c1.7,3.4,3.4,6.8,5.1,10.1,1.1,2.1,1.3,4,.6,5.5-.7,1.5-1.2,1.4-1.6-.1-1.3-5.3-4-10-4.9-15.2-.2-1.5,0-1.6.7-.2Z"/>
  <path class="cls-1" d="M196.2,691.4c-1.1-.6-1.9-1-2.4-1.4-1.3-.9-1.2-1.2.4-.8,1.2.3,2.3.6,3.4,1.1,9.1,3.7,18.8,6.2,28.8,6.9,5.6.4,11.6,1.3,17.3.7,5-.5,9.8-1,14.4-1.6,3-.4,3.2,0,.4,1.3-15,6.5-32.1,7.7-47.3,1-5.1-2.2-10-4.6-14.9-7.2Z"/>
  <path class="cls-1" d="M231.5,712.2c12.9-1.6,25.2-5.7,35.6-12.9.2-.1.4,0,.5,0l.2.2s0,0,0,0c-4.5,4-7.6,6.6-9.5,7.7-13.5,8.1-28,10.3-43.4,6.6-4.2-1-8.3-2.2-12.3-3.6-.1,0-.2-.1-.1-.3v-.5c.2,0,.2-.1.3-.1,10.9,2.8,20.5,3.7,28.8,2.7Z"/>
</svg>